<svg width="23" height="20" viewBox="0 0 23 20" fill="none" xmlns="http://www.w3.org/2000/svg">
<path d="M0 9.7549C1.9677e-05 10.1463 0.146515 10.5216 0.407265 10.7984C0.668015 11.0751 1.02166 11.2306 1.39043 11.2306H17.5118L12.0784 16.9971C11.8225 17.275 11.6801 17.6488 11.6821 18.0373C11.684 18.4259 11.8302 18.798 12.089 19.073C12.3477 19.3479 12.6982 19.5035 13.0643 19.5061C13.4304 19.5087 13.7828 19.358 14.0449 19.0867L21.8556 10.7975C22.1161 10.5206 22.2624 10.1453 22.2624 9.75396C22.2624 9.36265 22.1161 8.98733 21.8556 8.71043L14.0452 0.42115C13.7832 0.149099 13.4306 -0.00224189 13.0641 8.4121e-06C12.6975 0.00225872 12.3466 0.157918 12.0876 0.433168C11.8286 0.708418 11.6823 1.08103 11.6807 1.47004C11.679 1.85906 11.8221 2.23306 12.0787 2.5108L17.5121 8.27727H1.39043C1.2077 8.27734 1.02677 8.31563 0.857988 8.38993C0.689203 8.46424 0.535868 8.57312 0.406744 8.71034C0.277619 8.84756 0.175237 9.01044 0.105447 9.18967C0.035656 9.3689 -0.00017549 9.56097 0 9.7549Z" fill="white"/>
</svg>
