<svg width="61" height="125" viewBox="0 0 61 125" fill="none" xmlns="http://www.w3.org/2000/svg">
<g opacity="0.8">
<path d="M26.0242 33.347C25.6322 34.5936 26.5656 35.3527 27.6297 35.6901C32.3809 37.2085 37.6175 36.2525 42.0233 34.1062C44.4223 32.9346 46.6532 31.3976 48.7254 29.7105C45.9437 35.109 43.0781 40.4701 40.3058 45.878C37.8695 44.6033 35.0599 44.4252 32.3529 44.8657C30.8034 45.1188 29.2913 45.5593 27.7978 46.0373C26.4163 46.4778 25.0535 46.9933 23.8307 47.7993C22.7012 48.5491 21.4224 49.7113 21.217 51.1359C21.021 52.4949 21.9638 53.5165 23.1866 53.9289C24.5214 54.3787 26.0802 54.3881 27.4711 54.4256C28.9926 54.4631 30.5234 54.3975 32.0169 54.1257C33.8371 53.7977 35.5826 53.1603 37.1415 52.195C36.7774 52.9448 36.404 53.7039 36.0493 54.4537C34.8452 56.9937 33.7437 59.5711 32.7636 62.2047C32.717 62.3453 32.661 62.4859 32.6143 62.6171C32.3716 63.0201 32.1196 63.4138 31.8769 63.8168C31.1675 64.9508 30.4954 66.1224 30.0287 67.3596C27.4431 66.0943 24.3627 66.4129 21.6931 67.2846C19.0235 68.1562 16.6059 69.7027 14.7297 71.8208C13.8242 72.8424 12.9561 74.0421 12.4521 75.3261C11.892 76.7507 13.3015 77.6692 14.5243 77.9316C15.8685 78.2222 17.2313 77.8848 18.5007 77.4443C20.0689 76.9007 21.5998 76.2165 23.0933 75.4854C24.7828 74.6607 26.4163 73.7234 28.0031 72.7112C28.5165 72.3738 29.0299 72.0176 29.506 71.6146C29.5806 73.7703 29.6553 75.9259 29.7206 78.0816C29.758 79.1126 29.7486 80.1623 29.954 81.1745C30.1314 82.0555 30.4954 83.2083 31.2515 83.7613C32.2596 84.5017 33.4077 83.6863 34.0891 82.8897C34.7612 82.1117 35.1439 81.1089 35.4519 80.1435C36.096 78.1472 36.7214 76.0665 36.5161 73.939C36.292 71.6896 34.9759 69.6277 33.0903 68.3999C35.0319 64.9602 36.9454 61.5112 38.831 58.0527C38.8776 58.3152 38.9243 58.5682 38.971 58.8306C39.307 60.5833 39.7084 62.3359 40.2311 64.0417C41.2392 67.3127 42.6954 70.5181 45.029 73.0486C45.8597 73.9484 47.4839 75.8697 48.8001 74.6513C49.3881 74.1077 49.4255 73.1705 49.5375 72.43C49.6775 71.5678 49.8082 70.6961 49.9109 69.8245C50.3122 66.4879 50.3309 62.992 49.0054 59.8429C47.6426 56.5906 44.9636 54.0132 41.7433 52.6542C43.6755 49.0646 45.5797 45.4656 47.4652 41.8478C48.2493 40.3295 49.0521 38.8112 49.8455 37.2834C49.5468 42.9444 50.9843 48.6428 54.0646 53.4509C54.9607 54.8474 56.0622 56.7219 57.9197 56.7781C60.02 56.8343 60.3747 54.6693 60.6547 53.0291C61.2801 49.4114 61.0561 45.6062 60.0573 42.0728C58.9092 38.0426 56.7716 33.4126 52.6738 31.7537C55.4275 26.2146 57.9104 20.5349 59.4599 14.5647C60.132 11.9779 60.6174 9.34425 60.8414 6.68249C61.0281 4.49871 61.0654 1.94004 59.3292 0.327982C58.9372 -0.0281696 58.1437 -0.206246 57.8357 0.402962C56.6596 2.72732 56.1555 5.25788 55.5301 7.76969C54.9327 10.1878 54.3073 12.6059 53.6446 15.0146C52.7112 18.3699 51.703 21.7065 50.5829 25.0056C50.5176 24.9868 50.4522 24.9681 50.3776 24.9681C45.2437 24.4995 40.2965 26.0553 35.4893 27.6861C32.997 28.5296 30.4674 29.3731 28.3018 30.9102C27.4524 31.51 26.3696 32.3067 26.0429 33.3564L26.0242 33.347ZM28.5258 33.9844C27.9471 33.8156 27.7791 33.8344 28.2738 33.347C28.2925 33.3283 28.3205 33.3095 28.3485 33.2814C28.4325 33.6188 28.7032 33.9187 29.1606 33.9844C30.2994 34.1531 31.4382 34.2374 32.5863 34.2468C32.689 34.378 32.8383 34.4811 33.025 34.528C32.0262 34.5561 31.0181 34.4905 30.01 34.3218C29.5153 34.2374 29.0206 34.1249 28.5352 33.9844H28.5258ZM44.9263 68.3343C45.1783 68.4561 45.477 68.4561 45.7477 68.3624C45.7384 68.7092 45.7104 69.056 45.6917 69.4027C45.4024 69.0747 45.1503 68.7186 44.9263 68.3343ZM16.1298 73.0767C16.4472 72.7112 16.7926 72.3738 17.1473 72.0458C17.2686 72.1863 17.4273 72.2988 17.614 72.355C17.0726 72.6362 16.5405 72.9268 16.0085 73.2267C16.0551 73.1798 16.0925 73.1236 16.1298 73.0767ZM17.5486 75.776C17.5486 75.776 17.558 75.7947 17.5673 75.7947C17.2966 75.8697 17.0166 75.9447 16.7459 76.0103C17.0166 75.9447 17.2873 75.8603 17.5486 75.776ZM29.0112 50.0206C29.8513 49.7488 30.6914 49.4957 31.5408 49.2802C31.1301 49.4582 30.7288 49.6363 30.3274 49.8237C29.8887 49.8987 29.4499 49.9643 29.0112 50.0206ZM42.014 48.2492C40.9312 50.2736 39.8391 52.2887 38.747 54.3038C38.2149 55.2879 37.6642 56.272 37.1321 57.2561C38.4856 54.0976 40.2591 51.1921 42.014 48.2586V48.2492ZM47.0639 28.6233C46.8772 28.7733 46.6812 28.9139 46.4851 29.0638C46.3358 28.8201 46.0931 28.6233 45.8037 28.5577C46.4945 28.3609 47.1759 28.1547 47.8666 27.9579C47.5959 28.1828 47.3346 28.4078 47.0639 28.6233ZM33.7251 34.4717C34.2945 34.3592 34.8639 34.228 35.4239 34.0781C36.376 33.9656 37.3188 33.8063 38.2522 33.5813C36.7774 34.0593 35.2653 34.3686 33.7344 34.4717H33.7251ZM38.6069 33.4689C38.971 33.3189 39.1577 33.019 39.1857 32.691C39.5497 32.5223 39.9044 32.3535 40.2498 32.1661C41.2299 31.913 42.21 31.6319 43.1808 31.3226C42.6394 31.6506 42.0793 31.9599 41.5099 32.2411C40.5672 32.7097 39.5964 33.1221 38.6069 33.4689ZM31.9796 46.8527C33.1464 46.6184 34.3598 46.4965 35.5546 46.5434C31.6622 47.1245 27.8538 48.2211 24.2414 49.8237C24.5587 49.5707 24.8668 49.3645 25.0628 49.2427C27.079 47.968 29.674 47.3213 31.9889 46.8527H31.9796ZM23.0839 51.6139C23.0559 51.5295 23.0652 51.4358 23.0839 51.3421C23.2146 51.6514 23.476 51.8951 23.8587 51.9325C25.1095 52.0544 26.3696 52.0919 27.6204 52.0263C27.6484 52.2137 27.7324 52.3824 27.8631 52.523C27.1537 52.523 26.4443 52.4855 25.7535 52.4293C25.1375 52.3824 23.3173 52.4199 23.0839 51.6139ZM24.148 72.8049C24.5494 72.5425 24.9788 72.2613 25.3522 71.9333C25.9402 71.5959 26.519 71.2491 27.0884 70.893C27.4337 70.6774 27.5644 70.34 27.5644 70.0119C28.0405 69.8245 28.5165 69.637 29.0019 69.4496C28.5258 70.0494 27.9004 70.5274 27.247 70.9586C26.2483 71.624 25.2122 72.2332 24.1574 72.8049H24.148ZM32.3623 81.9618C32.3623 81.9618 32.3063 81.9993 32.2689 82.018C32.1942 81.8025 31.9422 81.3901 31.9049 81.2495C31.7929 80.8746 31.7369 80.4903 31.6995 80.106C31.6622 79.7874 31.6529 79.4593 31.6342 79.1313C31.7555 79.1594 31.8769 79.1688 31.9982 79.1594C31.9982 79.5156 31.9982 79.8717 31.9982 80.2185C31.9889 80.7434 32.4369 81.2495 32.9503 81.2401C32.8757 81.3619 32.801 81.4838 32.717 81.5963C32.6143 81.7275 32.5023 81.8493 32.3716 81.9524L32.3623 81.9618ZM34.4718 76.6382C34.4905 76.3102 34.5092 75.9822 34.5278 75.6541C34.5558 75.1387 34.6025 74.6232 34.6305 74.1077C34.7239 74.9512 34.6398 75.8041 34.4718 76.6382ZM48.24 67.3689C48.1653 68.7748 47.9786 70.1806 47.7733 71.5771C47.7266 71.9146 47.6706 72.252 47.6146 72.58C47.6146 72.6268 47.5866 72.7206 47.5679 72.8143C47.3812 72.6456 47.1012 72.4675 46.9799 72.3457C46.9052 72.2707 46.8398 72.1957 46.7652 72.1207C47.0919 72.0176 47.3532 71.7365 47.4092 71.3147C47.6706 69.2434 47.7079 67.1534 47.5306 65.0727C47.5119 64.8196 47.4839 64.5666 47.4559 64.3135C47.4559 64.2573 47.4466 64.201 47.4372 64.1448C47.3252 63.1326 47.1385 62.1204 46.7745 61.1925C46.2611 59.6554 45.4957 58.2027 44.5156 56.8906C44.4409 56.7312 44.3569 56.5813 44.2729 56.4313C45.1877 57.2373 45.9904 58.1746 46.6065 59.243C48.0533 61.708 48.3894 64.5572 48.24 67.3689ZM55.5395 37.8552C55.0167 36.9367 54.3167 36.14 53.3832 35.5683C53.3459 35.109 53.3179 34.6592 53.2899 34.1999C54.5967 35.0903 55.6048 36.4118 56.3889 37.8645C56.1089 37.724 55.8008 37.7333 55.5488 37.8552H55.5395ZM55.1848 51.6889C53.6913 49.1396 52.6458 46.356 52.1044 43.4505C51.731 41.4448 51.591 39.4016 51.703 37.3678C51.9831 39.6922 52.3751 42.0071 52.9445 44.2846C53.5513 46.7308 54.3727 49.1958 55.8568 51.2015C55.8848 51.2858 55.9035 51.3796 55.9315 51.4639C56.2582 52.6074 56.6409 53.7227 57.3503 54.6693C56.4542 54.0132 55.5021 52.195 55.2034 51.6795L55.1848 51.6889ZM59.1052 48.296C58.9932 47.0964 58.8625 45.8873 58.6945 44.6877C58.6665 44.4815 58.6385 44.2659 58.6105 44.041C58.9092 45.4375 59.0772 46.8621 59.1052 48.2867V48.296ZM52.7298 27.1706C51.087 30.704 49.3601 34.1999 47.5866 37.6677C48.8374 34.9216 49.9855 32.138 51.031 29.3075C52.8978 25.6616 54.6994 21.9783 56.1835 18.1543C56.7996 16.5704 57.341 14.9677 57.817 13.3369C57.7517 13.59 57.6957 13.8524 57.6304 14.1054C56.4449 18.6136 54.69 22.953 52.7298 27.1706ZM41.9673 27.6486C40.7165 28.0329 39.475 28.4265 38.2336 28.7827C37.7669 28.9139 37.3001 29.0545 36.8241 29.1857C38.5136 28.614 40.2311 28.0704 41.9673 27.6392V27.6486Z" fill="white"/>
<path d="M3.24842 105.59C4.83526 105.852 6.38476 105.224 7.49555 104.071C8.61567 102.919 9.39042 101.222 9.20373 99.5913C9.02638 98.0261 7.9436 96.4984 6.31008 96.2266C5.46066 96.086 4.6019 96.311 3.81781 96.714C2.95905 96.9952 2.16563 97.5856 1.54956 98.2979C0.476114 99.5257 -0.307972 101.185 0.121408 102.844C0.494782 104.287 1.81093 105.346 3.24842 105.58V105.59ZM6.4501 98.6541C6.4501 98.6541 6.4501 98.5885 6.43143 98.5603C6.44077 98.5603 6.45943 98.5791 6.46877 98.5885C6.4781 98.5978 6.50611 98.626 6.52477 98.6353C6.49677 98.6353 6.4781 98.6447 6.4501 98.6541Z" fill="white"/>
<path d="M20.7597 124.953C22.0665 125.169 23.3359 124.653 24.2507 123.707C25.1748 122.751 25.8095 121.363 25.6602 120.014C25.5202 118.72 24.6241 117.465 23.2799 117.24C22.5799 117.118 21.8705 117.305 21.2264 117.643C20.517 117.868 19.8729 118.355 19.3595 118.945C18.4821 119.958 17.8287 121.326 18.1834 122.694C18.4914 123.885 19.5742 124.756 20.7597 124.953ZM23.392 119.236C23.392 119.236 23.392 119.18 23.3733 119.152C23.3826 119.152 23.392 119.161 23.4013 119.17C23.4106 119.18 23.4293 119.198 23.448 119.217C23.4293 119.217 23.4106 119.227 23.392 119.236Z" fill="white"/>
</g>
</svg>
