<svg width="162" height="463" viewBox="0 0 162 463" fill="none" xmlns="http://www.w3.org/2000/svg">
<path d="M160.43 248.848C158.495 236.889 155.84 225.218 151.814 213.829C122.114 148.504 124.582 125.62 101.527 76.5123C93.7026 58.9095 79.2934 41.2663 63.7354 30.009C37.7081 11.1796 2.30472 -1.0318 -30.0002 0.0686934C-46.6111 0.634082 -63.3077 1.6538 -79.6113 5.07137C-95.7688 8.45866 -111.105 15.8794 -127.575 17.732C-158.786 21.2506 -176.158 12.381 -213.526 27.3588C-235.841 36.304 -259.339 53.2001 -271.38 74.6949C-291.22 107.538 -289.138 131.611 -298.933 167.942C-305.714 194.101 -323.222 215.636 -329.696 241.745C-351.269 328.265 -261.722 340.247 -219.87 396.534C-204.926 415.484 -184.844 430.644 -163.684 442.128C-109.78 476.062 -42.8829 466.238 7.1716 429.811C33.607 409.659 54.7889 395.122 84.1667 378.615C104.874 366.878 127.722 356.741 142.398 337.139C150.711 326.21 154.197 313.943 157.83 300.934C162.48 283.806 163.08 266.314 160.43 248.853V248.848Z" fill="#718CD1"/>
</svg>
