<svg width="288" height="259" viewBox="0 0 288 259" fill="none" xmlns="http://www.w3.org/2000/svg">
<path d="M374.218 75.2841C362.017 60.627 338.853 57.1227 320.884 57.581C304.821 57.9916 289.123 62.0688 275.006 69.4117C280.047 58.2016 281.944 45.7407 278.724 33.4899C274.574 17.6965 261.195 3.84148 244.864 0.757288C216.458 -4.59948 198.459 19.3866 188.253 43.5446C178.736 9.65658 134.343 -12.3243 102.956 8.24339C74.7126 26.7486 71.6745 69.5931 92.5865 94.1903C52.526 92.6243 5.4405 116.41 0.303552 158.958C-2.7537 184.205 17.7653 198.471 40.0957 203.608C61.8127 208.611 84.7086 205.403 104.269 195.081C103.474 222.094 110.642 256.03 142.729 258.799C180.528 262.064 198.306 224.977 208.34 194.441C234.916 223.927 271.929 255.437 313.111 234.335C328.944 226.219 340.665 210.483 338.479 192.149C336.227 173.281 321.804 159.636 307.188 148.474C307.15 148.312 307.112 148.159 307.073 147.997C336.764 137.197 402.116 108.8 374.227 75.2841H374.218ZM214.512 144.101C215.394 144.215 216.266 144.368 217.129 144.531C216.592 146.44 216.103 148.379 215.72 150.346C215.145 148.216 214.761 146.096 214.512 144.101ZM256.327 71.6652C256.221 71.7034 256.125 71.7511 256.02 71.7989C256.097 71.6747 256.173 71.5506 256.25 71.436C256.269 71.5124 256.298 71.5888 256.317 71.6747L256.327 71.6652ZM275.648 80.5072C276.501 81.1087 277.239 81.758 277.862 82.4646C274.795 84.4412 272.083 86.5705 269.917 88.7858C267.396 91.3544 265.604 94.3144 264.569 97.4082C264.55 97.4655 264.53 97.5228 264.511 97.5705C264.483 97.6469 264.463 97.7233 264.444 97.8092C263.285 96.8066 262.182 95.7563 261.119 94.6487C262.69 91.8223 263.888 88.8335 264.636 85.6825C267.616 83.4386 270.702 81.3665 273.884 79.4759C274.478 79.7719 275.073 80.1061 275.638 80.4976L275.648 80.5072ZM184.199 183.823C183.854 181.169 183.317 178.524 182.598 175.917C186.757 172.097 190.629 168.02 194.204 163.733C192.163 168.431 188.684 176.098 184.199 183.823ZM135.465 230.878C135.014 229.446 134.727 227.938 134.583 226.4C135.963 227.05 137.429 227.594 138.972 228.023C137.851 229.026 136.672 229.981 135.455 230.878H135.465ZM104.202 178.18C102.947 176.184 102.218 173.94 101.94 171.591C102.927 169.366 103.704 166.989 104.221 164.458C106.866 163.246 109.349 161.747 111.582 159.875C118.674 162.654 124.961 159.207 128.468 153.63C130.376 154.327 132.379 154.824 134.382 155.034C134.142 155.874 133.931 156.715 133.759 157.564C127.635 164.077 120.207 169.892 112.521 174.341C109.933 175.84 107.125 177.139 104.202 178.18ZM99.2185 69.6504C96.8896 62.6417 102.487 55.6999 108.381 52.6062C106.426 60.4551 105.132 69.0202 106.771 76.8023C103.378 75.5228 100.359 73.0784 99.2185 69.6504ZM255.474 87.5731C254.611 86.265 253.806 84.9186 253.068 83.5341C254.381 82.5601 255.732 81.6721 257.113 80.8987C256.873 83.2381 256.307 85.4629 255.483 87.5731H255.474ZM186.278 160.209C186.365 159.474 186.451 158.729 186.508 157.985C186.7 155.559 186.7 152.704 186.47 149.687C189.019 148.36 191.645 147.223 194.252 146.307C194.453 147.252 194.645 148.188 194.817 149.133C192.191 152.971 189.335 156.667 186.278 160.2V160.209ZM145.585 220.805C141.416 220.499 137.909 219.162 135.11 217.023C135.781 213.118 136.873 209.308 137.851 206.052C139.595 200.237 141.809 194.622 144.435 189.218C145.058 188.922 145.671 188.626 146.285 188.311C144.272 195.501 143.065 202.949 142.748 210.55C142.691 211.982 143.573 213.405 144.799 214.111C146.16 214.894 147.512 215.505 148.844 215.992C147.847 217.663 146.754 219.267 145.585 220.814V220.805ZM131.296 145.648C131.689 142.306 131.161 138.868 129.465 135.87C134.87 133.416 140.027 133.807 141.455 140.787C141.474 140.883 141.483 140.978 141.493 141.074C140.237 142.735 139.078 144.473 138.071 146.259C135.944 146.564 133.538 146.326 131.296 145.657V145.648ZM34.9779 170.474C34.4412 163.122 35.8597 155.378 38.7252 148.064C42.0221 143.652 45.4339 139.842 48.1653 137.312C42.1467 146.096 38.3515 156.313 36.9905 167.151C36.7509 169.032 38.4665 170.55 40.0286 171.123C44.2359 172.661 48.6158 173.491 53.0052 173.692C51.5484 174.341 50.1108 174.981 48.6924 175.583C46.3731 176.566 43.8238 177.511 41.2649 177.998C37.8052 177.349 35.323 175.201 34.9779 170.474ZM64.7262 130.542C65.3683 130.532 66.0105 130.551 66.643 130.599C62.6274 133.511 59.0334 136.892 55.8995 140.635C58.4776 136.911 61.439 133.464 64.7262 130.542ZM61.7456 162.692C57.8642 150.403 68.4256 140.978 79.562 141.074C79.5812 141.16 79.6099 141.246 79.6291 141.332C76.2843 147.013 74.1759 153.248 73.4955 159.818C69.7002 161.279 65.7613 162.272 61.7456 162.692ZM53.4556 161.556C53.5419 161.947 53.6377 162.329 53.7335 162.721C53.5131 162.702 53.2831 162.673 53.0627 162.644C53.1873 162.281 53.3214 161.919 53.4556 161.556ZM85.5807 133.215C85.1207 132.337 84.6223 131.468 84.0569 130.59C85.9353 129.95 87.8712 129.434 89.8455 129.052C88.3217 130.38 86.8937 131.764 85.5807 133.206V133.215ZM81.3446 122.846C80.3096 123.218 79.2841 123.61 78.2778 124.039C77.8561 123.686 77.4344 123.342 76.9936 123.027C77.5494 122.827 78.1053 122.645 78.6707 122.473C79.5716 122.54 80.4725 122.655 81.3446 122.846ZM119.68 148.121C120.217 148.617 120.763 149.104 121.348 149.582C120.495 150.307 119.479 150.852 118.415 151.167C118.904 150.164 119.335 149.152 119.69 148.121H119.68ZM120.332 96.1669C120.054 95.4985 119.805 94.8301 119.594 94.133C120.121 94.4099 120.667 94.6773 121.213 94.916C120.916 95.3266 120.619 95.7467 120.332 96.1669ZM150.626 37.4716C153.329 44.3371 154.268 52.5775 154.786 58.1157C154.91 59.4143 155.006 60.7702 155.064 62.1643C154.843 61.9638 154.613 61.7633 154.383 61.5628C149.39 50.5341 141.272 40.8041 131.708 33.719C137.736 32.0003 144.723 33.5281 150.636 37.4716H150.626ZM204.833 78.7407C204.526 80.3066 204.497 81.9395 204.746 83.6296C204.526 84.3362 204.315 85.0523 204.104 85.7589C204.104 85.7303 204.085 85.7016 204.075 85.673C203.098 82.8084 201.651 80.66 199.878 79.0749C201.517 78.7884 203.175 78.6738 204.823 78.7311L204.833 78.7407ZM230.68 37.9109C230.46 38.1496 230.23 38.3883 230.019 38.6366C230.019 38.5506 230.029 38.4647 230.029 38.3788C230.239 38.2069 230.46 38.0541 230.68 37.9013V37.9109ZM267.808 212.392C261.492 211.371 254.18 207.465 251.947 201.144C252.263 201.096 252.579 201.068 252.886 201.001C257.381 205.508 262.489 209.366 267.99 212.421C267.923 212.412 267.866 212.411 267.799 212.402L267.808 212.392ZM236.613 126.493C236.613 126.493 236.689 126.417 236.728 126.379C235.712 128.078 234.878 129.902 234.293 131.84C233.22 135.383 232.655 138.763 234.073 141.666C234.063 141.676 234.054 141.695 234.044 141.704C233.603 141.456 233.143 141.236 232.683 141.007C232.319 135.507 233.287 130.38 236.622 126.493H236.613ZM204.143 133.044C203.702 133.96 203.242 134.858 202.782 135.765C201.91 135.851 201.047 135.975 200.175 136.099C199.724 134.581 199.245 133.072 198.718 131.573C198.641 131.363 198.536 131.172 198.44 130.981C200.041 130.064 201.593 128.985 203.088 127.811C203.577 128.737 204.114 129.616 204.698 130.427C204.526 131.296 204.325 132.165 204.133 133.034L204.143 133.044ZM147.464 66.6235C148.987 70.4239 150.109 74.377 150.76 78.4447C150.703 78.5115 150.645 78.5784 150.588 78.6452C149.591 77.6999 148.441 76.8501 147.214 76.2103C147.186 73.5272 146.85 70.8631 146.275 68.4186C146.036 67.3874 145.719 66.3753 145.374 65.3822C146.093 65.7546 146.793 66.1652 147.464 66.6331V66.6235ZM133.356 64.2364C134.161 63.9786 134.957 63.7971 135.762 63.6825C137.334 66.7572 138.359 70.1183 138.771 73.5271C138.877 74.4343 138.924 75.3605 138.924 76.2771C137.813 76.9265 136.73 77.7763 135.666 78.7311C133.5 76.2294 131.852 72.8301 130.673 69.6409C130.893 68.199 130.999 66.7094 131.008 65.1912C131.756 64.8284 132.542 64.5037 133.356 64.2459V64.2364ZM126.657 80.2971C127.625 81.9013 128.718 83.4004 129.916 84.7563C129.753 84.9377 129.59 85.1191 129.427 85.291C129.427 85.291 129.427 85.291 129.417 85.291C128.353 83.6487 127.424 81.9681 126.657 80.3066V80.2971ZM130.107 56.798C130.05 56.5211 129.992 56.2442 129.925 55.9673C130.155 56.1773 130.376 56.397 130.596 56.6166C130.433 56.6739 130.27 56.7312 130.107 56.7885V56.798ZM147.598 94.1426C147.531 94.515 147.454 94.8778 147.358 95.2502C146.984 96.6443 146.361 97.8283 145.566 98.85C143.4 98.1912 141.292 97.1122 139.298 95.7276C142.078 95.6226 144.876 95.0974 147.607 94.1521L147.598 94.1426ZM139.912 55.3562C136.567 51.0879 132.312 47.6314 127.635 45.3492C127.663 45.0341 127.711 44.719 127.74 44.4135C128.162 43.6114 128.612 42.8093 129.082 42.0263C133.902 45.8744 138.129 50.4386 141.56 55.528C141.004 55.4421 140.448 55.3944 139.902 55.3562H139.912ZM149.39 111.626C150.713 110.442 151.92 109.096 153.013 107.625C151.815 111.349 150.856 115.102 150.253 118.854C150.138 119.59 150.061 120.325 150.023 121.06C148.604 119.952 147.099 118.998 145.509 118.215C146.726 115.999 148.02 113.794 149.39 111.626ZM192.862 85.4915C196.092 87.3535 197.156 90.008 196.006 94.2571C195.393 96.5202 194.233 98.6591 192.939 100.588C190.764 103.844 188.099 106.737 185.109 109.258C184.726 108.656 184.39 107.988 184.112 107.196C185.473 101.275 187.524 95.4985 190.284 90.0844C191.089 88.5089 191.952 86.9811 192.853 85.482L192.862 85.4915ZM341.479 95.317C340.502 96.291 339.447 97.1599 338.336 97.962C338.537 97.5896 338.709 97.2077 338.863 96.8257C339.601 96.1382 340.502 95.6131 341.47 95.3075L341.479 95.317ZM279.146 102.631C281.561 101.571 283.727 99.9004 285.395 97.7137C286.688 97.2459 287.992 96.8257 289.314 96.482C291.02 96.0427 292.87 95.6417 294.739 95.4507C291.873 98.5158 289.142 101.715 286.525 105.009C284.101 105.668 281.647 106.136 279.175 106.432C278.542 106.202 277.919 105.954 277.296 105.696C277.804 104.656 278.437 103.624 279.146 102.622V102.631ZM300.949 108.265C301.016 108.513 301.112 108.742 301.189 108.991C300.518 109.067 299.837 109.124 299.166 109.172C299.761 108.876 300.355 108.58 300.949 108.274V108.265ZM325.647 90.6955C325.647 90.8865 325.637 91.0679 325.628 91.2494C325.445 91.4308 325.254 91.6122 325.072 91.7936C324.995 91.2971 324.89 90.8101 324.784 90.3327C324.909 90.2563 325.033 90.1799 325.158 90.1035C325.321 90.0844 325.465 90.094 325.618 90.0844C325.628 90.2849 325.647 90.4759 325.647 90.686V90.6955ZM302.741 87.5922C302.051 87.4108 301.342 87.258 300.623 87.1434C301.869 86.7329 303.134 86.3891 304.38 86.1504C303.834 86.6278 303.278 87.1053 302.741 87.5922ZM290.388 202.729C288.873 204.61 287.206 206.272 285.395 207.685C284.829 207.15 284.273 206.606 283.736 206.043C290.436 202.624 294.911 194.957 295.688 186.85C295.735 186.363 295.745 185.885 295.774 185.399C295.812 185.504 295.87 185.609 295.908 185.714C296.521 187.413 296.933 189.084 297.144 190.727C295.467 195.09 293.244 199.158 290.388 202.72V202.729ZM150.875 147.577C151.882 145.81 152.419 143.919 152.562 141.991C152.802 141.685 153.041 141.38 153.291 141.083C153.799 143.003 154.134 144.979 154.297 146.946C153.54 147.624 152.783 148.302 152.054 149.009C151.661 148.531 151.288 148.044 150.875 147.586V147.577ZM168.912 131.229C169.899 131.392 170.867 131.774 171.797 132.413C172.382 132.814 172.909 133.359 173.398 134.008C173.196 137.761 172.612 141.456 171.653 145.056C171.529 145.18 171.404 145.314 171.27 145.438C170.877 144.225 170.455 143.041 170.024 141.886C169.152 139.565 166.344 137.808 163.948 139.422C163.229 139.899 162.539 140.406 161.839 140.912C161.379 138.763 160.756 136.662 159.951 134.657C160.737 134.161 161.542 133.693 162.367 133.254C164.561 132.958 166.785 132.203 168.922 131.239L168.912 131.229ZM234.447 76.9742C234.111 77.041 233.805 77.0506 233.498 77.0792C233.776 75.8952 234.025 74.7016 234.255 73.5081C234.705 73.5272 235.156 73.5272 235.616 73.5081C236.047 73.489 236.478 73.4603 236.91 73.4126C236.306 74.5679 235.664 75.6947 234.993 76.8214C234.811 76.8692 234.629 76.9264 234.437 76.9646L234.447 76.9742ZM151.019 162.09C151.125 162.291 151.24 162.501 151.355 162.702C148.556 166.254 145.94 169.949 143.515 173.778C143.438 173.596 143.371 173.396 143.295 173.205C145.566 169.309 148.144 165.585 151.019 162.09ZM196.073 122.75C194.587 123.638 192.009 124.985 189.566 125.519C190.361 124.173 191.214 122.846 192.096 121.547C194.76 121.413 197.511 120.735 200.28 119.676C200.28 119.714 200.299 119.742 200.299 119.781C198.939 120.879 197.539 121.881 196.073 122.75ZM262.805 185.924C261.761 184.243 261.109 182.41 260.783 180.5C262.508 179.249 264.396 178.17 266.371 177.282C265.939 178.791 265.661 180.319 265.508 181.846C264.751 183.26 263.86 184.625 262.805 185.914V185.924ZM247.759 150.47C247.644 150.699 247.519 150.919 247.395 151.148C246.762 150.68 246.139 150.212 245.516 149.735C246.254 150.002 247.002 150.25 247.759 150.47ZM262.853 167.867C263.313 167.953 263.773 168.039 264.233 168.106C264.78 168.469 265.355 168.784 265.949 169.08C264.483 169.586 263.045 170.188 261.646 170.866C261.981 169.844 262.384 168.841 262.853 167.877V167.867ZM279.06 190.02C277.814 190.927 276.443 191.481 275.034 191.729C274.181 189.027 273.731 186.258 273.817 183.565C275.149 180.634 276.06 177.636 276.606 174.59C278.628 174.427 280.622 174.504 282.519 174.819C284.676 180.195 284.388 186.134 279.06 190.02ZM241.855 135.698C241.951 132.623 244.529 129.224 246.513 127.114C247.557 126.006 248.736 125.032 249.982 124.144C250.164 124.268 250.337 124.402 250.519 124.545C250.845 127.458 251.803 130.227 253.442 132.557C253.327 133.855 253.116 135.106 252.848 136.223C252.848 136.252 252.829 136.281 252.829 136.309C249.081 135.631 245.334 135.564 241.903 136.567C241.865 136.29 241.855 135.994 241.865 135.698H241.855ZM241.884 156.991C241.107 157.593 240.37 158.204 239.66 158.844C239.334 157.498 239.095 156.161 238.97 154.824C239.938 155.54 240.916 156.266 241.884 156.991ZM250.682 163.083C252.215 164 253.787 164.84 255.416 165.566C253.643 169.577 252.551 173.787 252.321 177.292C251.621 177.96 250.95 178.657 250.308 179.392C250.155 179.564 250.03 179.746 249.886 179.918C247.672 176.833 245.689 173.577 244.031 170.188C243.82 169.758 243.609 169.319 243.408 168.879C245.43 166.473 247.902 164.497 250.682 163.093V163.083ZM175.209 107.291C174.5 110.327 174.021 113.431 173.915 116.391C173.33 116.668 172.746 116.935 172.152 117.183C171.05 111.158 172.104 105.038 174.663 99.5089C174.538 102.192 174.672 104.808 175.209 107.291ZM265.249 130.122C264.272 128.451 263.285 126.818 262.278 125.242C262.144 125.023 262 124.822 261.857 124.603C261.579 122.817 261.09 121.117 260.342 119.561C262.47 119.064 264.636 118.759 266.763 118.702C267.799 118.673 268.814 118.702 269.802 118.788C270.731 120.439 271.958 121.929 273.405 123.266C272.015 125.3 270.319 127.677 268.556 130.274C267.415 130.332 266.294 130.284 265.249 130.112V130.122ZM252.905 111.788C252.829 111.941 252.761 112.094 252.685 112.237C252.522 112.17 252.378 112.084 252.215 112.018C250.26 111.206 248.372 110.795 246.551 110.69C247.011 110.347 247.471 109.993 247.931 109.63C249.57 110.432 251.238 111.149 252.905 111.788ZM164.705 102.584C162.894 109.115 162.798 116.028 165.021 122.731C163.737 123.018 162.472 123.466 161.216 124.049C160.862 123.896 160.507 123.705 160.153 123.438C157.076 121.051 158.964 117.68 160.009 114.137C161.101 110.432 162.405 106.794 163.871 103.223C164.159 103.023 164.427 102.803 164.705 102.584ZM128.852 97.9334C128.986 98.0575 129.091 98.2007 129.226 98.3249C131.382 100.359 133.759 102.135 136.26 103.596C133.778 103.949 131.219 103.892 128.938 103.519C127.663 103.309 126.408 103.004 125.181 102.65C126.322 101.037 127.548 99.4611 128.852 97.9334ZM152.629 208.497C152.16 208.363 151.681 208.201 151.211 208.01C151.709 200.915 153.061 193.983 155.188 187.327C155.792 187.222 156.396 187.108 156.99 186.945C156.932 194.298 155.437 201.669 152.629 208.487V208.497ZM166.871 183.26C166.689 182.792 166.536 182.324 166.401 181.866C168.836 179.708 170.628 177.244 171.874 174.561C171.96 175.182 172.065 175.802 172.161 176.423C170.647 178.858 168.884 181.149 166.881 183.26H166.871ZM222.237 104.999C222.237 104.999 222.256 104.971 222.266 104.961C223.78 103.596 225.141 102.297 226.291 101.161C226.674 100.788 227.058 100.378 227.441 99.9863C227.355 101.829 227 103.748 226.31 105.725C225.179 108.962 228.102 111.005 230.786 110.719C230.805 111.884 230.891 113.039 231.044 114.166C231.044 114.176 231.044 114.185 231.054 114.204C230.824 114.548 230.604 114.892 230.364 115.235C227.728 119.017 221.298 127.983 215.404 128.011C218.355 120.573 220.646 112.877 222.227 105.018L222.237 104.999ZM303.412 204.477C303.69 206.654 303.882 208.85 303.958 211.056C302.492 211.333 301.045 211.523 299.607 211.657C301.16 209.509 302.454 207.112 303.412 204.477ZM258.358 104.722C257.113 104.35 255.876 103.93 254.649 103.462C255.311 102.746 255.953 102.011 256.576 101.266C257.477 102.135 258.406 102.965 259.365 103.768C259.02 104.092 258.684 104.407 258.358 104.732V104.722ZM246.944 99.6808C246.887 99.6426 246.819 99.6044 246.762 99.5662C247.5 96.8448 248.037 94.1617 248.439 91.5549C249.273 92.7962 250.135 94.0089 251.056 95.1738C249.81 96.7589 248.43 98.2676 246.944 99.6712V99.6808ZM209.95 69.4881C209.586 69.87 209.241 70.252 208.915 70.6435C207.583 70.4525 206.232 70.3475 204.871 70.3284C207.315 67.9412 209.893 65.6973 212.634 63.6348C211.695 65.5445 210.803 67.502 209.95 69.4785V69.4881ZM163.382 63.3674C163.382 63.1096 163.382 62.8518 163.382 62.6036C163.296 59.4907 162.922 55.6522 162.232 51.5367C163.057 53.1886 163.833 54.9265 164.532 56.7216C164.274 58.9942 163.89 61.219 163.382 63.377V63.3674ZM132.455 126.006C129.331 126.531 126.207 127.954 123.236 129.711C122.919 129.52 122.594 129.329 122.268 129.157C124.338 127.868 126.437 126.77 128.344 125.92C128.919 125.662 129.475 125.443 130.031 125.252C130.855 125.462 131.669 125.701 132.455 126.006ZM129.226 183.097C129.226 183.393 129.226 183.689 129.226 183.976C128.996 184.587 128.766 185.198 128.555 185.819C128.526 185.819 128.497 185.828 128.468 185.838C128.698 184.912 128.957 184.004 129.235 183.097H129.226ZM157.785 217.138C160.105 216.928 162.357 216.307 164.552 215.381C162.156 217.129 159.463 218.504 156.53 219.439C156.961 218.675 157.383 217.911 157.785 217.138ZM161.676 207.962C163.2 203.426 164.207 198.728 164.715 193.964C166.008 194.269 167.436 193.925 168.634 192.942C171.452 190.631 173.944 188.034 176.129 185.227C176.541 188.817 176.522 192.464 175.956 196.122C171.605 201.593 166.766 206.033 161.667 207.962H161.676ZM220.445 135.249C220.253 135.689 220.081 136.118 219.908 136.557C219.055 136.386 218.202 136.233 217.349 136.099C218.336 135.927 219.371 135.66 220.445 135.249ZM224.94 146.717C225.112 146.784 225.285 146.851 225.457 146.918C226.607 153.162 228.792 159.35 231.073 165.127C227.623 165.499 224.815 164.458 222.544 162.549C222.544 157.259 223.454 151.864 224.93 146.717H224.94ZM238.223 189.323C237.696 186.267 237.696 183.336 238.136 180.586C239.986 184.014 241.989 187.337 244.232 190.526C244.031 191.309 243.868 192.092 243.753 192.866C241.98 192.474 240.235 191.834 238.568 191.013C238.443 190.459 238.328 189.896 238.223 189.313V189.323ZM244.174 201.297C244.385 202.118 244.654 202.92 244.951 203.713C244.222 202.892 243.532 202.013 242.89 201.087C243.312 201.163 243.743 201.24 244.165 201.297H244.174ZM271.622 141.36C272.178 140.425 272.753 139.498 273.338 138.572C276.491 138.037 279.721 137.102 282.912 135.908C279.299 138.152 275.494 140.014 271.613 141.36H271.622ZM310.686 119.972C311.108 119.628 311.52 119.265 311.932 118.902C312.843 119.122 313.763 119.265 314.692 119.351C314.711 119.437 314.731 119.523 314.759 119.599C313.111 120.353 311.395 120.974 309.622 121.452C309.987 120.955 310.341 120.468 310.686 119.962V119.972ZM335.777 108.828C335.863 108.79 335.949 108.761 336.026 108.723C340.76 108.064 345.37 106.212 349.175 103.481C349.165 105.162 348.849 106.814 348.293 108.112C345.917 113.708 336.007 120.162 328.838 119.838C331.905 116.696 334.263 112.915 335.777 108.819V108.828ZM335.853 84.0592C335.691 83.5818 335.528 83.1044 335.346 82.6365C334.732 81.061 333.266 79.4282 331.359 79.6096C331.263 79.6096 331.157 79.6383 331.062 79.6478C330.879 79.4568 330.688 79.2754 330.496 79.0844C336.62 76.4968 344.383 75.2554 348.063 80.2685C343.789 80.8987 339.668 82.1877 335.863 84.0592H335.853ZM213.333 46.9152C213.123 48.9682 213.161 51.0307 213.496 53.0072C204.986 58.3831 197.52 65.153 191.415 73.0306C191.339 73.0593 191.252 73.0879 191.176 73.1261C192.891 69.8509 194.702 66.7572 196.447 63.9977C199.629 58.956 203.28 54.2867 207.305 49.9803C209.327 48.7294 211.369 47.6696 213.324 46.9248L213.333 46.9152ZM182.56 72.3336C181.908 73.7277 181.247 75.2268 180.595 76.7832C179.924 76.9646 179.263 77.1652 178.602 77.3752C179.886 75.666 181.189 73.9759 182.569 72.3336H182.56ZM164.561 83.2476C164.58 82.5315 164.561 81.8058 164.523 81.0896C166.008 78.9794 167.273 76.7164 168.347 74.3388C168.385 75.3987 168.376 76.449 168.318 77.4994C167.034 79.3709 165.778 81.2902 164.561 83.2476ZM155.782 30.6539C152.102 23.3397 146.908 17.6774 139.835 16.7034C142.998 13.772 146.898 12.1106 151.345 14.1826C156.76 16.7034 159.836 23.2538 161.676 28.5724C162.884 32.0767 163.766 35.9248 164.302 39.9161C161.801 36.3927 158.945 33.2225 155.782 30.6539ZM111.237 42.6756C105.429 43.64 99.8702 46.8388 95.4137 52.8544C96.1421 48.844 97.7139 45.2156 100.445 42.4942C104.7 38.2642 108.563 38.4743 111.821 40.9473C111.62 41.5298 111.428 42.1027 111.237 42.6756ZM101.979 83.8587C104.547 85.3197 107.422 86.2363 110.46 86.4464C110.422 89.3683 110.748 92.271 111.448 95.0688C107.719 91.87 104.518 88.0124 101.988 83.8587H101.979ZM120.686 110.385C122.756 112.161 125.105 113.689 127.788 114.834C129.226 115.445 130.615 115.894 131.976 116.209C131.296 116.314 130.606 116.448 129.916 116.62C126.274 115.856 122.488 115.722 118.693 116.114C119.172 114.156 119.843 112.247 120.677 110.394L120.686 110.385ZM58.1613 186.955C60.8831 185.513 63.6241 183.794 66.3076 181.846C68.1093 183.317 70.0357 184.616 72.0675 185.685C71.3103 185.914 70.5532 186.124 69.7865 186.315C65.5504 187.385 60.8831 187.967 56.1583 187.967C56.8387 187.633 57.5192 187.299 58.1709 186.955H58.1613ZM74.0513 177.674C77.9424 175.726 81.6034 173.577 84.7852 171.314C85.8586 170.55 86.9033 169.71 87.9192 168.803C89.788 168.545 91.6569 168.23 93.497 167.848C93.4682 168.421 93.4395 168.994 93.449 169.577C93.449 169.739 93.4682 169.892 93.4778 170.054C91.0627 174.427 87.4975 177.912 83.3189 180.596C80.0412 180.109 76.9073 179.173 74.0417 177.664L74.0513 177.674ZM111.869 184.358C115.319 182.782 118.683 180.93 121.913 178.848C121.079 181.283 120.408 183.785 119.881 186.325C117.121 186.096 114.438 185.465 111.879 184.358H111.869ZM149.687 229.074C163.114 228.291 175.889 220.184 181.208 207.723C182.502 204.687 183.374 201.574 183.93 198.432C188.76 192.025 192.747 185.103 195.67 179.622C195.22 183.069 194.578 186.506 193.744 189.925C189.403 207.695 180.039 227.67 163.43 237.037C156.386 241.01 146.582 243.664 139.959 237.906C143.573 235.328 146.822 232.368 149.687 229.083V229.074ZM230.191 173.463C229.243 176.557 228.773 179.755 228.754 182.964C227.997 181.971 227.297 180.92 226.684 179.832C225.371 177.511 224.432 175.038 223.761 172.498C225.927 173.243 228.083 173.53 230.191 173.463ZM300.949 162.243C297.777 159.894 294.173 158.787 290.503 158.691C286.688 154.576 282.433 150.842 277.804 147.605C283.679 144.922 289.18 141.227 294.212 137.064C295.208 138.935 296.08 140.873 296.847 142.84C293.368 144.082 293.09 148.264 295.946 150.336C297.202 151.253 298.486 152.189 299.789 153.143C300.355 156.075 300.748 159.13 300.959 162.234L300.949 162.243ZM300.364 131.63C300.575 131.43 300.796 131.229 301.007 131.019C307.667 130.761 314.242 129.253 320.098 126.207C320.165 126.245 320.232 126.283 320.308 126.321C324.257 128.288 329.174 128.193 333.86 127.162C323.059 132.681 312.181 137.169 304.505 140.081C303.335 137.149 301.955 134.304 300.364 131.63ZM363.225 76.239C381.051 89.5306 370.25 104.15 352.347 116.372C357.024 110.337 359.2 102.402 356.2 95.8231C359.066 90.686 359.593 84.4698 356.181 77.91C348.868 63.8544 334.013 67.6357 322.091 73.9282C311.271 70.061 296.876 72.8492 285.145 78.416C284.235 77.2129 283.181 76.1053 282.031 75.1122C291.739 70.4811 302.176 67.4351 313.015 66.3084C329.394 64.6088 349.578 66.0601 363.215 76.2294L363.225 76.239ZM236.939 8.31978C252.081 7.96648 265.498 19.5298 270.099 33.4612C274.095 45.5498 271.699 58.5359 265.853 69.6122C265.335 69.6313 264.828 69.6504 264.32 69.6982C263.562 67.0246 262.441 64.5228 261.032 62.2407C265.297 51.9664 266.303 40.5845 257.237 33.6522C253.653 30.9118 250.126 29.7182 246.733 29.6609C242.833 22.9196 234.926 22.8527 228.064 25.9942C226.856 25.2399 225.313 25.0776 223.904 25.9369C216.343 30.5776 209.375 36.0871 203.194 42.3605C200.482 43.9456 197.836 45.798 195.268 47.8128C202.877 28.5819 215.643 8.79721 236.939 8.30068V8.31978ZM181.745 53.7711C181.831 55.1557 182.473 56.1773 183.365 56.8362C183.039 57.8579 182.723 58.8796 182.426 59.8822C180.02 62.4985 177.758 65.1339 175.679 67.693C175.056 63.9594 174.021 60.0254 172.612 56.101C173.235 47.5454 172.746 36.6123 170.101 27.0541C176.714 34.4829 181.103 43.6878 181.745 53.7711ZM107.135 15.3666C115.933 9.58019 126.092 7.77551 136.04 9.00728C132.551 11.6809 129.695 15.4048 127.414 19.3771C121.76 22.3944 117.811 27.6175 114.936 33.4326C113.451 32.6019 111.888 31.9717 110.269 31.6088C99.2281 29.1453 91.216 38.4743 88.5325 48.1183C87.8521 50.5723 87.4016 53.0741 87.162 55.5949C87.1908 39.8492 93.8132 24.1418 107.135 15.3666ZM47.4178 196.666C25.6049 193.066 3.37997 180.596 9.30279 155.34C18.5129 116.123 66.9976 96.5297 103.56 103.634C105.41 103.997 106.905 103.29 107.796 102.154C109.857 103.815 112.023 105.353 114.275 106.709C112.626 110.308 111.352 114.013 110.575 117.737C109.013 118.195 107.47 118.73 105.956 119.332C105.113 118.587 104.164 117.871 103.09 117.193C101.384 116.123 99.6019 115.302 97.7714 114.663C97.4551 114.281 97.1484 113.889 96.8034 113.517C89.6538 106.002 78.2107 105.429 68.7227 107.94C60.3272 110.165 52.9381 114.806 46.7852 120.898C35.2846 125.128 24.6657 133.664 19.3179 142.554C11.3729 155.76 12.2738 169.061 19.1837 179.106C20.123 183.355 22.471 187.165 26.8987 189.848C30.0231 191.739 33.4637 192.589 36.9905 192.732C38.9648 193.496 41.0349 194.155 43.1913 194.67C56.2541 197.774 72.1825 196.122 84.6031 189.457C89.1555 189.982 93.8132 189.695 98.4422 188.76C82.7439 196.532 64.8987 199.53 47.4274 196.647L47.4178 196.666ZM145.058 250.682C115.885 249.67 111.524 216.603 112.607 193.114C113.316 193.295 114.026 193.467 114.764 193.601C116.115 193.849 117.457 194.021 118.808 194.145C118.741 195.052 118.674 195.959 118.655 196.876C118.463 204.123 120.13 210.855 123.447 216.288C123.475 224.156 124.51 232.063 126.676 239.816C127.424 242.48 130.337 243.444 132.695 242.308C132.743 242.365 132.791 242.423 132.839 242.48C138.934 249.04 147.837 250.635 156.348 248.677C163.871 246.949 170.398 243.234 176.004 238.317C168.05 246.147 157.996 251.131 145.058 250.682ZM330.506 195.73C331.148 212.459 316.983 225.006 302.214 230.048C263.86 243.139 232.195 209.356 209.519 183.326C207.804 181.359 204.909 181.942 203.414 183.699C204.641 175.955 205.015 168.087 204.526 160.267C205.551 157.603 206.519 154.91 207.411 152.198C208.704 157.593 210.985 162.568 214.694 166.502C215.557 177.893 220.109 188.588 230.278 195.845C230.594 196.064 230.91 196.246 231.227 196.456C231.984 198.499 232.923 200.485 234.006 202.424C234.916 204.133 235.951 205.718 237.092 207.198C237.216 207.37 237.351 207.523 237.475 207.695C237.619 207.876 237.753 208.057 237.897 208.239C241.932 213.347 247.145 217.701 253.289 220.709C265.268 226.582 279.117 226.209 289.516 220.49C301.591 225.98 314.855 222.514 317.587 206.778C319.465 195.997 316.072 184.95 309.498 176.289C309.325 175.497 309.115 174.723 308.884 173.95C309.258 169.29 309.258 164.688 308.961 160.362C320.059 169.701 329.94 181.149 330.506 195.749V195.73Z" fill="white" fill-opacity="0.8"/>
</svg>
