<svg width="93" height="55" viewBox="0 0 93 55" fill="none" xmlns="http://www.w3.org/2000/svg">
<path d="M50.2192 3.88723C49.5892 4.09723 48.9792 4.31723 48.3592 4.54723C48.1992 3.83723 48.0492 3.11723 47.8892 2.40723C48.6692 2.89723 49.4392 3.39723 50.2192 3.88723Z" fill="#FF7229"/>
<path d="M2.83916 15.9375C3.68916 16.5575 4.53916 17.1775 5.38916 17.7975C4.35916 18.1375 3.33916 18.4975 2.32916 18.8875C2.49916 17.9075 2.66916 16.9175 2.84916 15.9375H2.83916Z" fill="#FF7229"/>
<path d="M65.9991 3.32752C64.7491 3.68752 63.5091 4.07752 62.2791 4.48752C62.7991 3.30752 63.3091 2.13752 63.8291 0.95752C64.5491 1.74752 65.2791 2.53752 65.9991 3.32752Z" fill="#FF7229"/>
<path d="M59.7392 11.6273C61.0792 10.9973 62.4292 10.3673 63.7692 9.7373C63.1492 11.1573 62.5292 12.5773 61.9092 13.9973C61.1892 13.2073 60.4592 12.4173 59.7392 11.6273Z" fill="#FF7229"/>
<path d="M74.8392 13.5373C76.3692 13.4373 77.8992 13.3273 79.4292 13.2173C78.1192 14.6173 76.8792 15.7773 76.3092 16.3773C75.8192 15.4273 75.3292 14.4773 74.8392 13.5273V13.5373Z" fill="#FF7229"/>
<path d="M32.8092 12.6173C31.3192 13.5473 29.7692 11.8373 30.2792 10.5073C30.5192 10.5073 30.7592 10.5073 30.9992 10.5173C32.2392 10.5473 32.8892 11.6673 32.8092 12.6173Z" fill="#FF7229"/>
<path d="M1.11917 15.6373C10.4692 12.0673 20.2892 10.3273 30.2792 10.5073C29.7692 11.8373 31.3192 13.5473 32.8092 12.6173C32.7492 13.3573 32.2692 13.9973 31.2892 13.9673C22.4292 13.7273 13.7492 15.0073 5.37917 17.7973C4.52917 17.1773 3.67918 16.5573 2.82918 15.9373C2.65918 16.9173 2.48917 17.9073 2.30917 18.8873C3.32917 18.4973 4.34917 18.1373 5.36917 17.7973C12.3492 22.9273 19.2792 28.1773 26.4692 32.9973C34.6692 38.4973 43.5292 42.2373 53.5892 40.9173C62.8692 39.7073 71.2392 34.8773 78.2092 28.8273C81.5792 25.9073 84.9692 22.6573 87.7392 19.1373C90.8892 15.1373 85.3592 16.2973 83.0692 16.4473C80.4192 16.6273 77.7692 16.8073 75.1192 16.9773C73.6892 17.0773 72.5792 15.2673 73.6492 14.1273C75.3092 12.3673 77.8492 10.4973 79.0392 8.40733C81.0192 4.90733 77.0192 7.34733 75.3692 8.11733C70.5592 10.3673 65.7492 12.6173 60.9292 14.8673C59.4892 15.5373 58.1992 13.7873 58.7592 12.4973C59.9292 9.82733 61.0992 7.14733 62.2692 4.47733C63.4992 4.06733 64.7392 3.67733 65.9892 3.31733C65.2692 2.52733 64.5392 1.73733 63.8192 0.947331C63.2992 2.12733 62.7892 3.29733 62.2692 4.47733C58.5292 5.72733 54.8792 7.18733 51.2992 8.87733C50.1592 9.41733 49.1892 8.38733 48.9692 7.39733C48.7592 6.43733 48.5492 5.48733 48.3392 4.52733C48.9592 4.29733 49.5792 4.07733 50.1992 3.86733C49.4192 3.37733 48.6492 2.87733 47.8692 2.38733C48.0292 3.09733 48.1792 3.81733 48.3392 4.52733C42.8492 6.53733 37.7092 9.18733 32.8792 12.5473C32.8492 12.5673 32.8192 12.5773 32.7892 12.5973C32.8592 11.6473 32.2192 10.5273 30.9792 10.4973C30.7392 10.4973 30.4992 10.4973 30.2592 10.4873C30.3692 10.2073 30.5592 9.93733 30.8792 9.71733C36.4792 5.82733 42.5292 2.77733 48.9992 0.617331C50.1792 0.227331 51.0892 0.987331 51.3292 2.09733C51.5292 2.99733 51.7292 3.89733 51.9192 4.80733C51.3092 5.07733 50.6992 5.33733 50.0892 5.62733C50.8692 6.11733 51.6392 6.61733 52.4192 7.10733C52.2492 6.33733 52.0792 5.57733 51.9192 4.80733C56.1192 2.94733 60.3892 1.35733 64.7992 0.077331C66.2492 -0.342669 67.5992 1.00733 66.9692 2.44733C65.9092 4.87733 64.8392 7.30733 63.7792 9.73733C62.4392 10.3673 61.0892 10.9973 59.7492 11.6273C60.4692 12.4173 61.1992 13.2073 61.9192 13.9973C62.5392 12.5773 63.1592 11.1573 63.7792 9.73733C66.6192 8.40733 69.4592 7.07733 72.2992 5.75733C74.7492 4.61733 78.5192 1.87733 81.3892 2.85733C86.5192 4.61733 82.7392 9.68733 79.4392 13.2073C77.9092 13.3173 76.3792 13.4173 74.8492 13.5273C75.3392 14.4773 75.8292 15.4273 76.3192 16.3773C76.8892 15.7773 78.1292 14.6173 79.4392 13.2173C81.4392 13.0773 83.4392 12.9473 85.4392 12.8173C87.1692 12.7173 89.1592 12.4173 90.6992 13.4173C94.7892 16.0673 91.0592 20.6873 88.8692 23.1273C81.5992 31.2073 73.0392 38.5673 62.6692 42.2473C52.0392 46.0173 41.1292 45.1573 31.1992 39.8773C20.3192 34.0973 10.5492 25.8073 0.619171 18.5873C-0.470825 17.7973 -0.0108261 16.0773 1.13918 15.6373H1.11917Z" fill="#FF7229"/>
<path d="M50.1091 5.63738C50.7091 5.34738 51.3291 5.08738 51.9391 4.81738C52.1091 5.58738 52.2791 6.34738 52.4391 7.11738C51.6591 6.62738 50.8891 6.12738 50.1091 5.63738Z" fill="#FF7229"/>
<path d="M20.029 17.9778C22.249 17.7878 22.549 21.2478 20.329 21.4378C18.109 21.6278 17.809 18.1678 20.029 17.9778Z" fill="#FF7229"/>
<path d="M26.699 46.8275C29.829 44.6075 32.609 42.0275 35.059 39.0675C36.479 37.3475 39.139 39.5775 37.709 41.2975C35.079 44.4775 32.069 47.2775 28.699 49.6575C26.869 50.9475 24.879 48.1175 26.699 46.8275Z" fill="#FF7229"/>
<path d="M37.3191 51.0973C39.7691 48.8473 41.8091 46.1873 43.3891 43.2673C44.4491 41.3073 47.5891 42.7873 46.5191 44.7573C44.6391 48.2373 42.2291 51.2673 39.3191 53.9373C37.6691 55.4473 35.6891 52.5873 37.3191 51.1073V51.0973Z" fill="#FF7229"/>
<path d="M65.979 23.3573C68.909 22.5773 71.369 21.0373 73.309 18.6973C74.739 16.9773 77.389 19.2073 75.959 20.9273C73.669 23.6873 70.649 25.6773 67.179 26.6073C65.039 27.1773 63.819 23.9273 65.979 23.3573Z" fill="#FF7229"/>
</svg>
