<svg width="393" height="973" viewBox="0 0 393 973" fill="none" xmlns="http://www.w3.org/2000/svg">
<rect width="393" height="973" fill="#FDCE7C"/>
<path d="M-432.433 973H618C596.016 933.341 586.294 886.57 587.517 842.814C588.521 805.958 598.023 769.498 597.96 732.616C597.929 695.759 586.482 656.418 553.647 632.068C505.414 596.322 431.967 605.205 369.339 617.13C314.928 627.494 249.823 638.545 197.889 615.094C134.76 586.592 127.296 520.918 109.922 468.753C68.8394 345.468 -75.9227 285.636 -221.092 302.927C-380.625 321.937 -473.359 462.937 -419.513 589.871C-407.627 617.87 -385.862 645.287 -385.517 675.851C-384.953 727.566 -445.448 726.693 -488.319 739.807C-527.896 751.943 -552.922 784.04 -556.529 818.754C-560.982 861.638 -533.321 889.426 -497.539 916.129C-471.854 935.324 -458.087 953.805 -432.402 973H-432.433Z" fill="#FFD997"/>
<path d="M342.513 0L349.053 11.9729L361 18.5132L349.053 25.0535L342.513 37L335.947 25.0535L324 18.5132L335.947 11.9729L342.513 0Z" fill="white"/>
<path d="M258.921 756.96C258.921 760.245 256.261 762.921 252.96 762.921C249.659 762.921 247 760.261 247 756.96C247 753.659 249.659 751 252.96 751C256.261 751 258.921 753.659 258.921 756.96Z" fill="#0B4779"/>
<path d="M180.96 141.921C184.252 141.921 186.921 139.252 186.921 135.96C186.921 132.669 184.252 130 180.96 130C177.669 130 175 132.669 175 135.96C175 139.252 177.669 141.921 180.96 141.921Z" fill="#EAAE4E"/>
<path d="M212.43 428.99C212.43 431.66 210.103 433.833 207.215 433.833C204.327 433.833 202 431.672 202 428.99C202 426.309 204.327 424.148 207.215 424.148C210.103 424.148 212.43 426.309 212.43 428.99Z" fill="white"/>
<path d="M51.4305 26.8427C51.4305 29.512 49.1035 31.6855 46.2153 31.6855C43.327 31.6855 41 29.5247 41 26.8427C41 24.1608 43.327 22 46.2153 22C49.1035 22 51.4305 24.1608 51.4305 26.8427Z" fill="white"/>
</svg>
