<svg width="1026" height="957" viewBox="0 0 1026 957" fill="none" xmlns="http://www.w3.org/2000/svg">
<path d="M1022.75 514.357C1018.74 489.639 1013.23 465.515 1004.89 441.975C943.326 306.952 948.442 259.651 900.656 158.147C884.438 121.763 854.572 85.2956 822.324 62.0273C768.377 23.1077 694.995 -2.13267 628.036 0.141986C593.606 1.31062 558.999 3.41833 525.206 10.4823C491.716 17.4837 459.928 32.822 425.79 36.6513C361.097 43.924 325.09 25.5911 247.636 56.5494C201.385 75.0388 152.68 109.962 127.721 154.391C86.5976 222.276 90.9132 272.033 70.6124 347.128C56.5564 401.198 20.2677 445.711 6.84868 499.676C-37.8674 678.508 147.74 703.276 234.489 819.618C265.462 858.788 307.087 890.121 350.947 913.859C462.674 983.998 601.334 963.693 705.083 888.4C759.876 846.747 803.781 816.699 864.673 782.579C907.593 758.32 954.951 737.368 985.37 696.852C1002.6 674.262 1009.83 648.907 1017.36 622.018C1027 586.614 1028.24 550.46 1022.75 514.368V514.357Z" fill="white"/>
</svg>
