<svg width="1920" height="848" viewBox="0 0 1920 848" fill="none" xmlns="http://www.w3.org/2000/svg">
<rect width="1920" height="848" fill="#FDCE7C"/>
<path d="M-211.433 848H839C817.016 808.341 807.294 761.57 808.517 717.814C809.521 680.958 819.023 644.498 818.96 607.616C818.929 570.759 807.482 531.418 774.647 507.068C726.414 471.322 652.967 480.205 590.339 492.13C535.928 502.494 470.823 513.545 418.889 490.094C355.76 461.592 348.296 395.918 330.922 343.753C289.839 220.468 145.077 160.636 -0.0922852 177.927C-159.625 196.937 -252.359 337.937 -198.513 464.871C-186.627 492.87 -164.862 520.287 -164.517 550.851C-163.953 602.566 -224.448 601.693 -267.319 614.807C-306.896 626.943 -331.922 659.04 -335.529 693.754C-339.982 736.638 -312.321 764.426 -276.539 791.129C-250.854 810.324 -237.087 828.805 -211.402 848H-211.433Z" fill="#FFD997"/>
<path d="M1686.01 52L1690.25 59.7662L1698 64.0086L1690.25 68.2509L1686.01 76L1681.75 68.2509L1674 64.0086L1681.75 59.7662L1686.01 52Z" fill="white"/>
<path d="M1827 652C1827 656.409 1823.43 660 1819 660C1814.57 660 1811 656.43 1811 652C1811 647.57 1814.57 644 1819 644C1823.43 644 1827 647.57 1827 652Z" fill="#0B4779"/>
<path d="M260 668C264.418 668 268 664.418 268 660C268 655.582 264.418 652 260 652C255.582 652 252 655.582 252 660C252 664.418 255.582 668 260 668Z" fill="#EAAE4E"/>
<path d="M169 460.5C169 464.083 165.877 467 162 467C158.123 467 155 464.1 155 460.5C155 456.9 158.123 454 162 454C165.877 454 169 456.9 169 460.5Z" fill="white"/>
<path d="M155 190.5C155 194.083 151.877 197 148 197C144.123 197 141 194.1 141 190.5C141 186.9 144.123 184 148 184C151.877 184 155 186.9 155 190.5Z" fill="white"/>
</svg>
