<svg width="675" height="369" viewBox="0 0 675 369" fill="none" xmlns="http://www.w3.org/2000/svg">
<path opacity="0.5" d="M381.905 294.829C561.42 373.087 590.015 310.479 585.521 250.914C586.793 252.685 588.027 254.466 589.186 256.275C608.265 285.907 614.54 321.964 589.647 356.41C581.177 361.677 571.03 365.71 558.876 368.131C558.876 368.131 471.026 379.315 351.096 320.645C233.888 263.304 98.5337 265.791 45.4227 324.461L65.2086 337.369L5.58715 343.945L0 294.81L17.2137 306.041C17.2137 306.041 90.657 167.86 381.905 294.829Z" fill="white"/>
<path opacity="0.5" d="M331.253 97.2623C331.253 97.2623 162.998 177.433 125.697 55.5895L160.171 44.8957L90.7042 0.311523L60.6014 75.7805L91.6558 66.1514C91.6558 66.1514 117.783 229.121 341.203 133.16C564.623 37.1886 633.318 198.509 633.318 198.509L675 192.724C675 192.724 618.384 -7.70647 331.253 97.2623Z" fill="white"/>
</svg>
