<svg width="566" height="634" viewBox="0 0 566 634" fill="none" xmlns="http://www.w3.org/2000/svg">
<path d="M106.43 566.32C105.56 566.32 104.84 565.62 104.83 564.74C104.82 563.86 105.53 563.13 106.41 563.12C108.84 563.09 111.33 563.02 113.83 562.91C114.7 562.84 115.46 563.56 115.5 564.44C115.54 565.32 114.85 566.07 113.97 566.11C111.44 566.22 108.92 566.29 106.46 566.32H106.44H106.43ZM98.96 566.29H98.93C96.38 566.24 93.85 566.14 91.41 566C90.53 565.95 89.85 565.19 89.9 564.31C89.95 563.43 90.71 562.75 91.59 562.8C93.99 562.94 96.48 563.03 98.99 563.09C99.87 563.11 100.57 563.84 100.56 564.72C100.54 565.59 99.83 566.29 98.96 566.29ZM121.34 565.69C120.51 565.69 119.8 565.05 119.75 564.2C119.69 563.32 120.35 562.55 121.23 562.49C123.66 562.32 126.15 562.11 128.63 561.87C129.52 561.8 130.29 562.43 130.38 563.31C130.46 564.19 129.82 564.97 128.94 565.06C126.43 565.3 123.91 565.51 121.46 565.68C121.42 565.68 121.38 565.68 121.35 565.68L121.34 565.69ZM84.05 565.43C84 565.43 83.94 565.43 83.89 565.43C81.35 565.18 78.84 564.88 76.41 564.52C75.54 564.39 74.93 563.58 75.06 562.71C75.19 561.83 76 561.23 76.87 561.35C79.25 561.69 81.72 561.99 84.21 562.24C85.09 562.33 85.73 563.11 85.65 563.99C85.57 564.82 84.87 565.43 84.06 565.43H84.05ZM136.2 564.27C135.4 564.27 134.71 563.67 134.61 562.86C134.5 561.98 135.13 561.19 136.01 561.08C138.45 560.79 140.93 560.46 143.38 560.11C144.26 559.99 145.07 560.59 145.19 561.47C145.31 562.34 144.71 563.15 143.83 563.28C141.35 563.63 138.85 563.96 136.39 564.26C136.33 564.26 136.26 564.27 136.2 564.27ZM69.28 563.28C69.18 563.28 69.07 563.27 68.97 563.25C66.46 562.75 63.98 562.19 61.6 561.57C60.75 561.35 60.23 560.47 60.45 559.62C60.67 558.76 61.54 558.25 62.4 558.47C64.72 559.07 67.14 559.62 69.59 560.11C70.46 560.28 71.02 561.12 70.85 561.99C70.7 562.75 70.03 563.28 69.28 563.28ZM150.99 562.17C150.22 562.17 149.54 561.61 149.41 560.83C149.27 559.96 149.86 559.13 150.73 558.99C153.16 558.59 155.63 558.16 158.06 557.71C158.92 557.55 159.76 558.13 159.92 558.99C160.08 559.86 159.5 560.69 158.64 560.85C156.19 561.3 153.7 561.73 151.25 562.14C151.16 562.15 151.07 562.16 150.99 562.16V562.17ZM54.85 559.51C54.68 559.51 54.51 559.48 54.34 559.43C51.9 558.62 49.51 557.72 47.24 556.76C46.43 556.42 46.04 555.48 46.39 554.66C46.73 553.85 47.67 553.47 48.49 553.81C50.68 554.73 53 555.6 55.36 556.39C56.2 556.67 56.65 557.58 56.37 558.41C56.15 559.08 55.52 559.5 54.85 559.5V559.51ZM165.68 559.47C164.94 559.47 164.27 558.95 164.11 558.19C163.93 557.32 164.49 556.48 165.36 556.3C167.77 555.81 170.19 555.29 172.64 554.75C173.5 554.56 174.36 555.1 174.55 555.97C174.74 556.83 174.2 557.69 173.33 557.88C170.87 558.42 168.43 558.94 166 559.44C165.89 559.46 165.78 559.47 165.68 559.47ZM180.26 556.24C179.54 556.24 178.88 555.75 178.71 555.01C178.5 554.15 179.04 553.29 179.89 553.08C182.28 552.51 184.69 551.91 187.11 551.29C187.97 551.08 188.84 551.59 189.06 552.44C189.28 553.3 188.76 554.17 187.91 554.39C185.47 555.01 183.05 555.61 180.64 556.19C180.52 556.22 180.39 556.23 180.27 556.23L180.26 556.24ZM41.12 553.69C40.87 553.69 40.61 553.63 40.37 553.5C38.09 552.29 35.89 550.97 33.83 549.58C33.1 549.09 32.9 548.09 33.39 547.36C33.88 546.63 34.88 546.43 35.61 546.92C37.58 548.24 39.69 549.5 41.87 550.67C42.65 551.09 42.95 552.05 42.53 552.83C42.24 553.37 41.69 553.68 41.12 553.68V553.69ZM194.73 552.54C194.03 552.54 193.38 552.07 193.19 551.36C192.96 550.51 193.46 549.63 194.31 549.4C196.69 548.75 199.08 548.08 201.48 547.39C202.33 547.15 203.22 547.64 203.46 548.48C203.7 549.33 203.21 550.22 202.36 550.46C199.94 551.16 197.54 551.83 195.15 552.48C195.01 552.52 194.87 552.54 194.73 552.54ZM209.08 548.41C208.39 548.41 207.76 547.96 207.55 547.27C207.29 546.42 207.77 545.53 208.62 545.27C210.98 544.55 213.35 543.82 215.73 543.06C216.57 542.79 217.47 543.26 217.74 544.1C218.01 544.94 217.54 545.84 216.7 546.11C214.31 546.87 211.92 547.61 209.55 548.33C209.4 548.38 209.24 548.4 209.09 548.4L209.08 548.41ZM28.77 545.35C28.4 545.35 28.03 545.22 27.73 544.97C25.77 543.29 23.92 541.49 22.24 539.62C21.65 538.96 21.7 537.95 22.36 537.36C23.02 536.77 24.03 536.82 24.62 537.48C26.21 539.25 27.96 540.95 29.82 542.54C30.49 543.12 30.57 544.12 29.99 544.8C29.67 545.17 29.23 545.36 28.77 545.36V545.35ZM223.31 543.89C222.64 543.89 222.02 543.47 221.79 542.79C221.51 541.95 221.96 541.05 222.8 540.77C225.14 539.99 227.49 539.19 229.85 538.37C230.69 538.08 231.6 538.52 231.89 539.36C232.18 540.19 231.74 541.11 230.9 541.4C228.53 542.22 226.16 543.03 223.81 543.81C223.64 543.87 223.47 543.89 223.3 543.89H223.31ZM237.42 538.99C236.77 538.99 236.15 538.58 235.92 537.93C235.62 537.1 236.05 536.18 236.88 535.88C239.2 535.04 241.53 534.18 243.87 533.31C244.7 533 245.62 533.42 245.93 534.25C246.24 535.08 245.82 536 244.99 536.31C242.64 537.19 240.3 538.05 237.96 538.89C237.78 538.95 237.6 538.99 237.42 538.99ZM18.83 534.28C18.32 534.28 17.81 534.03 17.5 533.58C16.75 532.48 16.03 531.33 15.36 530.17C14.75 529.12 14.17 528.03 13.63 526.94C13.24 526.15 13.57 525.19 14.36 524.8C15.15 524.41 16.11 524.73 16.5 525.53C17.01 526.56 17.55 527.59 18.13 528.58C18.76 529.67 19.44 530.75 20.14 531.79C20.64 532.52 20.45 533.52 19.72 534.01C19.44 534.2 19.13 534.29 18.82 534.29L18.83 534.28ZM251.41 533.75C250.77 533.75 250.16 533.36 249.92 532.73C249.6 531.91 250.01 530.98 250.83 530.66C253.13 529.77 255.44 528.85 257.76 527.92C258.58 527.59 259.51 527.99 259.84 528.81C260.17 529.63 259.77 530.56 258.95 530.89C256.62 531.83 254.3 532.74 251.99 533.64C251.8 533.71 251.6 533.75 251.41 533.75ZM265.27 528.19C264.64 528.19 264.05 527.82 263.79 527.2C263.45 526.38 263.84 525.45 264.66 525.11C266.94 524.16 269.23 523.2 271.53 522.22C272.34 521.87 273.28 522.25 273.63 523.06C273.98 523.87 273.6 524.81 272.79 525.16C270.49 526.15 268.19 527.12 265.89 528.07C265.69 528.15 265.48 528.19 265.28 528.19H265.27ZM279 522.32C278.39 522.32 277.8 521.96 277.54 521.36C277.18 520.55 277.54 519.61 278.36 519.25C280.62 518.25 282.89 517.24 285.16 516.21C285.97 515.84 286.91 516.21 287.28 517.01C287.65 517.81 287.28 518.76 286.48 519.13C284.2 520.17 281.92 521.18 279.65 522.19C279.44 522.28 279.22 522.33 279.01 522.33L279 522.32ZM12.25 520.94C11.58 520.94 10.95 520.51 10.73 519.84C9.94 517.45 9.29 514.95 8.8 512.42C8.63 511.55 9.2 510.71 10.07 510.55C10.93 510.38 11.78 510.95 11.94 511.82C12.4 514.22 13.02 516.58 13.77 518.84C14.05 519.68 13.59 520.58 12.75 520.86C12.58 520.92 12.41 520.94 12.25 520.94ZM292.6 516.16C292 516.16 291.42 515.82 291.15 515.24C290.78 514.44 291.12 513.49 291.92 513.11C294.16 512.06 296.41 511 298.66 509.93C299.46 509.55 300.41 509.88 300.79 510.68C301.17 511.48 300.84 512.43 300.04 512.81C297.78 513.89 295.53 514.96 293.27 516.01C293.05 516.11 292.82 516.16 292.59 516.16H292.6ZM306.07 509.71C305.48 509.71 304.91 509.38 304.63 508.82C304.24 508.03 304.57 507.07 305.36 506.68C307.58 505.59 309.8 504.48 312.03 503.36C312.82 502.96 313.78 503.28 314.18 504.07C314.58 504.86 314.26 505.82 313.47 506.22C311.24 507.35 309 508.46 306.77 509.56C306.54 509.67 306.3 509.73 306.06 509.73L306.07 509.71ZM9.4 506.33C8.57 506.33 7.87 505.69 7.81 504.85C7.68 503.12 7.62 501.34 7.62 499.56C7.62 498.79 7.63 498.01 7.66 497.23C7.69 496.35 8.42 495.66 9.31 495.68C10.19 495.71 10.89 496.44 10.86 497.33C10.84 498.08 10.83 498.82 10.83 499.57C10.83 501.28 10.89 502.98 11.01 504.63C11.07 505.51 10.41 506.28 9.53 506.34C9.49 506.34 9.45 506.34 9.41 506.34L9.4 506.33ZM319.4 502.98C318.82 502.98 318.26 502.66 317.98 502.11C317.57 501.32 317.88 500.36 318.67 499.95C320.87 498.81 323.07 497.66 325.27 496.49C326.05 496.08 327.02 496.37 327.43 497.16C327.84 497.94 327.55 498.91 326.76 499.32C324.55 500.49 322.34 501.65 320.13 502.79C319.9 502.91 319.64 502.97 319.4 502.97V502.98ZM332.6 495.99C332.03 495.99 331.48 495.69 331.19 495.15C330.77 494.37 331.06 493.4 331.83 492.98C334.01 491.8 336.18 490.6 338.36 489.4C339.13 488.97 340.11 489.25 340.54 490.02C340.97 490.79 340.69 491.77 339.92 492.19C337.73 493.4 335.55 494.61 333.36 495.79C333.12 495.92 332.86 495.98 332.6 495.98V495.99ZM9.82 491.44C9.76 491.44 9.69 491.44 9.63 491.43C8.75 491.32 8.13 490.53 8.23 489.65C8.52 487.21 8.93 484.69 9.44 482.17C9.61 481.3 10.46 480.75 11.32 480.92C12.19 481.09 12.75 481.94 12.57 482.8C12.08 485.25 11.68 487.68 11.4 490.04C11.3 490.85 10.61 491.45 9.81 491.45L9.82 491.44ZM345.66 488.74C345.1 488.74 344.56 488.45 344.27 487.93C343.83 487.16 344.1 486.18 344.87 485.75C346.46 484.85 348.05 483.93 349.64 483.02L351.33 482.04C352.09 481.6 353.07 481.86 353.52 482.62C353.96 483.38 353.7 484.36 352.94 484.81L351.25 485.79C349.65 486.71 348.05 487.63 346.46 488.53C346.21 488.67 345.94 488.74 345.67 488.74H345.66ZM358.57 481.24C358.02 481.24 357.49 480.96 357.19 480.46C356.74 479.7 356.99 478.72 357.75 478.27C359.89 477 362.02 475.72 364.14 474.44C364.9 473.98 365.88 474.22 366.34 474.98C366.8 475.74 366.56 476.72 365.8 477.18C363.67 478.47 361.53 479.76 359.38 481.03C359.12 481.18 358.84 481.25 358.56 481.25L358.57 481.24ZM12.74 476.81C12.6 476.81 12.46 476.79 12.32 476.75C11.47 476.52 10.96 475.64 11.2 474.79C11.85 472.42 12.59 469.99 13.41 467.56C13.69 466.72 14.6 466.27 15.44 466.56C16.28 466.84 16.73 467.75 16.44 468.59C15.64 470.96 14.92 473.33 14.29 475.64C14.1 476.35 13.45 476.82 12.75 476.82L12.74 476.81ZM371.34 473.49C370.8 473.49 370.28 473.22 369.98 472.73C369.51 471.98 369.75 470.99 370.5 470.53C372.62 469.22 374.72 467.9 376.81 466.57C377.56 466.1 378.54 466.32 379.02 467.06C379.5 467.8 379.27 468.8 378.53 469.27C376.43 470.6 374.32 471.93 372.19 473.25C371.93 473.41 371.64 473.49 371.35 473.49H371.34ZM383.95 465.49C383.43 465.49 382.91 465.23 382.61 464.76C382.13 464.02 382.34 463.03 383.08 462.55C385.17 461.19 387.25 459.83 389.31 458.46C390.05 457.97 391.04 458.17 391.53 458.91C392.02 459.65 391.82 460.64 391.08 461.13C389.01 462.5 386.92 463.87 384.82 465.23C384.55 465.4 384.25 465.49 383.95 465.49ZM17.5 462.67C17.3 462.67 17.1 462.63 16.91 462.56C16.09 462.23 15.69 461.3 16.01 460.48C16.91 458.2 17.9 455.87 18.95 453.54C19.31 452.73 20.26 452.38 21.07 452.74C21.88 453.1 22.23 454.05 21.87 454.86C20.84 457.14 19.87 459.43 18.99 461.66C18.74 462.29 18.14 462.67 17.5 462.67ZM396.4 457.24C395.89 457.24 395.38 456.99 395.07 456.54C394.57 455.81 394.77 454.81 395.5 454.32C397.56 452.92 399.61 451.52 401.65 450.11C402.38 449.61 403.37 449.79 403.88 450.51C404.38 451.24 404.2 452.23 403.48 452.74C401.44 454.16 399.38 455.57 397.31 456.97C397.04 457.16 396.72 457.25 396.41 457.25L396.4 457.24ZM23.62 449.06C23.38 449.06 23.14 449.01 22.91 448.89C22.12 448.49 21.8 447.53 22.2 446.74C23.29 444.56 24.47 442.32 25.7 440.08C26.12 439.3 27.1 439.02 27.87 439.45C28.64 439.87 28.93 440.85 28.5 441.62C27.29 443.83 26.13 446.03 25.06 448.18C24.78 448.74 24.21 449.06 23.63 449.06H23.62ZM408.68 448.74C408.18 448.74 407.69 448.5 407.37 448.06C406.86 447.34 407.03 446.34 407.75 445.83C409.78 444.39 411.8 442.94 413.81 441.49C414.53 440.97 415.53 441.13 416.04 441.85C416.56 442.57 416.4 443.57 415.68 444.08C413.67 445.54 411.64 446.99 409.6 448.44C409.32 448.64 409 448.73 408.68 448.73V448.74ZM420.77 439.98C420.28 439.98 419.8 439.76 419.48 439.33C418.95 438.62 419.1 437.62 419.81 437.09C421.81 435.6 423.8 434.11 425.77 432.62C426.47 432.09 427.48 432.22 428.01 432.93C428.54 433.63 428.41 434.64 427.7 435.17C425.72 436.67 423.72 438.17 421.71 439.66C421.42 439.87 421.09 439.97 420.76 439.97L420.77 439.98ZM30.78 435.97C30.5 435.97 30.22 435.9 29.97 435.75C29.21 435.3 28.96 434.32 29.41 433.56C30.66 431.46 31.98 429.3 33.34 427.15C33.81 426.4 34.8 426.18 35.55 426.65C36.3 427.12 36.52 428.11 36.05 428.86C34.71 430.98 33.4 433.11 32.17 435.19C31.87 435.69 31.34 435.98 30.79 435.98L30.78 435.97ZM432.67 430.96C432.19 430.96 431.72 430.75 431.4 430.34C430.86 429.64 430.99 428.64 431.68 428.09C433.65 426.56 435.6 425.03 437.54 423.49C438.23 422.94 439.24 423.06 439.79 423.75C440.34 424.44 440.22 425.45 439.53 426C437.59 427.54 435.62 429.09 433.64 430.62C433.35 430.85 433 430.95 432.66 430.95L432.67 430.96ZM38.77 423.35C38.46 423.35 38.15 423.26 37.88 423.08C37.15 422.59 36.95 421.59 37.45 420.86C38.82 418.82 40.26 416.74 41.72 414.69C42.23 413.97 43.23 413.8 43.95 414.31C44.67 414.82 44.84 415.82 44.33 416.54C42.88 418.58 41.46 420.63 40.1 422.65C39.79 423.11 39.29 423.36 38.77 423.36V423.35ZM444.37 421.67C443.91 421.67 443.44 421.47 443.13 421.08C442.57 420.39 442.68 419.39 443.36 418.83C445.3 417.25 447.21 415.68 449.11 414.09C449.79 413.52 450.8 413.62 451.36 414.3C451.93 414.98 451.83 415.99 451.16 416.55C449.25 418.14 447.33 419.73 445.38 421.31C445.08 421.55 444.73 421.67 444.37 421.67ZM455.84 412.11C455.39 412.11 454.94 411.92 454.62 411.55C454.05 410.88 454.12 409.87 454.8 409.29C456.7 407.67 458.58 406.04 460.43 404.41C461.09 403.83 462.11 403.89 462.69 404.56C463.27 405.22 463.21 406.23 462.54 406.82C460.67 408.46 458.79 410.09 456.88 411.72C456.58 411.98 456.21 412.1 455.84 412.1V412.11ZM47.43 411.19C47.1 411.19 46.76 411.09 46.47 410.87C45.76 410.34 45.62 409.34 46.15 408.63C47.62 406.66 49.15 404.66 50.71 402.67C51.25 401.97 52.26 401.85 52.96 402.4C53.66 402.95 53.78 403.95 53.23 404.65C51.69 406.62 50.17 408.6 48.71 410.55C48.4 410.97 47.91 411.19 47.43 411.19ZM467.07 402.27C466.63 402.27 466.2 402.09 465.88 401.74C465.29 401.08 465.34 400.07 466 399.48C467.86 397.81 469.69 396.13 471.5 394.46C472.15 393.86 473.16 393.9 473.76 394.55C474.36 395.2 474.32 396.21 473.67 396.81C471.85 398.49 470 400.18 468.14 401.86C467.83 402.14 467.45 402.27 467.07 402.27ZM56.63 399.43C56.27 399.43 55.92 399.31 55.62 399.07C54.94 398.51 54.83 397.5 55.39 396.82C56.95 394.91 58.57 392.97 60.19 391.06C60.76 390.39 61.77 390.31 62.45 390.88C63.12 391.45 63.2 392.46 62.63 393.14C61.02 395.03 59.42 396.96 57.87 398.85C57.55 399.24 57.09 399.44 56.63 399.44V399.43ZM478.03 392.13C477.61 392.13 477.18 391.96 476.87 391.63C476.26 390.99 476.29 389.98 476.93 389.37C478.74 387.65 480.53 385.93 482.29 384.2C482.92 383.58 483.93 383.59 484.55 384.22C485.17 384.85 485.16 385.86 484.53 386.48C482.76 388.21 480.96 389.95 479.14 391.68C478.83 391.97 478.43 392.12 478.04 392.12L478.03 392.13ZM66.3 388.05C65.92 388.05 65.55 387.92 65.24 387.65C64.58 387.07 64.51 386.05 65.1 385.39C66.74 383.53 68.41 381.68 70.11 379.81C70.71 379.16 71.72 379.11 72.37 379.71C73.02 380.31 73.07 381.32 72.47 381.97C70.78 383.82 69.12 385.66 67.5 387.5C67.18 387.86 66.74 388.04 66.3 388.04V388.05ZM488.71 381.68C488.3 381.68 487.9 381.53 487.58 381.22C486.95 380.6 486.95 379.58 487.58 378.96C489.34 377.19 491.07 375.41 492.78 373.64C493.39 373 494.41 372.98 495.04 373.6C495.68 374.21 495.7 375.22 495.08 375.86C493.36 377.65 491.62 379.43 489.84 381.22C489.53 381.54 489.12 381.69 488.7 381.69L488.71 381.68ZM76.38 377.02C75.99 377.02 75.59 376.88 75.28 376.58C74.64 375.97 74.61 374.96 75.22 374.32C76.92 372.52 78.65 370.72 80.41 368.92C81.03 368.29 82.04 368.28 82.67 368.89C83.3 369.51 83.31 370.52 82.7 371.15C80.95 372.94 79.23 374.73 77.54 376.52C77.23 376.85 76.8 377.02 76.38 377.02ZM499.06 370.91C498.67 370.91 498.28 370.77 497.97 370.48C497.32 369.88 497.29 368.86 497.89 368.22C499.59 366.39 501.27 364.56 502.91 362.73C503.5 362.07 504.51 362.02 505.17 362.61C505.83 363.2 505.88 364.21 505.29 364.87C503.63 366.71 501.95 368.56 500.23 370.4C499.91 370.74 499.49 370.91 499.06 370.91ZM86.81 366.33C86.4 366.33 85.99 366.17 85.68 365.86C85.06 365.23 85.06 364.22 85.68 363.6C87.44 361.85 89.22 360.11 91.03 358.36C91.66 357.75 92.68 357.76 93.29 358.4C93.9 359.04 93.89 360.05 93.25 360.66C91.45 362.4 89.68 364.13 87.93 365.87C87.62 366.18 87.21 366.33 86.8 366.33H86.81ZM509.04 359.8C508.67 359.8 508.3 359.67 507.99 359.41C507.32 358.83 507.25 357.82 507.83 357.15C509.47 355.25 511.1 353.35 512.65 351.48C513.22 350.8 514.23 350.71 514.9 351.28C515.58 351.85 515.67 352.86 515.1 353.53C513.53 355.41 511.9 357.33 510.24 359.24C509.92 359.61 509.48 359.79 509.03 359.79L509.04 359.8ZM97.56 355.96C97.13 355.96 96.71 355.79 96.39 355.46C95.79 354.82 95.82 353.8 96.46 353.2C98.27 351.5 100.1 349.81 101.96 348.11C102.61 347.51 103.63 347.56 104.22 348.21C104.82 348.86 104.77 349.87 104.12 350.47C102.27 352.16 100.45 353.84 98.65 355.53C98.34 355.82 97.95 355.96 97.56 355.96ZM518.61 348.34C518.26 348.34 517.91 348.23 517.61 347.99C516.92 347.44 516.81 346.43 517.36 345.74C518.91 343.81 520.45 341.84 521.94 339.89C522.48 339.19 523.48 339.06 524.18 339.59C524.88 340.13 525.01 341.13 524.48 341.83C522.97 343.8 521.41 345.79 519.85 347.73C519.53 348.12 519.07 348.33 518.6 348.33L518.61 348.34ZM108.59 345.9C108.15 345.9 107.71 345.72 107.39 345.36C106.8 344.7 106.86 343.69 107.52 343.1C109.37 341.45 111.25 339.81 113.15 338.16C113.82 337.58 114.83 337.65 115.41 338.32C115.99 338.99 115.92 340 115.25 340.58C113.36 342.22 111.5 343.85 109.65 345.49C109.34 345.76 108.97 345.89 108.59 345.89V345.9ZM527.69 336.49C527.36 336.49 527.03 336.39 526.75 336.18C526.04 335.66 525.88 334.66 526.4 333.94C527.86 331.94 529.31 329.9 530.71 327.89C531.21 327.17 532.21 326.98 532.94 327.49C533.67 327.99 533.85 328.99 533.34 329.72C531.93 331.76 530.46 333.81 528.99 335.84C528.68 336.27 528.19 336.5 527.7 336.5L527.69 336.49ZM119.88 336.12C119.42 336.12 118.97 335.93 118.66 335.55C118.09 334.88 118.17 333.87 118.85 333.3C120.75 331.7 122.66 330.1 124.6 328.5C125.28 327.94 126.29 328.04 126.85 328.72C127.41 329.4 127.31 330.41 126.63 330.97C124.7 332.56 122.8 334.15 120.91 335.74C120.61 335.99 120.24 336.12 119.88 336.12ZM131.41 326.62C130.94 326.62 130.48 326.42 130.16 326.02C129.61 325.33 129.72 324.32 130.4 323.77C132.33 322.21 134.29 320.66 136.26 319.11C136.96 318.56 137.96 318.68 138.51 319.38C139.06 320.07 138.94 321.08 138.24 321.63C136.28 323.17 134.33 324.72 132.41 326.27C132.11 326.51 131.76 326.62 131.41 326.62ZM536.2 324.21C535.9 324.21 535.6 324.13 535.33 323.95C534.59 323.47 534.38 322.47 534.87 321.74C536.25 319.63 537.59 317.53 538.85 315.47C539.31 314.72 540.3 314.48 541.05 314.94C541.8 315.4 542.04 316.39 541.58 317.14C540.3 319.22 538.95 321.35 537.56 323.48C537.25 323.95 536.74 324.2 536.22 324.2L536.2 324.21ZM143.15 317.39C142.67 317.39 142.19 317.18 141.88 316.77C141.34 316.07 141.47 315.06 142.17 314.53C144.14 313.02 146.13 311.51 148.13 310.01C148.84 309.48 149.84 309.62 150.37 310.33C150.9 311.04 150.76 312.04 150.05 312.57C148.05 314.07 146.08 315.57 144.11 317.07C143.82 317.29 143.48 317.4 143.14 317.4L143.15 317.39ZM544 311.48C543.73 311.48 543.46 311.41 543.21 311.27C542.44 310.83 542.18 309.85 542.61 309.09C543.85 306.92 545.05 304.73 546.17 302.59C546.58 301.81 547.55 301.51 548.33 301.92C549.11 302.33 549.41 303.3 549 304.08C547.86 306.25 546.64 308.47 545.38 310.67C545.09 311.19 544.55 311.48 543.99 311.48H544ZM155.09 308.43C154.6 308.43 154.11 308.2 153.8 307.78C153.28 307.07 153.43 306.07 154.14 305.54C156.14 304.07 158.16 302.61 160.2 301.15C160.92 300.64 161.92 300.8 162.43 301.52C162.95 302.24 162.78 303.24 162.06 303.75C160.03 305.2 158.02 306.66 156.03 308.12C155.74 308.33 155.41 308.43 155.09 308.43ZM167.23 299.73C166.73 299.73 166.23 299.49 165.92 299.05C165.41 298.33 165.59 297.33 166.31 296.82C168.35 295.39 170.39 293.97 172.46 292.56C173.19 292.06 174.18 292.25 174.68 292.97C175.18 293.69 174.99 294.69 174.27 295.19C172.21 296.6 170.17 298.02 168.15 299.44C167.87 299.64 167.55 299.73 167.23 299.73ZM550.94 298.26C550.71 298.26 550.47 298.21 550.25 298.1C549.45 297.72 549.11 296.76 549.5 295.97C550.58 293.72 551.6 291.45 552.54 289.23C552.89 288.42 553.82 288.04 554.64 288.38C555.45 288.73 555.83 289.67 555.49 290.48C554.53 292.74 553.49 295.05 552.39 297.35C552.12 297.93 551.54 298.26 550.95 298.26H550.94ZM179.55 291.28C179.03 291.28 178.53 291.03 178.22 290.57C177.73 289.84 177.92 288.84 178.66 288.35C180.72 286.97 182.8 285.59 184.9 284.21C185.64 283.72 186.63 283.93 187.12 284.67C187.6 285.41 187.4 286.4 186.66 286.88C184.58 288.25 182.5 289.62 180.45 291C180.18 291.18 179.87 291.27 179.56 291.27L179.55 291.28ZM556.77 284.52C556.59 284.52 556.4 284.49 556.22 284.42C555.39 284.11 554.97 283.19 555.27 282.37C556.14 280.02 556.93 277.67 557.64 275.38C557.9 274.54 558.8 274.06 559.64 274.32C560.48 274.58 560.96 275.48 560.7 276.32C559.98 278.66 559.17 281.06 558.28 283.47C558.04 284.12 557.43 284.52 556.78 284.52H556.77ZM192.04 283.09C191.51 283.09 191 282.83 190.69 282.35C190.21 281.61 190.43 280.62 191.17 280.14C193.26 278.8 195.37 277.46 197.49 276.13C198.24 275.66 199.23 275.89 199.7 276.63C200.17 277.38 199.94 278.37 199.2 278.84C197.09 280.17 194.99 281.5 192.91 282.83C192.64 283 192.34 283.08 192.05 283.08L192.04 283.09ZM204.69 275.15C204.15 275.15 203.63 274.88 203.33 274.39C202.87 273.64 203.1 272.65 203.86 272.19C205.98 270.89 208.11 269.59 210.26 268.31C211.02 267.86 212 268.1 212.46 268.86C212.92 269.62 212.67 270.6 211.91 271.06C209.77 272.34 207.65 273.63 205.54 274.93C205.28 275.09 204.99 275.17 204.7 275.17L204.69 275.15ZM561.14 270.25C561.02 270.25 560.89 270.24 560.77 270.21C559.91 270 559.38 269.14 559.59 268.28C560.17 265.85 560.66 263.43 561.05 261.08C561.19 260.21 562.01 259.62 562.89 259.76C563.76 259.9 564.35 260.73 564.21 261.6C563.81 264.02 563.31 266.52 562.71 269.02C562.53 269.75 561.88 270.25 561.16 270.25H561.14ZM217.49 267.46C216.94 267.46 216.41 267.18 216.11 266.67C215.66 265.91 215.92 264.93 216.68 264.48C218.36 263.49 220.05 262.51 221.75 261.52L223.15 260.72C223.92 260.28 224.89 260.55 225.33 261.31C225.77 262.08 225.5 263.05 224.74 263.49L223.35 264.29C221.66 265.27 219.97 266.25 218.3 267.23C218.05 267.38 217.77 267.45 217.49 267.45V267.46ZM230.44 260.02C229.88 260.02 229.34 259.73 229.04 259.2C228.61 258.43 228.88 257.45 229.65 257.02C231.83 255.79 234.01 254.58 236.19 253.39C236.96 252.96 237.94 253.25 238.36 254.02C238.79 254.8 238.5 255.77 237.73 256.19C235.56 257.38 233.39 258.59 231.22 259.81C230.97 259.95 230.7 260.02 230.44 260.02ZM563.53 255.54C563.53 255.54 563.45 255.54 563.4 255.54C562.52 255.47 561.86 254.7 561.93 253.82C562.09 251.78 562.17 249.74 562.17 247.77C562.17 247.35 562.17 246.94 562.16 246.53C562.14 245.65 562.85 244.92 563.73 244.9C564.59 244.85 565.34 245.59 565.36 246.47C565.36 246.9 565.37 247.34 565.37 247.77C565.37 249.82 565.28 251.94 565.12 254.07C565.05 254.91 564.35 255.54 563.53 255.54ZM243.53 252.83C242.96 252.83 242.41 252.52 242.12 251.99C241.7 251.21 242 250.24 242.77 249.82C244.98 248.64 247.18 247.47 249.38 246.32C250.16 245.91 251.13 246.21 251.54 247C251.95 247.78 251.65 248.75 250.86 249.16C248.67 250.31 246.47 251.47 244.28 252.65C244.04 252.78 243.78 252.84 243.53 252.84V252.83ZM256.76 245.9C256.18 245.9 255.62 245.58 255.33 245.03C254.93 244.24 255.24 243.28 256.03 242.88C258.26 241.74 260.49 240.62 262.71 239.51C263.5 239.12 264.46 239.44 264.86 240.23C265.25 241.02 264.93 241.98 264.14 242.38C261.92 243.49 259.71 244.6 257.49 245.74C257.26 245.86 257.01 245.92 256.76 245.92V245.9ZM563.23 240.64C562.44 240.64 561.75 240.05 561.65 239.24C561.34 236.8 560.88 234.4 560.29 232.11C560.07 231.25 560.59 230.38 561.44 230.16C562.29 229.94 563.17 230.46 563.39 231.31C564.01 233.73 564.49 236.26 564.82 238.83C564.93 239.71 564.31 240.51 563.44 240.62C563.37 240.62 563.3 240.63 563.23 240.63V240.64ZM270.13 239.24C269.54 239.24 268.97 238.91 268.69 238.34C268.3 237.55 268.63 236.59 269.43 236.2C271.68 235.11 273.93 234.03 276.18 232.96C276.98 232.58 277.93 232.92 278.31 233.72C278.69 234.52 278.35 235.47 277.55 235.85C275.31 236.91 273.07 237.98 270.83 239.07C270.6 239.18 270.37 239.23 270.13 239.23V239.24ZM283.63 232.86C283.02 232.86 282.45 232.51 282.18 231.93C281.81 231.13 282.16 230.18 282.96 229.81C285.24 228.76 287.51 227.73 289.77 226.72C290.58 226.36 291.52 226.72 291.88 227.53C292.24 228.34 291.88 229.28 291.07 229.64C288.81 230.65 286.55 231.68 284.29 232.72C284.07 232.82 283.85 232.87 283.62 232.87L283.63 232.86ZM297.26 226.76C296.64 226.76 296.05 226.4 295.79 225.8C295.44 224.99 295.81 224.05 296.62 223.7C298.92 222.7 301.21 221.72 303.5 220.75C304.31 220.41 305.25 220.79 305.6 221.6C305.95 222.41 305.56 223.35 304.75 223.7C302.47 224.66 300.19 225.64 297.9 226.63C297.69 226.72 297.48 226.76 297.26 226.76ZM559.51 226.23C558.88 226.23 558.28 225.85 558.03 225.23C557.12 222.99 556.05 220.8 554.86 218.73C554.83 218.68 554.81 218.64 554.79 218.59C554.76 218.54 554.73 218.5 554.7 218.45C553.49 216.38 552.12 214.37 550.62 212.48C550.07 211.79 550.19 210.78 550.88 210.23C551.57 209.68 552.58 209.8 553.13 210.49C554.72 212.5 556.18 214.63 557.46 216.83C557.49 216.88 557.52 216.93 557.54 216.98C557.58 217.03 557.61 217.08 557.64 217.13C558.91 219.34 560.05 221.66 561.01 224.03C561.34 224.85 560.95 225.78 560.13 226.11C559.93 226.19 559.73 226.23 559.53 226.23H559.51ZM311.02 220.96C310.39 220.96 309.79 220.58 309.54 219.96C309.21 219.14 309.6 218.21 310.42 217.87C312.74 216.92 315.06 215.99 317.37 215.08C318.19 214.76 319.12 215.16 319.45 215.98C319.77 216.8 319.37 217.73 318.55 218.06C316.25 218.97 313.95 219.89 311.64 220.84C311.44 220.92 311.24 220.96 311.04 220.96H311.02ZM324.91 215.47C324.27 215.47 323.66 215.08 323.41 214.44C323.09 213.61 323.51 212.69 324.33 212.37C326.67 211.48 329.01 210.6 331.34 209.74C332.17 209.43 333.09 209.86 333.39 210.69C333.7 211.52 333.27 212.44 332.44 212.74C330.12 213.59 327.8 214.47 325.47 215.36C325.28 215.43 325.09 215.47 324.9 215.47H324.91ZM338.92 210.31C338.26 210.31 337.64 209.9 337.41 209.24C337.12 208.41 337.55 207.49 338.38 207.2C340.75 206.36 343.1 205.54 345.45 204.74C346.29 204.45 347.2 204.9 347.48 205.74C347.76 206.58 347.32 207.49 346.48 207.77C344.14 208.57 341.8 209.38 339.44 210.21C339.26 210.27 339.08 210.3 338.91 210.3L338.92 210.31ZM546.85 207.55C546.45 207.55 546.05 207.4 545.74 207.1C544.04 205.45 542.18 203.87 540.22 202.39C539.51 201.86 539.37 200.85 539.91 200.15C540.44 199.45 541.44 199.3 542.15 199.84C544.22 201.4 546.18 203.07 547.97 204.81C548.6 205.42 548.62 206.44 548.01 207.07C547.7 207.39 547.28 207.56 546.86 207.56L546.85 207.55ZM353.06 205.5C352.39 205.5 351.76 205.07 351.54 204.4C351.27 203.56 351.73 202.66 352.56 202.38C354.95 201.6 357.33 200.84 359.7 200.11C360.54 199.85 361.44 200.32 361.7 201.16C361.96 202 361.49 202.9 360.65 203.16C358.3 203.89 355.93 204.64 353.56 205.42C353.4 205.47 353.23 205.5 353.06 205.5ZM367.32 201.06C366.63 201.06 365.99 200.61 365.79 199.91C365.54 199.06 366.02 198.17 366.87 197.92C369.28 197.21 371.68 196.51 374.07 195.84C374.92 195.6 375.8 196.1 376.04 196.95C376.28 197.8 375.78 198.68 374.93 198.92C372.56 199.58 370.17 200.27 367.78 200.98C367.63 201.02 367.48 201.05 367.33 201.05L367.32 201.06ZM534.97 198.55C534.69 198.55 534.41 198.48 534.15 198.32C532.12 197.11 529.94 195.96 527.69 194.9C526.89 194.52 526.55 193.57 526.92 192.77C527.3 191.97 528.25 191.63 529.05 192.01C531.39 193.11 533.66 194.31 535.78 195.58C536.54 196.03 536.79 197.01 536.34 197.77C536.04 198.27 535.51 198.55 534.96 198.55H534.97ZM381.7 197.02C380.99 197.02 380.34 196.55 380.15 195.83C379.92 194.98 380.43 194.1 381.29 193.87C383.72 193.23 386.14 192.61 388.55 192.01C389.41 191.8 390.27 192.32 390.49 193.18C390.7 194.04 390.18 194.91 389.32 195.12C386.93 195.71 384.53 196.33 382.11 196.97C381.97 197.01 381.84 197.02 381.7 197.02ZM396.2 193.43C395.47 193.43 394.81 192.93 394.64 192.19C394.44 191.33 394.98 190.47 395.84 190.27C398.3 189.7 400.73 189.16 403.16 188.65C404.02 188.47 404.87 189.02 405.06 189.88C405.24 190.74 404.69 191.59 403.83 191.78C401.43 192.29 399 192.83 396.57 193.39C396.45 193.42 396.33 193.43 396.21 193.43H396.2ZM521.51 192.16C521.32 192.16 521.13 192.13 520.95 192.06C518.72 191.23 516.38 190.45 513.98 189.75C513.13 189.5 512.65 188.61 512.89 187.76C513.14 186.91 514.03 186.43 514.88 186.68C517.35 187.4 519.77 188.21 522.07 189.07C522.9 189.38 523.32 190.3 523.01 191.13C522.77 191.77 522.16 192.17 521.51 192.17V192.16ZM410.81 190.32C410.06 190.32 409.39 189.79 409.24 189.02C409.07 188.15 409.64 187.31 410.51 187.14C412.95 186.67 415.43 186.21 417.88 185.78C418.75 185.63 419.58 186.21 419.73 187.08C419.88 187.95 419.3 188.78 418.43 188.93C416 189.35 413.54 189.81 411.12 190.28C411.02 190.3 410.91 190.31 410.81 190.31V190.32ZM507.2 187.94C507.08 187.94 506.96 187.93 506.85 187.9C504.51 187.37 502.08 186.89 499.61 186.48C498.74 186.33 498.15 185.51 498.3 184.64C498.45 183.77 499.27 183.18 500.14 183.33C502.66 183.76 505.16 184.25 507.55 184.79C508.41 184.99 508.95 185.84 508.76 186.7C508.59 187.44 507.93 187.95 507.2 187.95V187.94ZM425.52 187.76C424.74 187.76 424.06 187.19 423.94 186.4C423.81 185.53 424.4 184.71 425.28 184.58C427.75 184.2 430.25 183.84 432.71 183.52C433.59 183.41 434.39 184.02 434.51 184.9C434.63 185.78 434.01 186.58 433.13 186.7C430.69 187.02 428.22 187.38 425.77 187.75C425.69 187.76 425.61 187.77 425.52 187.77V187.76ZM440.33 185.81C439.52 185.81 438.83 185.2 438.74 184.38C438.64 183.5 439.28 182.71 440.16 182.62C442.65 182.35 445.16 182.11 447.63 181.9C448.51 181.82 449.28 182.48 449.36 183.36C449.43 184.24 448.78 185.01 447.9 185.09C445.46 185.3 442.97 185.54 440.51 185.8C440.45 185.8 440.39 185.8 440.34 185.8L440.33 185.81ZM492.49 185.44C492.43 185.44 492.36 185.44 492.3 185.43C489.92 185.14 487.44 184.9 484.94 184.71C484.06 184.64 483.4 183.87 483.47 182.99C483.54 182.11 484.31 181.45 485.19 181.52C487.74 181.71 490.26 181.96 492.69 182.25C493.57 182.36 494.19 183.15 494.09 184.03C493.99 184.84 493.3 185.44 492.5 185.44H492.49ZM455.21 184.56C454.37 184.56 453.66 183.9 453.61 183.05C453.56 182.17 454.23 181.41 455.12 181.36C457.63 181.22 460.16 181.11 462.62 181.03H462.67C463.53 181.03 464.24 181.72 464.27 182.58C464.3 183.46 463.6 184.2 462.72 184.23C460.28 184.3 457.79 184.41 455.31 184.55C455.28 184.55 455.25 184.55 455.22 184.55L455.21 184.56ZM477.6 184.29C477.6 184.29 477.56 184.29 477.54 184.29C475.12 184.2 472.63 184.15 470.13 184.14C469.25 184.14 468.53 183.42 468.53 182.54C468.53 181.66 469.25 180.95 470.13 180.95C472.66 180.95 475.19 181.01 477.65 181.1C478.53 181.13 479.22 181.88 479.19 182.76C479.16 183.62 478.45 184.3 477.59 184.3L477.6 184.29Z" fill="#7ECAC8"/>
<path d="M1.42 471.34L1.93 472.26L2.85 472.76L1.93 473.26L1.42 474.18L0.92 473.26L0 472.76L0.92 472.26L1.42 471.34Z" fill="#FFC500"/>
<path d="M383.24 135.54C357.39 114.25 321.68 101.08 282.43 101.21C220.74 101.42 167.96 135.4 148.82 181.42C143.84 193.38 141.14 206.15 141.14 219.35V358.96C141.14 377.67 148.14 395.87 161.27 409.19C163.93 411.89 166.83 414.41 169.99 416.72C181.07 424.83 194.17 429.73 207.72 431.72C228.2 434.73 247.47 426.47 267.15 422.22C267.82 422.08 268.41 422.16 268.91 422.39L349.91 401.15L370.72 395.7C403.01 387.23 424.94 362.53 424.94 334.62V218.08C424.94 185.94 408.98 156.72 383.26 135.54H383.24Z" fill="#FFC8AF"/>
<path d="M156.15 298.48L109.73 287.48L150.61 339.09L156.15 298.48Z" fill="#FFC8AF"/>
<path d="M141.13 349.4C156.76 348.09 171.9 341.5 183.52 330.96" stroke="#1D2D51" stroke-width="5.54" stroke-linecap="round" stroke-linejoin="round"/>
<path opacity="0.51" d="M238.43 357.65C259.041 357.65 275.75 340.941 275.75 320.33C275.75 299.719 259.041 283.01 238.43 283.01C217.819 283.01 201.11 299.719 201.11 320.33C201.11 340.941 217.819 357.65 238.43 357.65Z" fill="#FF9D80"/>
<path d="M347.33 111.15H344.92C334.13 97.7101 316.76 94.7001 299.71 92.2401C277.15 88.9701 254.34 87.5201 231.56 87.8901C210.86 88.2301 189.79 90.0401 169.74 84.8901C154.64 81.0001 140.24 70.2701 125.31 74.7701C104.29 81.1101 86.58 98.8101 82.22 120.33C77.86 141.85 88.26 166.08 107.82 176.04C120.34 182.43 134.62 182.77 148.82 181.42C167.96 135.39 220.74 101.42 282.43 101.21C305.75 101.13 327.83 105.75 347.32 113.98V111.16L347.33 111.15Z" fill="#773F19"/>
<path d="M424.93 218.08V334.62C424.93 362.53 403 387.23 370.71 395.7L349.9 401.15C337.64 392.96 327.7 381.26 322.03 367.65C322.73 368.44 323.44 365.52 323.32 366.57C343.28 376.3 369.39 367.28 381.74 348.82C394.09 330.36 393.48 305.03 383.16 285.37C380.7 280.68 377.64 276.16 373.32 273.09C361.43 264.64 343.78 270.5 334.54 281.78C325.29 293.08 317.88 310.8 315.2 325.15V222.06C290.31 229.58 263.93 224.54 245.26 206.45C233.21 219.31 213.12 220.06 195.7 217.47C189.24 216.51 182.59 215.11 177.35 211.21C167.43 203.83 165.51 191.77 164.32 179.46C159.22 180.2 154.03 180.92 148.82 181.42C167.96 135.39 220.74 101.42 282.43 101.21C321.68 101.08 357.39 114.25 383.24 135.54C408.96 156.72 424.92 185.95 424.92 218.08H424.93Z" fill="#773F19"/>
<path d="M165.53 171.05L166.64 169.94C154.62 188.38 130.56 195.96 108.56 195.11C-7.39999 190.63 20.16 50.8901 103.41 50.2401C137.82 49.9701 158.17 80.2601 187.6 92.4901C209.44 101.57 233.85 101.43 257.51 101.16" fill="#773F19"/>
<path d="M231.5 101.5C267 158 356 191.5 424.52 213.26C425.3 207.34 425.71 201.31 425.71 195.17C425.71 122.51 369.37 63.6101 299.87 63.6101C272.97 63.6101 248.05 72.4401 227.6 87.4601C233 98 224.779 90.8028 231.5 101.5Z" fill="#718CD1"/>
<path d="M143.82 16C178.66 80.95 266.46 122.71 334.03 145.19" stroke="#718CD1" stroke-width="31.04" stroke-linecap="round" stroke-linejoin="round"/>
<path d="M263.47 394.42C274.08 420.57 274.49 450.72 264.58 477.15C258.54 493.25 248.94 507.78 242.01 523.52C234.74 540.06 230.48 557.91 229.5 575.95H437.32C430.45 533.06 412.94 491.93 384.56 459.04C360.38 431.02 328.14 406 321.6 369.58C306.72 384.57 277.49 378.63 263.47 394.42Z" fill="#FFC8AF"/>
<path d="M188.03 292.6C188.03 297.9 183.74 302.19 178.44 302.19C173.14 302.19 168.85 297.9 168.85 292.6C168.85 287.3 173.14 283.01 178.44 283.01C183.74 283.01 188.03 287.3 188.03 292.6Z" fill="#17253F"/>
<path d="M202.43 277.16C193.35 268.55 181.9 262.47 169.68 259.77" stroke="#1D2D51" stroke-width="5.54" stroke-linecap="round" stroke-linejoin="round"/>
<path d="M360.44 79.6101C359.26 81.4901 358.11 83.3801 356.97 85.2801" stroke="#FFEEE6" stroke-width="2.22" stroke-linecap="round" stroke-linejoin="round"/>
<path d="M351.04 95.6001C340.5 114.7 331.79 134.8 325.07 155.54" stroke="#FFEEE6" stroke-width="2.22" stroke-linecap="round" stroke-linejoin="round"/>
<path d="M323.28 161.22C322.63 163.34 322.01 165.47 321.4 167.6" stroke="#FFEEE6" stroke-width="2.22" stroke-linecap="round" stroke-linejoin="round"/>
<path d="M391.71 195.44C394.8 158.49 382.41 109.49 360.44 79.6101" stroke="#FFEEE6" stroke-width="2.22" stroke-linecap="round" stroke-linejoin="round"/>
<path d="M250.72 116.64C256.58 108.65 264.87 102.82 273.23 97.5101C285.77 89.5601 298.97 82.4001 313.23 78.2401C327.49 74.0801 342.93 73.0601 357.16 77.3201" stroke="#FFEEE6" stroke-width="2.22" stroke-linecap="round" stroke-linejoin="round"/>
<path d="M381.62 77.9481C383.466 70.1614 378.651 62.3522 370.864 60.5058C363.078 58.6594 355.268 63.4749 353.422 71.2616C351.576 79.0483 356.391 86.8574 364.178 88.7039C371.964 90.5503 379.774 85.7348 381.62 77.9481Z" fill="#4D6CAA"/>
<path d="M384.56 459.04C377.15 452.49 371.06 444.27 364.09 436.94C356.95 443.74 349.04 449.69 340.4 454.65C317.22 467.96 291.4 474.25 264.82 476.44C264.73 476.67 264.66 476.91 264.57 477.15C258.53 493.25 248.93 507.78 242 523.52C234.73 540.06 218.8 591.17 218.8 633.65H442.65C448.02 589.25 420.68 490.97 384.55 459.04H384.56Z" fill="#718CD1"/>
<path d="M293.206 591.249C289.536 564.969 286.886 526.399 315.936 512.839C347.506 498.099 382.376 528.739 396.176 555.029C404.926 571.709 408.436 590.559 411.836 609.089" stroke="#1D2D51" stroke-width="3.33" stroke-linecap="round" stroke-linejoin="round"/>
<path d="M144.58 131.2C141.37 148.76 148.53 167.83 162.51 178.93C176.49 190.03 196.69 192.69 213.06 185.59" stroke="#A05E1D" stroke-width="5.54" stroke-linecap="round" stroke-linejoin="round"/>
<path d="M371.55 329.41C371.55 329.41 372.26 303.01 344.71 301.54" stroke="#17253F" stroke-width="3.64" stroke-linecap="round" stroke-linejoin="round"/>
<path d="M363.19 311.57C363.19 311.57 356.49 334.77 338.21 333.95" stroke="#17253F" stroke-width="3.64" stroke-linecap="round" stroke-linejoin="round"/>
<path d="M242.35 536.89C241.7 536.89 241.09 536.49 240.85 535.85C240.54 535.02 240.96 534.1 241.78 533.79C244.09 532.92 246.41 532.03 248.73 531.12C249.55 530.8 250.48 531.21 250.8 532.03C251.12 532.85 250.71 533.78 249.89 534.1C247.55 535.01 245.23 535.9 242.9 536.78C242.71 536.85 242.52 536.88 242.34 536.88L242.35 536.89ZM256.26 531.47C255.63 531.47 255.03 531.09 254.78 530.47C254.45 529.65 254.85 528.72 255.67 528.39C257.96 527.47 260.26 526.53 262.57 525.57C263.38 525.23 264.32 525.62 264.66 526.43C265 527.25 264.61 528.18 263.79 528.52C261.48 529.48 259.17 530.42 256.86 531.35C256.66 531.43 256.46 531.47 256.26 531.47ZM270.05 525.75C269.43 525.75 268.84 525.39 268.58 524.78C268.23 523.97 268.61 523.03 269.42 522.68C271.69 521.71 273.97 520.72 276.26 519.72C277.07 519.36 278.01 519.73 278.37 520.54C278.73 521.35 278.36 522.29 277.55 522.65C275.26 523.66 272.97 524.65 270.68 525.62C270.48 525.71 270.26 525.75 270.05 525.75ZM283.73 519.75C283.12 519.75 282.54 519.4 282.27 518.81C281.91 518 282.27 517.06 283.07 516.69C285.33 515.67 287.58 514.64 289.85 513.6C290.65 513.23 291.6 513.58 291.97 514.38C292.34 515.18 291.99 516.13 291.19 516.5C288.92 517.55 286.65 518.59 284.38 519.61C284.17 519.71 283.94 519.75 283.72 519.75H283.73ZM297.28 513.48C296.68 513.48 296.11 513.14 295.83 512.56C295.45 511.76 295.79 510.81 296.59 510.43C298.83 509.37 301.06 508.29 303.3 507.2C304.09 506.81 305.05 507.14 305.44 507.94C305.83 508.74 305.5 509.69 304.7 510.08C302.45 511.18 300.2 512.25 297.96 513.32C297.74 513.43 297.51 513.48 297.28 513.48ZM310.71 506.95C310.12 506.95 309.56 506.62 309.28 506.06C308.89 505.27 309.21 504.31 310 503.91C312.22 502.81 314.43 501.69 316.65 500.56C317.44 500.16 318.4 500.47 318.8 501.26C319.2 502.05 318.89 503.01 318.1 503.41C315.87 504.55 313.64 505.67 311.42 506.78C311.19 506.89 310.95 506.95 310.71 506.95ZM324.01 500.17C323.43 500.17 322.88 499.86 322.59 499.31C322.18 498.53 322.49 497.56 323.27 497.15C325.47 496.01 327.66 494.85 329.86 493.67C330.64 493.25 331.61 493.55 332.02 494.33C332.44 495.11 332.14 496.08 331.36 496.5C329.15 497.68 326.95 498.84 324.74 499.99C324.5 500.11 324.25 500.17 324 500.17H324.01ZM337.18 493.14C336.61 493.14 336.06 492.84 335.77 492.31C335.35 491.53 335.63 490.56 336.41 490.14C338.58 488.96 340.76 487.76 342.94 486.55C343.71 486.12 344.69 486.4 345.12 487.17C345.55 487.94 345.27 488.92 344.5 489.35C342.32 490.57 340.13 491.77 337.95 492.96C337.71 493.09 337.44 493.16 337.19 493.16L337.18 493.14ZM350.22 485.88C349.66 485.88 349.12 485.59 348.83 485.07C348.39 484.3 348.66 483.32 349.43 482.89L351.88 481.49C353.22 480.72 354.56 479.95 355.89 479.17C356.65 478.72 357.63 478.98 358.08 479.75C358.52 480.51 358.27 481.49 357.5 481.94C356.16 482.72 354.82 483.49 353.47 484.27L351.02 485.67C350.77 485.81 350.5 485.88 350.23 485.88H350.22ZM363.13 478.38C362.58 478.38 362.05 478.1 361.75 477.59C361.3 476.83 361.55 475.85 362.31 475.4C364.45 474.13 366.58 472.85 368.7 471.57C369.46 471.11 370.44 471.35 370.9 472.11C371.36 472.87 371.12 473.85 370.36 474.31C368.23 475.6 366.09 476.88 363.94 478.15C363.68 478.3 363.4 478.37 363.13 478.37V478.38ZM375.91 470.65C375.37 470.65 374.85 470.38 374.55 469.89C374.09 469.14 374.32 468.15 375.07 467.69C377.19 466.38 379.3 465.07 381.39 463.75C382.14 463.28 383.13 463.5 383.6 464.25C384.07 465 383.85 465.99 383.1 466.46C381 467.79 378.88 469.11 376.75 470.42C376.49 470.58 376.2 470.66 375.91 470.66V470.65Z" fill="#7ECAC8"/>
<path d="M242.58 107.27C247.86 93.8799 260.91 84.3999 276.17 84.3999C288.99 84.3999 300.24 91.0799 306.64 101.15C313.83 98.4699 321.65 96.9899 329.83 96.9899C365.14 96.9899 393.77 124.43 393.77 158.28C393.77 159.41 393.74 160.54 393.67 161.65C406.32 165.1 415.63 176.67 415.63 190.41C415.63 197.45 413.19 203.91 409.11 209.01C410.76 214.56 411.65 220.44 411.65 226.52C411.65 260.37 384.21 287.81 350.36 287.81C328.36 287.81 309.07 276.22 298.26 258.81C295.35 259.14 292.4 259.32 289.4 259.32H254.95C212.69 259.32 178.42 225.06 178.42 182.79C178.42 144.74 206.18 113.19 242.56 107.27H242.58Z" fill="white"/>
<mask id="mask0_200_29802" style="mask-type:luminance" maskUnits="userSpaceOnUse" x="178" y="84" width="238" height="204">
<path d="M242.58 107.27C247.86 93.8799 260.91 84.3999 276.17 84.3999C288.99 84.3999 300.24 91.0799 306.64 101.15C313.83 98.4699 321.65 96.9899 329.83 96.9899C365.14 96.9899 393.77 124.43 393.77 158.28C393.77 159.41 393.74 160.54 393.67 161.65C406.32 165.1 415.63 176.67 415.63 190.41C415.63 197.45 413.19 203.91 409.11 209.01C410.76 214.56 411.65 220.44 411.65 226.52C411.65 260.37 384.21 287.81 350.36 287.81C328.36 287.81 309.07 276.22 298.26 258.81C295.35 259.14 292.4 259.32 289.4 259.32H254.95C212.69 259.32 178.42 225.06 178.42 182.79C178.42 144.74 206.18 113.19 242.56 107.27H242.58Z" fill="white"/>
</mask>
<g mask="url(#mask0_200_29802)">
<path d="M270.89 140.08C274.35 132.35 282.89 126.87 292.88 126.87C301.27 126.87 308.63 130.73 312.83 136.54C317.54 134.99 322.66 134.14 328.01 134.14C351.12 134.14 369.86 149.99 369.86 169.54C369.86 170.19 369.84 170.84 369.8 171.49C378.08 173.48 384.17 180.16 384.17 188.1C384.17 192.16 382.57 195.9 379.9 198.84C380.98 202.05 381.56 205.44 381.56 208.95C381.56 228.5 363.6 244.35 341.45 244.35C327.05 244.35 314.43 237.65 307.35 227.6C305.45 227.79 303.51 227.9 301.55 227.9H279C251.34 227.9 228.91 208.11 228.91 183.7C228.91 161.73 247.08 143.5 270.89 140.08Z" fill="#F77279"/>
<path d="M288.05 265.5C286.26 257.28 291.63 249.32 297.13 242.95C302.63 236.58 308.88 229.81 309.3 221.41" stroke="#F77279" stroke-width="6.74" stroke-linecap="round" stroke-linejoin="round"/>
<path d="M253.62 170.31C249.88 177.5 249.29 186.26 252.02 193.9C254.75 201.53 260.77 207.93 268.22 211.11" stroke="#F9ACB4" stroke-width="4.81" stroke-linecap="round" stroke-linejoin="round"/>
<path d="M248.62 161.24C250.58 167.75 257.24 172.51 264.04 172.26" stroke="#F9ACB4" stroke-width="4.81" stroke-linecap="round" stroke-linejoin="round"/>
<path d="M286.86 200.9C291.14 206.78 297.5 211.11 304.53 212.97C311.56 214.82 319.23 214.17 325.85 211.17" stroke="#F9ACB4" stroke-width="4.81" stroke-linecap="round" stroke-linejoin="round"/>
<path d="M367.75 207.19C368.13 214.81 363.95 222.26 357.81 226.79C351.67 231.32 343.8 233.12 336.18 232.82C335.71 232.8 335.06 232.46 335.32 232.07" stroke="#F9ACB4" stroke-width="4.81" stroke-linecap="round" stroke-linejoin="round"/>
<path d="M348.02 161.01C359.7 166.29 367.46 179.21 366.62 192" stroke="#F9ACB4" stroke-width="4.81" stroke-linecap="round" stroke-linejoin="round"/>
<path d="M289.04 162.7C291.95 170.21 297.57 176.64 304.63 180.51C311.69 184.39 320.13 185.68 328.03 184.09" stroke="#F9ACB4" stroke-width="4.81" stroke-linecap="round" stroke-linejoin="round"/>
<path d="M316.81 200.9L313.35 183.84" stroke="#F9ACB4" stroke-width="4.81" stroke-linecap="round" stroke-linejoin="round"/>
<path d="M300.2 148.76C312.05 146.99 324.67 151.72 332.43 160.85" stroke="#F9ACB4" stroke-width="4.81" stroke-linecap="round" stroke-linejoin="round"/>
<path d="M363.75 179.63C358.58 182.98 353.28 186.13 347.87 189.06" stroke="#F9ACB4" stroke-width="4.81" stroke-linecap="round" stroke-linejoin="round"/>
<path d="M271.26 217.87C275.115 217.87 278.24 214.745 278.24 210.89C278.24 207.035 275.115 203.91 271.26 203.91C267.405 203.91 264.28 207.035 264.28 210.89C264.28 214.745 267.405 217.87 271.26 217.87Z" fill="#F9ACB4"/>
<path d="M268.37 179.35C272.225 179.35 275.35 176.225 275.35 172.37C275.35 168.515 272.225 165.39 268.37 165.39C264.515 165.39 261.39 168.515 261.39 172.37C261.39 176.225 264.515 179.35 268.37 179.35Z" fill="#F9ACB4"/>
<path d="M288.59 205.35C292.445 205.35 295.57 202.225 295.57 198.37C295.57 194.515 292.445 191.39 288.59 191.39C284.735 191.39 281.61 194.515 281.61 198.37C281.61 202.225 284.735 205.35 288.59 205.35Z" fill="#F9ACB4"/>
<path d="M328.07 217.87C331.925 217.87 335.05 214.745 335.05 210.89C335.05 207.035 331.925 203.91 328.07 203.91C324.215 203.91 321.09 207.035 321.09 210.89C321.09 214.745 324.215 217.87 328.07 217.87Z" fill="#F9ACB4"/>
<path d="M333.85 235.2C337.705 235.2 340.83 232.075 340.83 228.22C340.83 224.365 337.705 221.24 333.85 221.24C329.995 221.24 326.87 224.365 326.87 228.22C326.87 232.075 329.995 235.2 333.85 235.2Z" fill="#F9ACB4"/>
<path d="M364.66 214.98C368.515 214.98 371.64 211.855 371.64 208C371.64 204.145 368.515 201.02 364.66 201.02C360.805 201.02 357.68 204.145 357.68 208C357.68 211.855 360.805 214.98 364.66 214.98Z" fill="#F9ACB4"/>
<path d="M339.87 182C339.87 185.86 336.74 188.98 332.89 188.98C329.04 188.98 325.91 185.85 325.91 182C325.91 178.15 329.04 175.02 332.89 175.02C336.74 175.02 339.87 178.15 339.87 182Z" fill="#F9ACB4"/>
<path d="M307.13 148.3C307.13 152.16 304 155.28 300.15 155.28C296.3 155.28 293.17 152.15 293.17 148.3C293.17 144.45 296.3 141.32 300.15 141.32C304 141.32 307.13 144.45 307.13 148.3Z" fill="#F9ACB4"/>
<path d="M335.05 117.94L338.24 126.89L346.82 122.82L342.74 131.39L351.69 134.58L342.74 137.76L346.82 146.34L338.24 142.26L335.05 151.21L331.87 142.26L323.29 146.34L327.37 137.76L318.42 134.58L327.37 131.39L323.29 122.82L331.87 126.89L335.05 117.94Z" fill="#FFCA0A"/>
<path d="M221.91 159.16L225.78 170.03L236.19 165.08L231.24 175.49L242.1 179.35L231.24 183.22L236.19 193.63L225.78 188.68L221.91 199.54L218.05 188.68L207.64 193.63L212.59 183.22L201.72 179.35L212.59 175.49L207.64 165.08L218.05 170.03L221.91 159.16Z" fill="#FFCA0A"/>
</g>
</svg>
