<svg width="238" height="204" viewBox="0 0 238 204" fill="none" xmlns="http://www.w3.org/2000/svg">
<path d="M64.58 23.2699C69.86 9.8799 82.91 0.399902 98.17 0.399902C110.99 0.399902 122.24 7.0799 128.64 17.1499C135.83 14.4699 143.65 12.9899 151.83 12.9899C187.14 12.9899 215.77 40.4299 215.77 74.2799C215.77 75.4099 215.74 76.5399 215.67 77.6499C228.32 81.0999 237.63 92.6699 237.63 106.41C237.63 113.45 235.19 119.91 231.11 125.01C232.76 130.56 233.65 136.44 233.65 142.52C233.65 176.37 206.21 203.81 172.36 203.81C150.36 203.81 131.07 192.22 120.26 174.81C117.35 175.14 114.4 175.32 111.4 175.32H76.95C34.69 175.32 0.419983 141.06 0.419983 98.7899C0.419983 60.7399 28.18 29.1899 64.56 23.2699H64.58Z" fill="white"/>
<mask id="mask0_200_32604" style="mask-type:luminance" maskUnits="userSpaceOnUse" x="0" y="0" width="238" height="204">
<path d="M64.58 23.2699C69.86 9.8799 82.91 0.399902 98.17 0.399902C110.99 0.399902 122.24 7.0799 128.64 17.1499C135.83 14.4699 143.65 12.9899 151.83 12.9899C187.14 12.9899 215.77 40.4299 215.77 74.2799C215.77 75.4099 215.74 76.5399 215.67 77.6499C228.32 81.0999 237.63 92.6699 237.63 106.41C237.63 113.45 235.19 119.91 231.11 125.01C232.76 130.56 233.65 136.44 233.65 142.52C233.65 176.37 206.21 203.81 172.36 203.81C150.36 203.81 131.07 192.22 120.26 174.81C117.35 175.14 114.4 175.32 111.4 175.32H76.95C34.69 175.32 0.419983 141.06 0.419983 98.7899C0.419983 60.7399 28.18 29.1899 64.56 23.2699H64.58Z" fill="white"/>
</mask>
<g mask="url(#mask0_200_32604)">
<path d="M92.89 56.0799C96.35 48.3499 104.89 42.8699 114.88 42.8699C123.27 42.8699 130.63 46.7299 134.83 52.5399C139.54 50.9899 144.66 50.1399 150.01 50.1399C173.12 50.1399 191.86 65.9899 191.86 85.5399C191.86 86.1899 191.84 86.8399 191.8 87.4899C200.08 89.4799 206.17 96.1599 206.17 104.1C206.17 108.16 204.57 111.9 201.9 114.84C202.98 118.05 203.56 121.44 203.56 124.95C203.56 144.5 185.6 160.35 163.45 160.35C149.05 160.35 136.43 153.65 129.35 143.6C127.45 143.79 125.51 143.9 123.55 143.9H101C73.34 143.9 50.91 124.11 50.91 99.6999C50.91 77.7299 69.08 59.4999 92.89 56.0799Z" fill="#F77279"/>
<path d="M110.05 181.5C108.26 173.28 113.63 165.32 119.13 158.95C124.63 152.58 130.88 145.81 131.3 137.41" stroke="#F77279" stroke-width="6.74" stroke-linecap="round" stroke-linejoin="round"/>
<path d="M75.62 86.3101C71.88 93.5001 71.29 102.26 74.02 109.9C76.75 117.53 82.77 123.93 90.22 127.11" stroke="#F9ACB4" stroke-width="4.81" stroke-linecap="round" stroke-linejoin="round"/>
<path d="M70.62 77.24C72.58 83.75 79.24 88.51 86.04 88.26" stroke="#F9ACB4" stroke-width="4.81" stroke-linecap="round" stroke-linejoin="round"/>
<path d="M108.86 116.9C113.14 122.78 119.5 127.11 126.53 128.97C133.56 130.82 141.23 130.17 147.85 127.17" stroke="#F9ACB4" stroke-width="4.81" stroke-linecap="round" stroke-linejoin="round"/>
<path d="M189.75 123.19C190.13 130.81 185.95 138.26 179.81 142.79C173.67 147.32 165.8 149.12 158.18 148.82C157.71 148.8 157.06 148.46 157.32 148.07" stroke="#F9ACB4" stroke-width="4.81" stroke-linecap="round" stroke-linejoin="round"/>
<path d="M170.02 77.01C181.7 82.29 189.46 95.21 188.62 108" stroke="#F9ACB4" stroke-width="4.81" stroke-linecap="round" stroke-linejoin="round"/>
<path d="M111.04 78.7C113.95 86.21 119.57 92.6399 126.63 96.5099C133.69 100.39 142.13 101.68 150.03 100.09" stroke="#F9ACB4" stroke-width="4.81" stroke-linecap="round" stroke-linejoin="round"/>
<path d="M138.81 116.9L135.35 99.8401" stroke="#F9ACB4" stroke-width="4.81" stroke-linecap="round" stroke-linejoin="round"/>
<path d="M122.2 64.76C134.05 62.99 146.67 67.72 154.43 76.85" stroke="#F9ACB4" stroke-width="4.81" stroke-linecap="round" stroke-linejoin="round"/>
<path d="M185.75 95.6301C180.58 98.9801 175.28 102.13 169.87 105.06" stroke="#F9ACB4" stroke-width="4.81" stroke-linecap="round" stroke-linejoin="round"/>
<path d="M93.26 133.87C97.1149 133.87 100.24 130.745 100.24 126.89C100.24 123.035 97.1149 119.91 93.26 119.91C89.405 119.91 86.28 123.035 86.28 126.89C86.28 130.745 89.405 133.87 93.26 133.87Z" fill="#F9ACB4"/>
<path d="M90.37 95.3499C94.2249 95.3499 97.35 92.2248 97.35 88.3699C97.35 84.5149 94.2249 81.3899 90.37 81.3899C86.515 81.3899 83.39 84.5149 83.39 88.3699C83.39 92.2248 86.515 95.3499 90.37 95.3499Z" fill="#F9ACB4"/>
<path d="M110.59 121.35C114.445 121.35 117.57 118.225 117.57 114.37C117.57 110.515 114.445 107.39 110.59 107.39C106.735 107.39 103.61 110.515 103.61 114.37C103.61 118.225 106.735 121.35 110.59 121.35Z" fill="#F9ACB4"/>
<path d="M150.07 133.87C153.925 133.87 157.05 130.745 157.05 126.89C157.05 123.035 153.925 119.91 150.07 119.91C146.215 119.91 143.09 123.035 143.09 126.89C143.09 130.745 146.215 133.87 150.07 133.87Z" fill="#F9ACB4"/>
<path d="M155.85 151.2C159.705 151.2 162.83 148.075 162.83 144.22C162.83 140.365 159.705 137.24 155.85 137.24C151.995 137.24 148.87 140.365 148.87 144.22C148.87 148.075 151.995 151.2 155.85 151.2Z" fill="#F9ACB4"/>
<path d="M186.66 130.98C190.515 130.98 193.64 127.855 193.64 124C193.64 120.145 190.515 117.02 186.66 117.02C182.805 117.02 179.68 120.145 179.68 124C179.68 127.855 182.805 130.98 186.66 130.98Z" fill="#F9ACB4"/>
<path d="M161.87 97.9998C161.87 101.86 158.74 104.98 154.89 104.98C151.04 104.98 147.91 101.85 147.91 97.9998C147.91 94.1498 151.04 91.0198 154.89 91.0198C158.74 91.0198 161.87 94.1498 161.87 97.9998Z" fill="#F9ACB4"/>
<path d="M129.13 64.2998C129.13 68.1598 126 71.2798 122.15 71.2798C118.3 71.2798 115.17 68.1498 115.17 64.2998C115.17 60.4498 118.3 57.3198 122.15 57.3198C126 57.3198 129.13 60.4498 129.13 64.2998Z" fill="#F9ACB4"/>
<path d="M157.05 33.9399L160.24 42.8899L168.82 38.8199L164.74 47.3899L173.69 50.5799L164.74 53.7599L168.82 62.3399L160.24 58.2599L157.05 67.2099L153.87 58.2599L145.29 62.3399L149.37 53.7599L140.42 50.5799L149.37 47.3899L145.29 38.8199L153.87 42.8899L157.05 33.9399Z" fill="#FFCA0A"/>
<path d="M43.91 75.1599L47.78 86.0299L58.19 81.0799L53.24 91.4899L64.1 95.3499L53.24 99.2199L58.19 109.63L47.78 104.68L43.91 115.54L40.05 104.68L29.64 109.63L34.59 99.2199L23.72 95.3499L34.59 91.4899L29.64 81.0799L40.05 86.0299L43.91 75.1599Z" fill="#FFCA0A"/>
</g>
</svg>
