<svg width="92" height="54" viewBox="0 0 92 54" fill="none" xmlns="http://www.w3.org/2000/svg">
<path d="M42.1248 3.82727C42.7434 4.03348 43.3424 4.2495 43.9512 4.47534C44.1083 3.77818 44.2556 3.07119 44.4127 2.37402C43.6468 2.85517 42.8907 3.34613 42.1248 3.82727Z" fill="#FFCA0A"/>
<path d="M88.6484 15.6597C87.8137 16.2685 86.9791 16.8773 86.1445 17.486C87.1559 17.8199 88.1574 18.1734 89.1492 18.5563C88.9822 17.5941 88.8153 16.622 88.6386 15.6597H88.6484Z" fill="#FFCA0A"/>
<path d="M26.63 3.2776C27.8574 3.6311 29.075 4.01405 30.2828 4.41664C29.7722 3.25796 29.2714 2.10911 28.7608 0.950439C28.0538 1.72616 27.337 2.50188 26.63 3.2776Z" fill="#FFCA0A"/>
<path d="M32.7768 11.4274C31.461 10.8088 30.1354 10.1901 28.8196 9.57153C29.4284 10.9659 30.0372 12.3602 30.646 13.7545C31.353 12.9788 32.0698 12.2031 32.7768 11.4274Z" fill="#FFCA0A"/>
<path d="M17.9497 13.303C16.4474 13.2048 14.945 13.0968 13.4427 12.9888C14.729 14.3635 15.9466 15.5025 16.5063 16.0917C16.9874 15.1588 17.4686 14.226 17.9497 13.2932V13.303Z" fill="#FFCA0A"/>
<path d="M59.22 12.3995C60.6831 13.3127 62.2051 11.6336 61.7043 10.3276C61.4686 10.3276 61.233 10.3276 60.9973 10.3375C59.7797 10.3669 59.1415 11.4667 59.22 12.3995Z" fill="#FFCA0A"/>
<path d="M90.3373 15.365C81.1563 11.8595 71.5138 10.151 61.7044 10.3277C62.2052 11.6337 60.6832 13.3128 59.2201 12.3996C59.279 13.1262 59.7503 13.7546 60.7126 13.7252C69.4125 13.4895 77.9356 14.7464 86.1543 17.4859C86.989 16.8772 87.8236 16.2684 88.6582 15.6596C88.8252 16.6219 88.9921 17.594 89.1688 18.5562C88.1673 18.1733 87.1657 17.8198 86.1641 17.4859C79.3103 22.5232 72.5056 27.6783 65.4455 32.4112C57.3937 37.8118 48.6939 41.4842 38.8157 40.1881C29.7034 38.9999 21.4847 34.2572 14.6407 28.3166C11.3316 25.4494 8.00288 22.2581 5.28295 18.8017C2.18988 14.874 7.61993 16.0131 9.86854 16.1604C12.4706 16.3371 15.0727 16.5138 17.6748 16.6808C19.079 16.779 20.1689 15.0017 19.1183 13.8823C17.4883 12.1541 14.9942 10.3179 13.8257 8.26567C11.8815 4.82893 15.8092 7.22483 17.4294 7.98091C22.1524 10.1902 26.8755 12.3996 31.6084 14.6089C33.0223 15.2668 34.289 13.5484 33.7391 12.2817C32.5903 9.66 31.4414 7.02844 30.2926 4.4067C29.0848 4.00411 27.8672 3.62116 26.6398 3.26767C27.3468 2.49195 28.0636 1.71623 28.7706 0.940507C29.2812 2.09918 29.782 3.24803 30.2926 4.4067C33.965 5.63411 37.549 7.06772 41.0643 8.72717C42.1837 9.25741 43.1362 8.24603 43.3522 7.27393C43.5584 6.33128 43.7646 5.39845 43.9708 4.4558C43.362 4.22996 42.7532 4.01393 42.1444 3.80773C42.9103 3.32659 43.6664 2.83562 44.4323 2.35448C44.2752 3.05165 44.1279 3.75863 43.9708 4.4558C49.3616 6.42947 54.4087 9.03157 59.1514 12.3308C59.1808 12.3505 59.2103 12.3603 59.2397 12.3799C59.171 11.4471 59.7994 10.3474 61.017 10.3179C61.2527 10.3179 61.4884 10.3179 61.724 10.3081C61.616 10.0331 61.4294 9.76802 61.1152 9.55199C55.6164 5.7323 49.6758 2.73743 43.3227 0.616472C42.1641 0.233521 41.2705 0.979784 41.0349 2.06972C40.8385 2.95345 40.6421 3.83719 40.4555 4.73074C41.0545 4.99586 41.6535 5.25116 42.2524 5.53592C41.4865 6.01706 40.7305 6.50802 39.9646 6.98917C40.1315 6.23308 40.2984 5.48682 40.4555 4.73074C36.3511 2.89454 32.1582 1.33328 27.828 0.0764127C26.4042 -0.335996 25.0786 0.989603 25.6972 2.40358C26.738 4.78965 27.7887 7.17573 28.8295 9.56181C30.1453 10.1804 31.4709 10.799 32.7867 11.4177C32.0797 12.1934 31.3629 12.9691 30.6559 13.7448C30.0471 12.3505 29.4383 10.9561 28.8295 9.56181C26.0409 8.25585 23.2522 6.94989 20.4635 5.65375C18.0578 4.53435 14.3559 1.84388 11.5378 2.80616C6.50054 4.53435 10.2122 9.51271 13.4526 12.9691C14.9549 13.0771 16.4573 13.1753 17.9596 13.2833C17.4785 14.2161 16.9973 15.149 16.5162 16.0818C15.9565 15.4926 14.7389 14.3536 13.4526 12.9789C11.4887 12.8414 9.52487 12.7138 7.56102 12.5861C5.86229 12.4879 3.90825 12.1934 2.39609 13.1753C-1.61999 15.7774 2.0426 20.3139 4.19301 22.7098C11.3316 30.6437 19.7369 37.8707 29.9195 41.4842C40.3573 45.1861 51.0701 44.3416 60.8206 39.157C71.504 33.4815 81.0974 25.3414 90.8479 18.2519C91.9182 17.4761 91.4665 15.7872 90.3373 15.3552V15.365Z" fill="#FFCA0A"/>
<path d="M42.2327 5.54566C41.6436 5.2609 41.0348 5.0056 40.4358 4.74048C40.2689 5.49656 40.1019 6.24282 39.9448 6.99891C40.7107 6.51776 41.4668 6.0268 42.2327 5.54566Z" fill="#FFCA0A"/>
<path d="M71.7691 17.6627C69.5893 17.4761 69.2947 20.8736 71.4745 21.0601C73.6544 21.2467 73.949 17.8492 71.7691 17.6627Z" fill="#FFCA0A"/>
<path d="M65.2294 45.9912C62.156 43.8113 59.4263 41.2779 57.0205 38.3714C55.6262 36.6825 53.0143 38.8722 54.4184 40.5611C57.0009 43.6837 59.9565 46.4331 63.2656 48.77C65.0625 50.0367 67.0165 47.2579 65.2294 45.9912Z" fill="#FFCA0A"/>
<path d="M54.8015 50.184C52.3957 47.9747 50.3926 45.3627 48.8412 42.4955C47.8003 40.571 44.7171 42.0242 45.7677 43.9586C47.6138 47.3757 49.9802 50.3509 52.8376 52.9727C54.4578 54.4554 56.402 51.6471 54.8015 50.1938V50.184Z" fill="#FFCA0A"/>
<path d="M26.6594 22.9455C23.7824 22.1796 21.3669 20.6674 19.4619 18.3697C18.0578 16.6808 15.4557 18.8705 16.8598 20.5594C19.1084 23.2695 22.0738 25.2236 25.4811 26.1368C27.5824 26.6965 28.7804 23.5052 26.6594 22.9455Z" fill="#FFCA0A"/>
</svg>
