<svg width="259" height="272" viewBox="0 0 259 272" fill="none" xmlns="http://www.w3.org/2000/svg">
<path d="M251.467 78.8431C238.737 63.4931 214.567 59.8231 195.817 60.3031C179.057 60.7331 162.677 65.0031 147.947 72.6931C153.207 60.9531 155.187 47.9031 151.827 35.0731C147.497 18.5331 133.537 4.02309 116.497 0.793088C86.8567 -4.81691 68.0767 20.3031 57.4267 45.6031C47.4967 10.1131 1.17673 -12.9069 -31.5733 8.63309C-61.0433 28.0131 -64.2133 72.8831 -42.3933 98.6431C-84.1933 97.0031 -133.323 121.913 -138.683 166.473C-141.873 192.913 -120.463 207.853 -97.1633 213.233C-74.5033 218.473 -50.6133 215.113 -30.2033 204.303C-31.0333 232.593 -23.5533 268.133 9.92673 271.033C49.3667 274.453 67.9167 235.613 78.3867 203.633C106.117 234.513 144.737 267.513 187.707 245.413C204.227 236.913 216.457 220.433 214.177 201.233C211.827 181.473 196.777 167.183 181.527 155.493C181.487 155.323 181.447 155.163 181.407 154.993C212.387 143.683 280.577 113.943 251.477 78.8431H251.467ZM84.8267 150.913C85.7467 151.033 86.6567 151.193 87.5567 151.363C86.9967 153.363 86.4867 155.393 86.0867 157.453C85.4867 155.223 85.0867 153.003 84.8267 150.913ZM128.457 75.0531C128.347 75.0931 128.247 75.1431 128.137 75.1931C128.217 75.0631 128.297 74.9331 128.377 74.8131C128.397 74.8931 128.427 74.9731 128.447 75.0631L128.457 75.0531ZM148.617 84.3131C149.507 84.9431 150.277 85.6231 150.927 86.3631C147.727 88.4331 144.897 90.6631 142.637 92.9831C140.007 95.6731 138.137 98.7731 137.057 102.013C137.037 102.073 137.017 102.133 136.997 102.183C136.967 102.263 136.947 102.343 136.927 102.433C135.717 101.383 134.567 100.283 133.457 99.1231C135.097 96.1631 136.347 93.0331 137.127 89.7331C140.237 87.3831 143.457 85.2131 146.777 83.2331C147.397 83.5431 148.017 83.8931 148.607 84.3031L148.617 84.3131ZM53.1967 192.513C52.8367 189.733 52.2767 186.963 51.5267 184.233C55.8667 180.233 59.9067 175.963 63.6367 171.473C61.5067 176.393 57.8767 184.423 53.1967 192.513ZM2.34674 241.793C1.87674 240.293 1.57672 238.713 1.42673 237.103C2.86673 237.783 4.39673 238.353 6.00673 238.803C4.83673 239.853 3.60674 240.853 2.33673 241.793H2.34674ZM-30.2733 186.603C-31.5833 184.513 -32.3433 182.163 -32.6333 179.703C-31.6033 177.373 -30.7933 174.883 -30.2533 172.233C-27.4933 170.963 -24.9033 169.393 -22.5733 167.433C-15.1733 170.343 -8.61327 166.733 -4.95326 160.893C-2.96326 161.623 -0.87326 162.143 1.21674 162.363C0.966736 163.243 0.746735 164.123 0.566742 165.013C-5.82326 171.833 -13.5733 177.923 -21.5933 182.583C-24.2933 184.153 -27.2233 185.513 -30.2733 186.603ZM-35.4733 72.9431C-37.9033 65.6031 -32.0633 58.3331 -25.9133 55.0931C-27.9533 63.3131 -29.3033 72.2831 -27.5933 80.4331C-31.1333 79.0931 -34.2833 76.5331 -35.4733 72.9431ZM127.567 91.7131C126.667 90.3431 125.827 88.9331 125.057 87.4831C126.427 86.4631 127.837 85.5331 129.277 84.7231C129.027 87.1731 128.437 89.5031 127.577 91.7131H127.567ZM55.3667 167.783C55.4567 167.013 55.5467 166.233 55.6067 165.453C55.8067 162.913 55.8067 159.923 55.5667 156.763C58.2267 155.373 60.9667 154.183 63.6867 153.223C63.8967 154.213 64.0967 155.193 64.2767 156.183C61.5367 160.203 58.5567 164.073 55.3667 167.773V167.783ZM12.9067 231.243C8.55673 230.923 4.89673 229.523 1.97673 227.283C2.67673 223.193 3.81673 219.203 4.83673 215.793C6.65674 209.703 8.96674 203.823 11.7067 198.163C12.3567 197.853 12.9967 197.543 13.6367 197.213C11.5367 204.743 10.2767 212.543 9.94673 220.503C9.88673 222.003 10.8067 223.493 12.0867 224.233C13.5067 225.053 14.9167 225.693 16.3067 226.203C15.2667 227.953 14.1267 229.633 12.9067 231.253V231.243ZM-2.00327 152.533C-1.59326 149.033 -2.14326 145.433 -3.91327 142.293C1.72673 139.723 7.10674 140.133 8.59674 147.443C8.61674 147.543 8.62674 147.643 8.63673 147.743C7.32674 149.483 6.11674 151.303 5.06674 153.173C2.84674 153.493 0.336731 153.243 -2.00327 152.543V152.533ZM-102.503 178.533C-103.063 170.833 -101.583 162.723 -98.5933 155.063C-95.1533 150.443 -91.5933 146.453 -88.7433 143.803C-95.0233 153.003 -98.9833 163.703 -100.403 175.053C-100.653 177.023 -98.8633 178.613 -97.2333 179.213C-92.8433 180.823 -88.2733 181.693 -83.6933 181.903C-85.2133 182.583 -86.7133 183.253 -88.1933 183.883C-90.6133 184.913 -93.2733 185.903 -95.9433 186.413C-99.5533 185.733 -102.143 183.483 -102.503 178.533ZM-71.4633 136.713C-70.7933 136.703 -70.1233 136.723 -69.4633 136.773C-73.6533 139.823 -77.4033 143.363 -80.6733 147.283C-77.9833 143.383 -74.8933 139.773 -71.4633 136.713ZM-74.5733 170.383C-78.6233 157.513 -67.6033 147.643 -55.9833 147.743C-55.9633 147.833 -55.9333 147.923 -55.9133 148.013C-59.4033 153.963 -61.6033 160.493 -62.3133 167.373C-66.2733 168.903 -70.3833 169.943 -74.5733 170.383ZM-83.2233 169.193C-83.1333 169.603 -83.0333 170.003 -82.9333 170.413C-83.1633 170.393 -83.4033 170.363 -83.6333 170.333C-83.5033 169.953 -83.3633 169.573 -83.2233 169.193ZM-49.7033 139.513C-50.1833 138.593 -50.7033 137.683 -51.2933 136.763C-49.3333 136.093 -47.3133 135.553 -45.2533 135.153C-46.8433 136.543 -48.3333 137.993 -49.7033 139.503V139.513ZM-54.1233 128.653C-55.2033 129.043 -56.2733 129.453 -57.3233 129.903C-57.7633 129.533 -58.2033 129.173 -58.6633 128.843C-58.0833 128.633 -57.5033 128.443 -56.9133 128.263C-55.9733 128.333 -55.0333 128.453 -54.1233 128.653ZM-14.1233 155.123C-13.5633 155.643 -12.9933 156.153 -12.3833 156.653C-13.2733 157.413 -14.3333 157.983 -15.4433 158.313C-14.9333 157.263 -14.4833 156.203 -14.1133 155.123H-14.1233ZM-13.4433 100.713C-13.7333 100.013 -13.9933 99.3131 -14.2133 98.5831C-13.6633 98.8731 -13.0933 99.1531 -12.5233 99.4031C-12.8333 99.8331 -13.1433 100.273 -13.4433 100.713ZM18.1667 39.2431C20.9867 46.4331 21.9667 55.0631 22.5067 60.8631C22.6367 62.2231 22.7367 63.6431 22.7967 65.1031C22.5667 64.8931 22.3267 64.6831 22.0867 64.4731C16.8767 52.9231 8.40672 42.7331 -1.57327 35.3131C4.71672 33.5131 12.0067 35.1131 18.1767 39.2431H18.1667ZM74.7267 82.4631C74.4067 84.1031 74.3767 85.8131 74.6367 87.5831C74.4067 88.3231 74.1867 89.0731 73.9667 89.8131C73.9667 89.7831 73.9467 89.7531 73.9367 89.7231C72.9167 86.7231 71.4067 84.4731 69.5567 82.8131C71.2667 82.5131 72.9967 82.3931 74.7167 82.4531L74.7267 82.4631ZM101.697 39.7031C101.467 39.9531 101.227 40.2031 101.007 40.4631C101.007 40.3731 101.017 40.2831 101.017 40.1931C101.237 40.0131 101.467 39.8531 101.697 39.6931V39.7031ZM140.437 222.433C133.847 221.363 126.217 217.273 123.887 210.653C124.217 210.603 124.547 210.573 124.867 210.503C129.557 215.223 134.887 219.263 140.627 222.463C140.557 222.453 140.497 222.453 140.427 222.443L140.437 222.433ZM107.887 132.473C107.887 132.473 107.967 132.393 108.007 132.353C106.947 134.133 106.077 136.043 105.467 138.073C104.347 141.783 103.757 145.323 105.237 148.363C105.227 148.373 105.217 148.393 105.207 148.403C104.747 148.143 104.267 147.913 103.787 147.673C103.407 141.913 104.417 136.543 107.897 132.473H107.887ZM74.0067 139.333C73.5467 140.293 73.0667 141.233 72.5867 142.183C71.6767 142.273 70.7767 142.403 69.8667 142.533C69.3967 140.943 68.8967 139.363 68.3467 137.793C68.2667 137.573 68.1567 137.373 68.0567 137.173C69.7267 136.213 71.3467 135.083 72.9067 133.853C73.4167 134.823 73.9767 135.743 74.5867 136.593C74.4067 137.503 74.1967 138.413 73.9967 139.323L74.0067 139.333ZM14.8667 69.7731C16.4567 73.7531 17.6267 77.8931 18.3067 82.1531C18.2467 82.2231 18.1867 82.2931 18.1267 82.3631C17.0867 81.3731 15.8867 80.4831 14.6067 79.8131C14.5767 77.0031 14.2267 74.2131 13.6267 71.6531C13.3767 70.5731 13.0467 69.5131 12.6867 68.4731C13.4367 68.8631 14.1667 69.2931 14.8667 69.7831V69.7731ZM0.146729 67.2731C0.986725 67.0031 1.81674 66.8131 2.65674 66.6931C4.29674 69.9131 5.36674 73.4331 5.79674 77.0031C5.90674 77.9531 5.95674 78.9231 5.95674 79.8831C4.79674 80.5631 3.66673 81.4531 2.55673 82.4531C0.296738 79.8331 -1.42326 76.2731 -2.65326 72.9331C-2.42326 71.4231 -2.31326 69.8631 -2.30327 68.2731C-1.52327 67.8931 -0.703278 67.5531 0.146729 67.2831V67.2731ZM-6.84326 84.0931C-5.83327 85.7731 -4.69327 87.3431 -3.44327 88.7631C-3.61327 88.9531 -3.78326 89.1431 -3.95326 89.3231C-3.95326 89.3231 -3.95328 89.3231 -3.96327 89.3231C-5.07327 87.6031 -6.04326 85.8431 -6.84326 84.1031V84.0931ZM-3.24327 59.4831C-3.30327 59.1931 -3.36325 58.9031 -3.43326 58.6131C-3.19325 58.8331 -2.96326 59.0631 -2.73326 59.2931C-2.90326 59.3531 -3.07327 59.4131 -3.24327 59.4731V59.4831ZM15.0067 98.5931C14.9367 98.9831 14.8567 99.3631 14.7567 99.7531C14.3667 101.213 13.7167 102.453 12.8867 103.523C10.6267 102.833 8.42674 101.703 6.34674 100.253C9.24673 100.143 12.1667 99.5931 15.0167 98.6031L15.0067 98.5931ZM6.98674 57.9731C3.49673 53.5031 -0.943268 49.8831 -5.82327 47.4931C-5.79327 47.1631 -5.74327 46.8331 -5.71327 46.5131C-5.27327 45.6731 -4.80327 44.8331 -4.31326 44.0131C0.716736 48.0431 5.12674 52.8231 8.70674 58.1531C8.12674 58.0631 7.54674 58.0131 6.97673 57.9731H6.98674ZM16.8767 116.903C18.2567 115.663 19.5167 114.253 20.6567 112.713C19.4067 116.613 18.4067 120.543 17.7767 124.473C17.6567 125.243 17.5767 126.013 17.5367 126.783C16.0567 125.623 14.4867 124.623 12.8267 123.803C14.0967 121.483 15.4467 119.173 16.8767 116.903ZM62.2367 89.5331C65.6067 91.4831 66.7167 94.2631 65.5167 98.7131C64.8767 101.083 63.6667 103.323 62.3167 105.343C60.0467 108.753 57.2667 111.783 54.1467 114.423C53.7467 113.793 53.3967 113.093 53.1067 112.263C54.5267 106.063 56.6667 100.013 59.5467 94.3431C60.3867 92.6931 61.2867 91.0931 62.2267 89.5231L62.2367 89.5331ZM217.307 99.8231C216.287 100.843 215.187 101.753 214.027 102.593C214.237 102.203 214.417 101.803 214.577 101.403C215.347 100.683 216.287 100.133 217.297 99.8131L217.307 99.8231ZM152.267 107.483C154.787 106.373 157.047 104.623 158.787 102.333C160.137 101.843 161.497 101.403 162.877 101.043C164.657 100.583 166.587 100.163 168.537 99.9631C165.547 103.173 162.697 106.523 159.967 109.973C157.437 110.663 154.877 111.153 152.297 111.463C151.637 111.223 150.987 110.963 150.337 110.693C150.867 109.603 151.527 108.523 152.267 107.473V107.483ZM175.017 113.383C175.087 113.643 175.187 113.883 175.267 114.143C174.567 114.223 173.857 114.283 173.157 114.333C173.777 114.023 174.397 113.713 175.017 113.393V113.383ZM200.787 94.9831C200.787 95.1831 200.777 95.3731 200.767 95.5631C200.577 95.7531 200.377 95.9431 200.187 96.1331C200.107 95.6131 199.997 95.1031 199.887 94.6031C200.017 94.5231 200.147 94.4431 200.277 94.3631C200.447 94.3431 200.597 94.3531 200.757 94.3431C200.767 94.5531 200.787 94.7531 200.787 94.9731V94.9831ZM176.887 91.7331C176.167 91.5431 175.427 91.3831 174.677 91.2631C175.977 90.8331 177.297 90.4731 178.597 90.2231C178.027 90.7231 177.447 91.2231 176.887 91.7331ZM163.997 212.313C162.417 214.283 160.677 216.023 158.787 217.503C158.197 216.943 157.617 216.373 157.057 215.783C164.047 212.203 168.717 204.173 169.527 195.683C169.577 195.173 169.587 194.673 169.617 194.163C169.657 194.273 169.717 194.383 169.757 194.493C170.397 196.273 170.827 198.023 171.047 199.743C169.297 204.313 166.977 208.573 163.997 212.303V212.313ZM18.4267 154.553C19.4767 152.703 20.0367 150.723 20.1867 148.703C20.4367 148.383 20.6867 148.063 20.9467 147.753C21.4767 149.763 21.8267 151.833 21.9967 153.893C21.2067 154.603 20.4167 155.313 19.6567 156.053C19.2467 155.553 18.8567 155.043 18.4267 154.563V154.553ZM37.2467 137.433C38.2767 137.603 39.2867 138.003 40.2567 138.673C40.8667 139.093 41.4167 139.663 41.9267 140.343C41.7167 144.273 41.1067 148.143 40.1067 151.913C39.9767 152.043 39.8467 152.183 39.7067 152.313C39.2967 151.043 38.8567 149.803 38.4067 148.593C37.4967 146.163 34.5667 144.323 32.0667 146.013C31.3167 146.513 30.5967 147.043 29.8667 147.573C29.3867 145.323 28.7367 143.123 27.8967 141.023C28.7167 140.503 29.5567 140.013 30.4167 139.553C32.7067 139.243 35.0267 138.453 37.2567 137.443L37.2467 137.433ZM105.627 80.6131C105.277 80.6831 104.957 80.6931 104.637 80.7231C104.927 79.4831 105.187 78.2331 105.427 76.9831C105.897 77.0031 106.367 77.0031 106.847 76.9831C107.297 76.9631 107.747 76.9331 108.197 76.8831C107.567 78.0931 106.897 79.2731 106.197 80.4531C106.007 80.5031 105.817 80.5631 105.617 80.6031L105.627 80.6131ZM18.5767 169.753C18.6867 169.963 18.8067 170.183 18.9267 170.393C16.0067 174.113 13.2767 177.983 10.7467 181.993C10.6667 181.803 10.5967 181.593 10.5167 181.393C12.8867 177.313 15.5767 173.413 18.5767 169.753ZM65.5867 128.553C64.0367 129.483 61.3467 130.893 58.7967 131.453C59.6267 130.043 60.5167 128.653 61.4367 127.293C64.2167 127.153 67.0867 126.443 69.9767 125.333C69.9767 125.373 69.9967 125.403 69.9967 125.443C68.5767 126.593 67.1167 127.643 65.5867 128.553ZM135.217 194.713C134.127 192.953 133.447 191.033 133.107 189.033C134.907 187.723 136.877 186.593 138.937 185.663C138.487 187.243 138.197 188.843 138.037 190.443C137.247 191.923 136.317 193.353 135.217 194.703V194.713ZM119.517 157.583C119.397 157.823 119.267 158.053 119.137 158.293C118.477 157.803 117.827 157.313 117.177 156.813C117.947 157.093 118.727 157.353 119.517 157.583ZM135.267 175.803C135.747 175.893 136.227 175.983 136.707 176.053C137.277 176.433 137.877 176.763 138.497 177.073C136.967 177.603 135.467 178.233 134.007 178.943C134.357 177.873 134.777 176.823 135.267 175.813V175.803ZM152.177 199.003C150.877 199.953 149.447 200.533 147.977 200.793C147.087 197.963 146.617 195.063 146.707 192.243C148.097 189.173 149.047 186.033 149.617 182.843C151.727 182.673 153.807 182.753 155.787 183.083C158.037 188.713 157.737 194.933 152.177 199.003ZM113.357 142.113C113.457 138.893 116.147 135.333 118.217 133.123C119.307 131.963 120.537 130.943 121.837 130.013C122.027 130.143 122.207 130.283 122.397 130.433C122.737 133.483 123.737 136.383 125.447 138.823C125.327 140.183 125.107 141.493 124.827 142.663C124.827 142.693 124.807 142.723 124.807 142.753C120.897 142.043 116.987 141.973 113.407 143.023C113.367 142.733 113.357 142.423 113.367 142.113H113.357ZM113.387 164.413C112.577 165.043 111.807 165.683 111.067 166.353C110.727 164.943 110.477 163.543 110.347 162.143C111.357 162.893 112.377 163.653 113.387 164.413ZM122.567 170.793C124.167 171.753 125.807 172.633 127.507 173.393C125.657 177.593 124.517 182.003 124.277 185.673C123.547 186.373 122.847 187.103 122.177 187.873C122.017 188.053 121.887 188.243 121.737 188.423C119.427 185.193 117.357 181.783 115.627 178.233C115.407 177.783 115.187 177.323 114.977 176.863C117.087 174.343 119.667 172.273 122.567 170.803V170.793ZM43.8167 112.363C43.0767 115.543 42.5767 118.793 42.4667 121.893C41.8567 122.183 41.2467 122.463 40.6267 122.723C39.4767 116.413 40.5767 110.003 43.2467 104.213C43.1167 107.023 43.2567 109.763 43.8167 112.363ZM137.767 136.273C136.747 134.523 135.717 132.813 134.667 131.163C134.527 130.933 134.377 130.723 134.227 130.493C133.937 128.623 133.427 126.843 132.647 125.213C134.867 124.693 137.127 124.373 139.347 124.313C140.427 124.283 141.487 124.313 142.517 124.403C143.487 126.133 144.767 127.693 146.277 129.093C144.827 131.223 143.057 133.713 141.217 136.433C140.027 136.493 138.857 136.443 137.767 136.263V136.273ZM124.887 117.073C124.807 117.233 124.737 117.393 124.657 117.543C124.487 117.473 124.337 117.383 124.167 117.313C122.127 116.463 120.157 116.033 118.257 115.923C118.737 115.563 119.217 115.193 119.697 114.813C121.407 115.653 123.147 116.403 124.887 117.073ZM32.8567 107.433C30.9667 114.273 30.8667 121.513 33.1867 128.533C31.8467 128.833 30.5267 129.303 29.2167 129.913C28.8467 129.753 28.4767 129.553 28.1067 129.273C24.8967 126.773 26.8667 123.243 27.9567 119.533C29.0967 115.653 30.4567 111.843 31.9867 108.103C32.2867 107.893 32.5667 107.663 32.8567 107.433ZM-4.55327 102.563C-4.41327 102.693 -4.30327 102.843 -4.16327 102.973C-1.91327 105.103 0.566727 106.963 3.17673 108.493C0.586731 108.863 -2.08327 108.803 -4.46327 108.413C-5.79327 108.193 -7.10327 107.873 -8.38327 107.503C-7.19327 105.813 -5.91327 104.163 -4.55327 102.563ZM20.2567 218.353C19.7667 218.213 19.2667 218.043 18.7767 217.843C19.2967 210.413 20.7067 203.153 22.9267 196.183C23.5567 196.073 24.1867 195.953 24.8067 195.783C24.7467 203.483 23.1867 211.203 20.2567 218.343V218.353ZM35.1167 191.923C34.9267 191.433 34.7667 190.943 34.6267 190.463C37.1667 188.203 39.0367 185.623 40.3367 182.813C40.4267 183.463 40.5367 184.113 40.6367 184.763C39.0567 187.313 37.2167 189.713 35.1267 191.923H35.1167ZM92.8867 109.963C92.8867 109.963 92.9067 109.933 92.9167 109.923C94.4967 108.493 95.9167 107.133 97.1167 105.943C97.5167 105.553 97.9167 105.123 98.3167 104.713C98.2267 106.643 97.8567 108.653 97.1367 110.723C95.9567 114.113 99.0067 116.253 101.807 115.953C101.827 117.173 101.917 118.383 102.077 119.563C102.077 119.573 102.077 119.583 102.087 119.603C101.847 119.963 101.617 120.323 101.367 120.683C98.6167 124.643 91.9067 134.033 85.7567 134.063C88.8367 126.273 91.2267 118.213 92.8767 109.983L92.8867 109.963ZM177.587 214.143C177.877 216.423 178.077 218.723 178.157 221.033C176.627 221.323 175.117 221.523 173.617 221.663C175.237 219.413 176.587 216.903 177.587 214.143ZM130.577 109.673C129.277 109.283 127.987 108.843 126.707 108.353C127.397 107.603 128.067 106.833 128.717 106.053C129.657 106.963 130.627 107.833 131.627 108.673C131.267 109.013 130.917 109.343 130.577 109.683V109.673ZM118.667 104.393C118.607 104.353 118.537 104.313 118.477 104.273C119.247 101.423 119.807 98.6131 120.227 95.8831C121.097 97.1831 121.997 98.4531 122.957 99.6731C121.657 101.333 120.217 102.913 118.667 104.383V104.393ZM80.0667 72.7731C79.6867 73.1731 79.3267 73.5731 78.9867 73.9831C77.5967 73.7831 76.1867 73.6731 74.7667 73.6531C77.3167 71.1531 80.0067 68.8031 82.8667 66.6431C81.8867 68.6431 80.9567 70.6931 80.0667 72.7631V72.7731ZM31.4767 66.3631C31.4767 66.0931 31.4767 65.8231 31.4767 65.5631C31.3867 62.3031 30.9967 58.2831 30.2767 53.9731C31.1367 55.7031 31.9467 57.5231 32.6767 59.4031C32.4067 61.7831 32.0067 64.1131 31.4767 66.3731V66.3631ZM-0.793259 131.963C-4.05325 132.513 -7.31326 134.003 -10.4133 135.843C-10.7433 135.643 -11.0833 135.443 -11.4233 135.263C-9.26326 133.913 -7.07327 132.763 -5.08327 131.873C-4.48326 131.603 -3.90327 131.373 -3.32327 131.173C-2.46327 131.393 -1.61327 131.643 -0.793259 131.963ZM-4.16327 191.753C-4.16327 192.063 -4.16327 192.373 -4.16327 192.673C-4.40327 193.313 -4.64326 193.953 -4.86327 194.603C-4.89326 194.603 -4.92326 194.613 -4.95326 194.623C-4.71326 193.653 -4.44325 192.703 -4.15326 191.753H-4.16327ZM25.6367 227.403C28.0567 227.183 30.4067 226.533 32.6967 225.563C30.1967 227.393 27.3867 228.833 24.3267 229.813C24.7767 229.013 25.2167 228.213 25.6367 227.403ZM29.6967 217.793C31.2867 213.043 32.3367 208.123 32.8667 203.133C34.2167 203.453 35.7067 203.093 36.9567 202.063C39.8967 199.643 42.4967 196.923 44.7767 193.983C45.2067 197.743 45.1867 201.563 44.5967 205.393C40.0567 211.123 35.0067 215.773 29.6867 217.793H29.6967ZM91.0167 141.643C90.8167 142.103 90.6367 142.553 90.4567 143.013C89.5667 142.833 88.6767 142.673 87.7867 142.533C88.8167 142.353 89.8967 142.073 91.0167 141.643ZM95.7067 153.653C95.8867 153.723 96.0667 153.793 96.2467 153.863C97.4467 160.403 99.7267 166.883 102.107 172.933C98.5067 173.323 95.5767 172.233 93.2067 170.233C93.2067 164.693 94.1567 159.043 95.6967 153.653H95.7067ZM109.567 198.273C109.017 195.073 109.017 192.003 109.477 189.123C111.407 192.713 113.497 196.193 115.837 199.533C115.627 200.353 115.457 201.173 115.337 201.983C113.487 201.573 111.667 200.903 109.927 200.043C109.797 199.463 109.677 198.873 109.567 198.263V198.273ZM115.777 210.813C115.997 211.673 116.277 212.513 116.587 213.343C115.827 212.483 115.107 211.563 114.437 210.593C114.877 210.673 115.327 210.753 115.767 210.813H115.777ZM144.417 148.043C144.997 147.063 145.597 146.093 146.207 145.123C149.497 144.563 152.867 143.583 156.197 142.333C152.427 144.683 148.457 146.633 144.407 148.043H144.417ZM185.177 125.643C185.617 125.283 186.047 124.903 186.477 124.523C187.427 124.753 188.387 124.903 189.357 124.993C189.377 125.083 189.397 125.173 189.427 125.253C187.707 126.043 185.917 126.693 184.067 127.193C184.447 126.673 184.817 126.163 185.177 125.633V125.643ZM211.357 113.973C211.447 113.933 211.537 113.903 211.617 113.863C216.557 113.173 221.367 111.233 225.337 108.373C225.327 110.133 224.997 111.863 224.417 113.223C221.937 119.083 211.597 125.843 204.117 125.503C207.317 122.213 209.777 118.253 211.357 113.963V113.973ZM211.437 88.0331C211.267 87.5331 211.097 87.0331 210.907 86.5431C210.267 84.8931 208.737 83.1831 206.747 83.3731C206.647 83.3731 206.537 83.4031 206.437 83.4131C206.247 83.2131 206.047 83.0231 205.847 82.8231C212.237 80.1131 220.337 78.8131 224.177 84.0631C219.717 84.7231 215.417 86.0731 211.447 88.0331H211.437ZM83.5967 49.1331C83.3767 51.2831 83.4167 53.4431 83.7667 55.5131C74.8867 61.1431 67.0967 68.2331 60.7267 76.4831C60.6467 76.5131 60.5567 76.5431 60.4767 76.5831C62.2667 73.1531 64.1567 69.9131 65.9767 67.0231C69.2967 61.7431 73.1067 56.8531 77.3067 52.3431C79.4167 51.0331 81.5467 49.9231 83.5867 49.1431L83.5967 49.1331ZM51.4867 75.7531C50.8067 77.2131 50.1167 78.7831 49.4367 80.4131C48.7367 80.6031 48.0467 80.8131 47.3567 81.0331C48.6967 79.2431 50.0567 77.4731 51.4967 75.7531H51.4867ZM32.7067 87.1831C32.7267 86.4331 32.7067 85.6731 32.6667 84.9231C34.2167 82.7131 35.5367 80.3431 36.6567 77.8531C36.6967 78.9631 36.6867 80.0631 36.6267 81.1631C35.2867 83.1231 33.9767 85.1331 32.7067 87.1831ZM23.5467 32.1031C19.7067 24.4431 14.2867 18.5131 6.90674 17.4931C10.2067 14.4231 14.2767 12.6831 18.9167 14.8531C24.5667 17.4931 27.7767 24.3531 29.6967 29.9231C30.9567 33.5931 31.8767 37.6231 32.4367 41.8031C29.8267 38.1131 26.8467 34.7931 23.5467 32.1031ZM-22.9333 44.6931C-28.9933 45.7031 -34.7933 49.0531 -39.4433 55.3531C-38.6833 51.1531 -37.0433 47.3531 -34.1933 44.5031C-29.7533 40.0731 -25.7233 40.2931 -22.3233 42.8831C-22.5333 43.4931 -22.7333 44.0931 -22.9333 44.6931ZM-32.5933 87.8231C-29.9133 89.3531 -26.9133 90.3131 -23.7433 90.5331C-23.7833 93.5931 -23.4433 96.6331 -22.7133 99.5631C-26.6033 96.2131 -29.9433 92.1731 -32.5833 87.8231H-32.5933ZM-13.0733 115.603C-10.9133 117.463 -8.46327 119.063 -5.66327 120.263C-4.16327 120.903 -2.71326 121.373 -1.29326 121.703C-2.00327 121.813 -2.72327 121.953 -3.44327 122.133C-7.24327 121.333 -11.1933 121.193 -15.1533 121.603C-14.6533 119.553 -13.9533 117.553 -13.0833 115.613L-13.0733 115.603ZM-78.3133 195.793C-75.4733 194.283 -72.6133 192.483 -69.8133 190.443C-67.9333 191.983 -65.9233 193.343 -63.8033 194.463C-64.5933 194.703 -65.3833 194.923 -66.1833 195.123C-70.6033 196.243 -75.4733 196.853 -80.4033 196.853C-79.6933 196.503 -78.9833 196.153 -78.3033 195.793H-78.3133ZM-61.7333 186.073C-57.6733 184.033 -53.8533 181.783 -50.5333 179.413C-49.4133 178.613 -48.3233 177.733 -47.2633 176.783C-45.3133 176.513 -43.3633 176.183 -41.4433 175.783C-41.4733 176.383 -41.5033 176.983 -41.4933 177.593C-41.4933 177.763 -41.4733 177.923 -41.4633 178.093C-43.9833 182.673 -47.7033 186.323 -52.0633 189.133C-55.4833 188.623 -58.7533 187.643 -61.7433 186.063L-61.7333 186.073ZM-22.2733 193.073C-18.6733 191.423 -15.1633 189.483 -11.7933 187.303C-12.6633 189.853 -13.3633 192.473 -13.9133 195.133C-16.7933 194.893 -19.5933 194.233 -22.2633 193.073H-22.2733ZM17.1867 239.903C31.1967 239.083 44.5267 230.593 50.0767 217.543C51.4267 214.363 52.3367 211.103 52.9167 207.813C57.9567 201.103 62.1167 193.853 65.1667 188.113C64.6967 191.723 64.0267 195.323 63.1567 198.903C58.6267 217.513 48.8567 238.433 31.5267 248.243C24.1767 252.403 13.9467 255.183 7.03673 249.153C10.8067 246.453 14.1967 243.353 17.1867 239.913V239.903ZM101.187 181.663C100.197 184.903 99.7067 188.253 99.6867 191.613C98.8967 190.573 98.1667 189.473 97.5267 188.333C96.1567 185.903 95.1767 183.313 94.4767 180.653C96.7367 181.433 98.9867 181.733 101.187 181.663ZM175.017 169.913C171.707 167.453 167.947 166.293 164.117 166.193C160.137 161.883 155.697 157.973 150.867 154.583C156.997 151.773 162.737 147.903 167.987 143.543C169.027 145.503 169.937 147.533 170.737 149.593C167.107 150.893 166.817 155.273 169.797 157.443C171.107 158.403 172.447 159.383 173.807 160.383C174.397 163.453 174.807 166.653 175.027 169.903L175.017 169.913ZM174.407 137.853C174.627 137.643 174.857 137.433 175.077 137.213C182.027 136.943 188.887 135.363 194.997 132.173C195.067 132.213 195.137 132.253 195.217 132.293C199.337 134.353 204.467 134.253 209.357 133.173C198.087 138.953 186.737 143.653 178.727 146.703C177.507 143.633 176.067 140.653 174.407 137.853ZM239.997 79.8431C258.597 93.7631 247.327 109.073 228.647 121.873C233.527 115.553 235.797 107.243 232.667 100.353C235.657 94.9731 236.207 88.4631 232.647 81.5931C225.017 66.8731 209.517 70.8331 197.077 77.4231C185.787 73.3731 170.767 76.2931 158.527 82.1231C157.577 80.8631 156.477 79.7031 155.277 78.6631C165.407 73.8131 176.297 70.6231 187.607 69.4431C204.697 67.6631 225.757 69.1831 239.987 79.8331L239.997 79.8431ZM108.227 8.71309C124.027 8.34309 138.027 20.4531 142.827 35.0431C146.997 47.7031 144.497 61.3031 138.397 72.9031C137.857 72.9231 137.327 72.9431 136.797 72.9931C136.007 70.1931 134.837 67.5731 133.367 65.1831C137.817 54.4231 138.867 42.5031 129.407 35.2431C125.667 32.3731 121.987 31.1231 118.447 31.0631C114.377 24.0031 106.127 23.9331 98.9667 27.2231C97.7067 26.4331 96.0967 26.2631 94.6267 27.1631C86.7367 32.0231 79.4667 37.7931 73.0167 44.3631C70.1867 46.0231 67.4267 47.9631 64.7467 50.0731C72.6867 29.9331 86.0067 9.21309 108.227 8.69309V8.71309ZM50.6367 56.3131C50.7267 57.7631 51.3967 58.8331 52.3267 59.5231C51.9867 60.5931 51.6567 61.6631 51.3467 62.7131C48.8367 65.4531 46.4767 68.2131 44.3067 70.8931C43.6567 66.9831 42.5767 62.8631 41.1067 58.7531C41.7567 49.7931 41.2467 38.3431 38.4867 28.3331C45.3867 36.1131 49.9667 45.7531 50.6367 56.3131ZM-27.2133 16.0931C-18.0333 10.0331 -7.43327 8.14309 2.94673 9.43309C-0.693268 12.2331 -3.67326 16.1331 -6.05327 20.2931C-11.9533 23.4531 -16.0733 28.9231 -19.0733 35.0131C-20.6233 34.1431 -22.2533 33.4831 -23.9433 33.1031C-35.4633 30.5231 -43.8233 40.2931 -46.6233 50.3931C-47.3333 52.9631 -47.8033 55.5831 -48.0533 58.2231C-48.0233 41.7331 -41.1133 25.2831 -27.2133 16.0931ZM-89.5233 205.963C-112.283 202.193 -135.473 189.133 -129.293 162.683C-119.683 121.613 -69.0933 101.093 -30.9433 108.533C-29.0133 108.913 -27.4533 108.173 -26.5233 106.983C-24.3733 108.723 -22.1133 110.333 -19.7633 111.753C-21.4833 115.523 -22.8133 119.403 -23.6233 123.303C-25.2533 123.783 -26.8633 124.343 -28.4433 124.973C-29.3233 124.193 -30.3133 123.443 -31.4333 122.733C-33.2133 121.613 -35.0733 120.753 -36.9833 120.083C-37.3133 119.683 -37.6333 119.273 -37.9933 118.883C-45.4533 111.013 -57.3933 110.413 -67.2933 113.043C-76.0533 115.373 -83.7633 120.233 -90.1833 126.613C-102.183 131.043 -113.263 139.983 -118.843 149.293C-127.133 163.123 -126.193 177.053 -118.983 187.573C-118.003 192.023 -115.553 196.013 -110.933 198.823C-107.673 200.803 -104.083 201.693 -100.403 201.843C-98.3433 202.643 -96.1833 203.333 -93.9333 203.873C-80.3033 207.123 -63.6833 205.393 -50.7233 198.413C-45.9733 198.963 -41.1133 198.663 -36.2833 197.683C-52.6633 205.823 -71.2833 208.963 -89.5133 205.943L-89.5233 205.963ZM12.3567 262.533C-18.0833 261.473 -22.6333 226.843 -21.5033 202.243C-20.7633 202.433 -20.0233 202.613 -19.2533 202.753C-17.8433 203.013 -16.4433 203.193 -15.0333 203.323C-15.1033 204.273 -15.1733 205.223 -15.1933 206.183C-15.3933 213.773 -13.6533 220.823 -10.1933 226.513C-10.1633 234.753 -9.08327 243.033 -6.82327 251.153C-6.04327 253.943 -3.00327 254.953 -0.543259 253.763C-0.493256 253.823 -0.443268 253.883 -0.393265 253.943C5.96674 260.813 15.2567 262.483 24.1367 260.433C31.9867 258.623 38.7967 254.733 44.6467 249.583C36.3467 257.783 25.8567 263.003 12.3567 262.533ZM205.857 204.983C206.527 222.503 191.747 235.643 176.337 240.923C136.317 254.633 103.277 219.253 79.6167 191.993C77.8267 189.933 74.8067 190.543 73.2467 192.383C74.5267 184.273 74.9167 176.033 74.4067 167.843C75.4767 165.053 76.4867 162.233 77.4167 159.393C78.7667 165.043 81.1467 170.253 85.0167 174.373C85.9167 186.303 90.6667 197.503 101.277 205.103C101.607 205.333 101.937 205.523 102.267 205.743C103.057 207.883 104.037 209.963 105.167 211.993C106.117 213.783 107.197 215.443 108.387 216.993C108.517 217.173 108.657 217.333 108.787 217.513C108.937 217.703 109.077 217.893 109.227 218.083C113.437 223.433 118.877 227.993 125.287 231.143C137.787 237.293 152.237 236.903 163.087 230.913C175.687 236.663 189.527 233.033 192.377 216.553C194.337 205.263 190.797 193.693 183.937 184.623C183.757 183.793 183.537 182.983 183.297 182.173C183.687 177.293 183.687 172.473 183.377 167.943C194.957 177.723 205.267 189.713 205.857 205.003V204.983Z" fill="white" fill-opacity="0.6"/>
</svg>
