<svg width="155" height="136" viewBox="0 0 155 136" fill="none" xmlns="http://www.w3.org/2000/svg">
<path d="M66.6101 123.84L134.93 123.84C145.578 123.84 154.21 115.208 154.21 104.56V84.6501C154.21 74.0021 145.578 65.3701 134.93 65.3701L66.6101 65.3701C55.9621 65.3701 47.3301 74.0021 47.3301 84.6501V104.56C47.3301 115.208 55.9621 123.84 66.6101 123.84Z" fill="#0B4779"/>
<path d="M130.12 110.19C129.69 121.8 135.62 130.87 146.26 135.52C131.72 136.75 118.93 125.65 114.5 113.17" fill="#0B4779"/>
<path d="M121.8 0.27002H27.0601C12.2975 0.27002 0.330078 12.2374 0.330078 27V54.62C0.330078 69.3826 12.2975 81.35 27.0601 81.35H121.8C136.563 81.35 148.53 69.3826 148.53 54.62V27C148.53 12.2374 136.563 0.27002 121.8 0.27002Z" fill="#FFB6D6"/>
<path d="M33.7401 62.4199C34.3401 78.5199 26.1101 91.0999 11.3601 97.5399C31.5301 99.2399 49.2601 83.8499 55.4001 66.5499" fill="#FFB6D6"/>
<path d="M46.3901 40.8101C46.3901 45.5001 42.5801 49.3101 37.8901 49.3101C33.2001 49.3101 29.3901 45.5001 29.3901 40.8101C29.3901 36.1201 33.2001 32.3101 37.8901 32.3101C42.5801 32.3101 46.3901 36.1201 46.3901 40.8101Z" fill="white"/>
<path d="M82.9301 40.8101C82.9301 45.5001 79.1201 49.3101 74.4301 49.3101C69.7401 49.3101 65.9301 45.5001 65.9301 40.8101C65.9301 36.1201 69.7401 32.3101 74.4301 32.3101C79.1201 32.3101 82.9301 36.1201 82.9301 40.8101Z" fill="white"/>
<path d="M119.49 40.8101C119.49 45.5001 115.68 49.3101 110.99 49.3101C106.3 49.3101 102.49 45.5001 102.49 40.8101C102.49 36.1201 106.3 32.3101 110.99 32.3101C115.68 32.3101 119.49 36.1201 119.49 40.8101Z" fill="white"/>
<path d="M92.0401 108.66C92.0401 111.39 89.8201 113.61 87.0901 113.61C84.3601 113.61 82.1401 111.39 82.1401 108.66C82.1401 105.93 84.3601 103.71 87.0901 103.71C89.8201 103.71 92.0401 105.93 92.0401 108.66Z" fill="white"/>
<path d="M112.25 92.5799C112.25 93.4899 111.51 94.2299 110.6 94.2299C109.69 94.2299 108.95 93.4899 108.95 92.5799C108.95 91.6699 109.69 90.9299 110.6 90.9299C111.51 90.9299 112.25 91.6699 112.25 92.5799Z" fill="white"/>
<path d="M134.92 108.24C137.88 108.24 140.28 105.84 140.28 102.88C140.28 99.9198 137.88 97.52 134.92 97.52C131.96 97.52 129.56 99.9198 129.56 102.88C129.56 105.84 131.96 108.24 134.92 108.24Z" fill="white"/>
<path d="M70.1901 92.5799C70.1901 93.4899 69.4501 94.2299 68.5401 94.2299C67.6301 94.2299 66.8901 93.4899 66.8901 92.5799C66.8901 91.6699 67.6301 90.9299 68.5401 90.9299C69.4501 90.9299 70.1901 91.6699 70.1901 92.5799Z" fill="white"/>
</svg>
