<svg width="107" height="114" viewBox="0 0 107 114" fill="none" xmlns="http://www.w3.org/2000/svg">
<path d="M98.3841 60.7125C102.694 35.9391 86.1058 12.3622 61.3324 8.05192C36.5591 3.74165 12.9822 20.3302 8.67188 45.1036C4.3616 69.8769 20.9502 93.4539 45.7236 97.7642C70.4969 102.074 94.0738 85.4858 98.3841 60.7125Z" fill="#FFCA0A"/>
<path d="M28.67 90.9299H80.43V100.51C80.43 107.85 74.47 113.82 67.12 113.82H41.97C34.63 113.82 28.66 107.86 28.66 100.51V90.9299H28.67Z" fill="#0B4779"/>
<path d="M43.17 94.4C46.92 84.25 48.52 73.39 48.27 62.59C48.15 57.25 47.58 51.92 46.63 46.66C45.78 42.01 44.99 36.72 41.73 33.06C41.14 32.39 40.41 31.75 39.53 31.66C34.6 31.12 34.87 40.21 35.1 43.05C35.75 51.06 39.35 58.79 45.07 64.44C48.87 68.19 54.21 71.54 59.56 69.11C64.62 66.81 68.29 62.39 70.43 57.34C73.23 50.76 77.59 39.04 70.78 33.4C69.93 32.7 68.8 32.26 67.72 32.5C62.72 33.63 61.18 44.33 60.54 48.45C59.36 56.07 58.86 63.84 59.82 71.49C60.78 79.14 63.24 86.69 67.62 93.03" stroke="white" stroke-width="1.97" stroke-linecap="round" stroke-linejoin="round"/>
</svg>
