<svg width="121" height="120" viewBox="0 0 121 120" fill="none" xmlns="http://www.w3.org/2000/svg">
<path d="M108.823 71.034C115.022 44.2266 98.3152 17.4697 71.5077 11.2708C44.7003 5.07198 17.9434 21.7786 11.7445 48.586C5.54567 75.3935 22.2522 102.15 49.0597 108.349C75.8672 114.548 102.624 97.8415 108.823 71.034Z" fill="#0B4779"/>
<path d="M61.2599 71.3199C50.6599 71.3199 42.0699 62.7299 42.0699 52.1299V29.1899H80.45V52.1299C80.45 62.7299 71.8599 71.3199 61.2599 71.3199Z" fill="#FFCA0A"/>
<path d="M39.9799 59.49C37.0999 59.49 34.53 59.05 32.1899 58.16C27.74 56.47 24.41 53.06 23.28 49.05C21.99 44.49 24.0099 39.33 27.8599 37.28C30.6999 35.78 34.5 35.89 37.78 37.57C40.33 38.88 42.6499 41.07 44.8599 44.26C45.1899 44.73 45.0699 45.37 44.5999 45.7C44.1299 46.02 43.4899 45.91 43.1599 45.44C41.1499 42.54 39.08 40.57 36.84 39.42C34.15 38.04 31.08 37.92 28.83 39.11C25.8 40.71 24.24 44.83 25.27 48.49C26.21 51.82 29.1399 54.79 32.9299 56.23C36.1499 57.46 39.9399 57.73 44.4999 57.08C45.0699 57 45.5899 57.39 45.6699 57.96C45.7499 58.53 45.3599 59.05 44.7899 59.13C43.0899 59.37 41.4899 59.5 39.9799 59.5V59.49Z" fill="#FFCA0A"/>
<path d="M83.96 60.2899C82.44 60.2899 80.84 60.1699 79.15 59.9199C78.58 59.8399 78.19 59.3199 78.27 58.7499C78.35 58.1799 78.87 57.7899 79.44 57.8699C84 58.5199 87.79 58.2499 91.01 57.0199C94.79 55.5799 97.7299 52.6199 98.6699 49.2799C99.6999 45.6299 98.1399 41.5099 95.1099 39.8999C92.8599 38.7099 89.7899 38.8199 87.0999 40.2099C84.8599 41.3599 82.79 43.3299 80.78 46.2299C80.45 46.6999 79.81 46.8199 79.34 46.4899C78.87 46.1599 78.75 45.5199 79.08 45.0499C81.29 41.8599 83.5999 39.6699 86.1599 38.3599C89.4399 36.6799 93.24 36.5599 96.08 38.0699C99.94 40.1099 101.95 45.2799 100.66 49.8399C99.5299 53.8499 96.2 57.2499 91.75 58.9499C89.42 59.8399 86.84 60.2799 83.96 60.2799V60.2899Z" fill="#FFCA0A"/>
<path d="M42.0699 35.47H80.4399" stroke="#FF7229" stroke-width="0.97" stroke-linecap="round" stroke-linejoin="round"/>
<path d="M77.2999 88.5499C73.9399 86.6899 69.2499 87.4199 66.6599 84.5899C65.1499 82.9399 64.84 80.5499 64.75 78.3099C64.64 75.3599 64.7999 70.3199 65.2199 67.3899H58.02C58.44 70.3099 58.5999 75.3499 58.4899 78.3099C58.3999 80.5399 58.09 82.9399 56.58 84.5899C53.98 87.4199 49.29 86.6899 45.94 88.5499C43.4 89.9599 41.83 92.9599 42.13 95.8599H81.14C81.44 92.9699 79.87 89.9699 77.33 88.5499H77.2999Z" fill="#FFCA0A"/>
<path d="M58.46 73.52H64.7499" stroke="#FF7229" stroke-width="0.97" stroke-linecap="round" stroke-linejoin="round"/>
<path d="M51.6299 42.8098C51.6299 44.7398 50.07 46.2998 48.14 46.2998C46.21 46.2998 44.65 44.7398 44.65 42.8098C44.65 40.8798 46.21 39.3198 48.14 39.3198C50.07 39.3198 51.6299 40.8798 51.6299 42.8098Z" fill="#F9EDE3"/>
<path d="M47.75 50.95C47.69 54.84 49.1999 58.73 51.8699 61.56" stroke="#F9EDE3" stroke-width="2.58" stroke-linecap="round" stroke-linejoin="round"/>
</svg>
