<svg width="80" height="80" viewBox="0 0 80 80" fill="none" xmlns="http://www.w3.org/2000/svg">
<path d="M59.9577 59.4697C70.8689 48.5585 70.8689 30.8678 59.9577 19.9566C49.0464 9.04533 31.3558 9.04533 20.4445 19.9566C9.5333 30.8678 9.5333 48.5585 20.4446 59.4697C31.3558 70.3809 49.0464 70.381 59.9577 59.4697Z" fill="#F99223"/>
<path d="M31.16 37.51C32.09 41.57 29.57 46.12 25.64 47.5" stroke="#1D2D51" stroke-width="1.81" stroke-linecap="round" stroke-linejoin="round"/>
<path d="M48.65 36.51C48.4 40.92 51.2 45.34 55.29 46.99" stroke="#1D2D51" stroke-width="1.81" stroke-linecap="round" stroke-linejoin="round"/>
<path d="M30.68 43.6201C30.68 43.6201 41.54 51.73 49.86 43.05" stroke="#1D2D51" stroke-width="1.81" stroke-linecap="round" stroke-linejoin="round"/>
<path d="M28.4901 37.4501C28.4901 40.1401 26.3101 42.33 23.6101 42.33C20.9101 42.33 18.7301 40.1501 18.7301 37.4501C18.7301 34.7501 20.9101 32.5701 23.6101 32.5701C26.3101 32.5701 28.4901 34.7501 28.4901 37.4501Z" fill="#F15E3C"/>
<path d="M64.5001 36.8301C64.5001 39.8401 62.0601 42.2801 59.0501 42.2801C56.0401 42.2801 53.6001 39.8401 53.6001 36.8301C53.6001 33.8201 56.0401 31.3801 59.0501 31.3801C62.0601 31.3801 64.5001 33.8201 64.5001 36.8301Z" fill="#F15E3C"/>
<path d="M37.7801 30.4901C37.7801 35.1301 37.0201 38.8901 36.0901 38.8901C35.1601 38.8901 34.4001 35.1301 34.4001 30.4901C34.4001 25.8501 35.1601 22.0901 36.0901 22.0901C37.0201 22.0901 37.7801 25.8501 37.7801 30.4901Z" fill="#17253F"/>
<path d="M45.9801 30.11C45.9801 34.75 45.2201 38.51 44.2901 38.51C43.3601 38.51 42.6001 34.75 42.6001 30.11C42.6001 25.47 43.3601 21.71 44.2901 21.71C45.2201 21.71 45.9801 25.47 45.9801 30.11Z" fill="#17253F"/>
</svg>
