<svg width="119" height="70" viewBox="0 0 119 70" fill="none" xmlns="http://www.w3.org/2000/svg">
<path d="M50.0062 1.45319C38.2623 4.95481 29.766 14.1437 26.6107 25.1026C26.3875 25.8799 26.1952 26.6649 26.0182 27.4575C24.9407 32.5599 24.9946 37.9701 26.3953 43.3341C26.4953 43.7343 26.603 44.1268 26.7185 44.5347C26.9032 45.1427 27.0956 45.7506 27.3111 46.3355C33.4678 63.5435 52.0918 73.1018 69.8 67.8147C77.7652 65.4367 84.2374 60.4498 88.5625 54.0699C89.1397 53.2157 89.6784 52.3383 90.171 51.4379C94.5345 43.5804 95.8505 34.0375 93.0723 24.7332C87.6006 6.40934 68.3147 -4.01088 49.9908 1.45319H50.0062ZM73.6787 19.0614C76.3954 19.577 78.8195 21.7703 79.566 24.3946C80.4511 27.496 79.3429 30.736 76.8725 32.2521C76.4415 32.5214 75.9413 32.7215 75.3872 32.8601L75.3487 32.8754C75.2948 32.8908 75.241 32.9139 75.1871 32.937C74.6099 33.2141 74.0712 33.4065 73.5325 33.5142C70.154 34.1992 67.4989 32.3521 66.1444 30.3897C64.4667 27.9655 64.3513 24.9795 65.852 22.5938C67.5374 19.9156 70.6773 18.4996 73.6864 19.0614H73.6787Z" fill="#F99223"/>
<path d="M89.2553 36.9929C89.6939 36.862 90.0171 36.4465 90.0171 35.9616C89.9787 26.8805 86.2154 18.0456 79.6739 11.7427C79.2506 11.3348 78.5734 11.3425 78.1655 11.7735C77.7576 12.1968 77.7653 12.874 78.1886 13.2819C84.2221 19.1077 87.8392 27.5885 87.8777 35.977C87.8777 36.5696 88.3625 37.0467 88.9474 37.039C89.0551 37.039 89.1552 37.0237 89.2476 36.9929H89.2553Z" fill="white"/>
<path d="M73.3401 16.9295C71.9087 16.6602 70.4619 16.7525 69.0997 17.1604C66.9371 17.8069 65.0055 19.2306 63.7433 21.2315C61.8655 24.2175 61.9887 27.9269 64.0666 30.9283C66.1599 33.9605 69.7538 35.4612 73.217 34.7609C73.4478 34.7147 73.6787 34.6608 73.9096 34.5916C74.3329 34.4684 74.7638 34.2991 75.2025 34.0913C75.8797 33.9143 76.5185 33.645 77.088 33.291C80.2279 31.367 81.6594 27.3267 80.5666 23.4787C79.6354 20.2003 76.734 17.5683 73.3401 16.9295ZM76.0183 31.5517C75.6027 31.8056 75.1256 31.998 74.5946 32.1289L74.556 32.1443C74.5022 32.1597 74.4483 32.1827 74.4022 32.2058C73.8558 32.4752 73.3324 32.6522 72.8168 32.7599C69.5845 33.4141 67.0449 31.6517 65.752 29.7739C64.1436 27.4575 64.0435 24.6023 65.4749 22.3243C67.0834 19.7616 70.0924 18.4071 72.9707 18.9458C75.5719 19.4384 77.8884 21.5317 78.6041 24.0482C79.4506 27.0188 78.3886 30.1049 76.026 31.5594L76.0183 31.5517Z" fill="#FFCA0A"/>
<path d="M78.5964 24.0405C79.4429 27.0112 78.3809 30.0972 76.0183 31.5517C75.6027 31.8057 75.1256 31.9981 74.5946 32.1289L74.556 32.1443C74.5022 32.1597 74.4483 32.1828 74.4022 32.2059C73.8557 32.4752 73.3324 32.6522 72.8168 32.76C69.5845 33.4141 67.0449 31.6518 65.752 29.774C64.1436 27.4575 64.0435 24.6024 65.4749 22.3244C67.0833 19.7617 70.0924 18.4072 72.9707 18.9459C75.5719 19.4384 77.8884 21.5317 78.6041 24.0482L78.5964 24.0405Z" fill="#FFCA0A"/>
<path d="M54.8624 25.6337C54.4699 25.6568 54.0774 25.626 53.7234 25.5414C53.2001 25.4336 52.7383 25.2105 52.3305 24.8795C51.8841 24.6025 51.5224 24.2254 51.2684 23.779C50.9529 23.2711 50.7682 22.7093 50.6989 22.109C50.6373 21.7165 50.6374 21.3702 50.6912 21.0393C50.6912 20.6699 50.7836 20.3082 50.9452 19.9772C51.1068 19.4616 51.3838 19.0076 51.7609 18.6305L51.8456 18.5381C52.2227 18.1071 52.6767 17.7916 53.2001 17.5915C53.7003 17.3222 54.2544 17.1913 54.7855 17.199C55.3473 17.1683 55.8782 17.2683 56.3785 17.4992C56.9018 17.6608 57.3636 17.9455 57.8022 18.3919L58.364 19.0691C58.364 19.0691 58.4025 19.123 58.4256 19.1538C58.8258 19.8002 59.0336 20.5083 59.0567 21.2625C59.0567 21.3009 59.0567 21.3317 59.0567 21.3702L58.9643 22.2398C58.9643 22.2398 58.9566 22.3091 58.9489 22.3399C58.7796 23.0248 58.4564 23.6328 57.9792 24.1561L57.91 24.2485C57.91 24.2485 57.8715 24.2946 57.8484 24.3177C57.3405 24.8564 56.7171 25.2412 55.9937 25.4644C55.6166 25.5721 55.2241 25.6337 54.8624 25.6337Z" fill="#FFCA0A"/>
<path d="M57.5251 21.2547L57.4404 22.0166C57.325 22.4476 57.1172 22.817 56.8171 23.1479C56.794 23.171 56.7786 23.2018 56.7632 23.2172L56.6939 23.3095C56.4015 23.625 56.0167 23.8559 55.555 23.9944C55.3241 24.0637 55.0701 24.1022 54.8161 24.1022C54.5237 24.1176 54.2851 24.1022 54.0543 24.0406C53.7464 23.9713 53.4925 23.8559 53.277 23.6712C53.2462 23.6481 53.2154 23.6173 53.1769 23.5943C52.9307 23.448 52.7305 23.2479 52.5843 22.994C52.3765 22.6554 52.2611 22.309 52.2149 21.9319C52.2149 21.9166 52.2149 21.9089 52.2149 21.8858C52.1765 21.6318 52.1687 21.4317 52.1995 21.2547C52.2149 21.2008 52.2149 21.147 52.2149 21.0931C52.2149 20.9238 52.2457 20.7699 52.3304 20.6237C52.3535 20.5698 52.3688 20.5236 52.3919 20.4774C52.4766 20.1773 52.6305 19.9233 52.8614 19.6924L52.9845 19.5539C53.2154 19.2846 53.4694 19.1152 53.7695 19.0152C53.8157 18.9998 53.8542 18.9767 53.8926 18.9536C54.1774 18.792 54.4852 18.7228 54.8239 18.7228C55.2009 18.6997 55.4934 18.7613 55.7781 18.8921C55.8166 18.9152 55.8551 18.9306 55.8935 18.9383C56.1937 19.0229 56.4477 19.1768 56.6785 19.4077L57.1557 19.9849C57.3866 20.3774 57.5097 20.7853 57.5328 21.2393L57.5251 21.2547Z" fill="#FFCA0A"/>
<path d="M59.0875 13.3663C58.7566 12.2504 59.1722 10.9036 60.6036 10.4726C61.2731 10.2726 61.9119 10.3495 62.4583 10.7035C62.9277 11.0037 63.2817 11.4885 63.451 12.0657C63.7819 13.1816 63.3664 14.5284 61.935 14.9593C60.5035 15.3903 59.4184 14.4822 59.0798 13.3663H59.0875Z" fill="#FFCA0A"/>
<path d="M62.3966 12.3813C62.5275 12.8199 62.5121 13.6357 61.6271 13.8973C61.2654 14.0051 60.9498 13.9666 60.6805 13.7973C60.4342 13.6434 60.2418 13.3663 60.1418 13.0508C60.0109 12.6121 60.0263 11.7964 60.9191 11.5347C61.8118 11.273 62.2658 11.9503 62.3966 12.389V12.3813Z" fill="#FFCA0A"/>
<path d="M2.7151 28.9813C3.15376 27.042 8.46392 24.5408 25.5642 27.4652C26.2953 27.5961 26.9802 27.1036 27.1033 26.3724C27.2265 25.6413 26.7416 24.9564 26.0105 24.8333C10.4341 22.1705 1.2375 23.4326 0.106207 28.3888C-1.16361 33.9606 9.07188 41.187 24.4405 45.5736C35.9228 48.8521 58.0638 52.1151 78.2809 53.5158C95.5043 54.7087 107.217 54.3931 113.282 52.5769C115.968 51.7765 117.545 50.6837 118.015 49.2984C118.961 46.5125 117.191 42.5876 96.8818 34.5531C96.1969 34.2838 95.4196 34.6147 95.1503 35.2996C94.8809 35.9846 95.2119 36.7619 95.9045 37.0312C116.352 45.1196 115.537 48.3057 115.49 48.4365C114.921 50.1142 106.448 52.777 78.4656 50.8376C58.4102 49.4524 36.5 46.2278 25.1794 42.9955C10.9805 37.847 2.83053 33.1217 2.7151 28.9736V28.9813Z" fill="#1D2D51"/>
</svg>
