<svg width="550" height="160" viewBox="0 0 550 160" fill="none" xmlns="http://www.w3.org/2000/svg">
<path d="M116.489 86.2922C113.553 81.3728 108.005 78.4958 102.477 79.2715C95.8486 80.2043 89.2796 81.687 82.681 82.8948C81.9544 82.2173 81.1983 81.5986 80.4422 81.0979C79.4603 80.4498 76.3181 78.5056 75.8468 80.6854C74.3739 87.6277 76.2396 96.141 79.6272 102.327C80.3637 103.672 86.2454 111.243 88.4744 109.584C90.6248 112.186 93.384 114.159 95.3675 113.325C99.0301 111.783 102.575 110.016 106.296 108.582C109.272 107.433 111.383 106.873 112.895 103.996C114.535 100.874 115.526 97.0051 116.508 93.6174C117.264 91.0153 117.952 88.7372 116.489 86.2726V86.2922ZM95.1907 98.7332C93.4135 99.2537 91.6165 99.6857 89.8196 100.128C89.4367 96.8774 88.5235 93.5781 87.4925 90.7207C91.8718 90.2396 96.2512 89.7584 100.64 89.4049C102.005 89.2969 103.547 89.0416 105.138 88.7765C104.499 90.9073 103.832 94.2557 102.32 95.8464C100.709 97.5451 97.3608 98.1048 95.1907 98.7332Z" fill="#FF90BE"/>
<path d="M143.089 91.8205C142.628 87.2644 142.176 82.7082 141.518 78.1717C140.762 72.997 138.936 67.9892 138.474 62.7948C138.327 61.1844 130.285 57.512 129.745 59.034C129.372 60.0847 128.949 61.0666 128.527 62.0387C128.262 61.7932 127.938 61.5477 127.565 61.3022C127.85 60.281 128.075 59.2795 128.242 58.1699C128.665 55.5187 129.038 52.8479 129.293 50.1672C129.853 44.1578 129.519 37.9913 129.175 31.982C128.841 26.3162 127.859 19.973 124.757 15.0928C121.938 10.6545 116.371 8.9558 111.53 7.79713C101.838 5.46997 91.3121 5.76455 81.4143 6.13768C76.2101 6.33406 70.9176 7.39454 65.7625 8.10153C60.8725 8.76924 55.845 8.88707 51.1612 10.6153C50.8175 10.7429 50.6801 10.9295 50.6703 11.1553C50.1989 11.3812 49.8258 11.7543 49.6098 12.314C48.2351 15.79 49.3839 19.3151 50.1007 22.8402C50.9943 27.2589 51.8682 31.707 52.8894 36.0962C54.5783 43.3527 57.0331 51.1393 61.9231 56.8836C61.9919 56.9621 62.0802 57.0701 62.1882 57.188C62.1097 57.1683 62.0409 57.1389 61.9624 57.1192C57.1902 53.0148 47.371 47.7419 45.4366 54.959C43.6298 61.6852 43.1389 68.9122 43.2764 75.8642C43.3549 79.6642 43.7084 83.4054 44.2092 87.1662C45.0045 93.205 47.695 97.3193 52.153 101.424C54.0874 103.201 61.8151 107.688 63.1113 102.651C64.5743 96.956 63.2193 90.5538 63.612 84.6917C64.0048 78.9082 65.0064 73.2916 66.0177 67.616C67.7558 67.292 69.8669 67.8321 71.5165 67.9695C74.1088 68.1855 76.6913 68.3623 79.2737 68.6667C84.9984 69.3344 90.7524 69.6584 96.5163 69.629C102.054 69.5995 107.563 69.1184 113.042 68.3132C117.5 67.6553 123.097 67.2036 127.26 65.0336C126.828 66.2119 126.465 67.4295 126.279 68.7747C125.856 71.7696 125.886 74.8528 126.2 77.8575C127.005 85.5951 128.871 93.1461 129.961 100.835C130.353 103.643 131.915 111.793 130.02 113.334C128.007 114.984 123.942 115.907 121.506 116.663C116.273 118.283 109.36 119.197 104.205 117.174C102.486 116.496 103.547 118.48 103.871 119.157C104.706 120.974 106.62 122.663 108.201 123.792C114.761 128.476 120.976 129.762 128.949 128.672C132.798 128.152 137.001 127.366 140.615 125.903C144.061 124.509 143.806 121.288 144.032 117.93C144.591 109.259 143.953 100.432 143.079 91.8107L143.089 91.8205ZM70.5051 59.0733C71.1041 57.188 70.9765 54.9099 70.9372 53.0246C70.8685 48.93 70.3971 44.7863 69.7393 40.7505C68.5413 33.4352 68.3744 24.2444 64.3976 17.8128C72.0271 19.0205 79.7942 18.0583 87.5415 16.7523C93.7964 15.7016 100.13 13.7869 106.473 13.561C105.943 14.975 105.452 16.4283 105.216 18.0288C104.686 21.7601 104.873 25.6289 105 29.3799C105.02 29.9985 105.039 30.6269 105.069 31.2553C99.8843 33.1014 94.8962 35.6642 89.5643 36.9898C87.9049 35.9391 86.1767 35.2714 85.0671 35.8507C82.6614 37.0978 82.4552 39.0715 82.2195 41.6834C82.0035 44.1284 82.1017 46.701 82.249 49.2246C82.3079 50.6484 82.4257 52.0329 82.5043 53.2799C82.6614 55.7151 84.8413 58.2386 87.139 60.1436C81.6107 60.1436 75.9941 59.9275 70.515 59.0733H70.5051ZM98.1562 59.8588C98.1954 56.4319 98.2249 52.7988 97.6456 49.3718C97.6161 49.1656 97.5965 48.9496 97.5572 48.7434C97.5376 48.655 97.5081 48.5569 97.4885 48.4685C97.0957 46.5341 96.4771 44.6881 95.5442 42.9992C98.9613 43.0384 102.408 42.9893 105.776 42.5867C106.208 46.5144 106.915 50.3832 108.182 53.9967C108.771 55.6758 109.645 57.2272 110.725 58.6118C108.427 58.9162 106.139 59.25 103.822 59.466C101.937 59.6428 100.051 59.7606 98.1562 59.8588Z" fill="#0B4779"/>
<path d="M12.2573 39.9159C14.3194 41.2415 16.8331 42.027 19.2192 42.4591C21.0259 42.7831 23.3825 43.0875 25.1402 42.3609C25.9846 42.0074 26.7407 41.5459 27.2906 40.8487C27.487 41.2513 27.6343 41.0157 27.7227 40.1614C27.978 39.5821 27.978 38.9634 27.811 38.3546C27.5655 37.0683 26.5345 35.6642 25.7097 34.7412C24.4528 33.3272 22.8719 32.0801 21.4285 30.8429C16.7055 26.7974 10.4015 22.5849 3.90114 23.2723C2.88976 23.3803 0.415308 23.6847 0.101092 25.1183C-0.566617 28.1819 2.22205 30.6956 4.09753 32.8264C6.46397 35.5169 9.27227 38.0208 12.2573 39.9355V39.9159Z" fill="#0B4779"/>
<path d="M110.136 140.887C102.123 139.375 95.5246 135.654 88.2485 132.099C78.989 127.572 69.4839 123.389 59.8611 119.707C51.6522 116.565 42.9523 114.1 34.4292 111.999C34.3212 111.97 34.2132 111.95 34.1052 111.921C34.7238 110.32 35.2933 108.788 35.853 107.482C37.8758 102.72 40.4582 97.7415 41.1652 92.5569C41.6955 88.6685 40.5171 84.9961 37.9543 82.0307C36.2752 80.0767 34.0364 78.4761 31.7584 77.2978C31.6504 77.2389 31.5423 77.1996 31.4343 77.1505C32.8974 74.0771 37.159 66.4377 37.3652 65.0237C38.0721 60.1534 33.3589 58.1306 29.3625 56.8738C23.9913 55.1848 18.1391 57.0014 12.7287 57.836C10.3819 58.1994 1.96675 58.3368 5.64897 62.4315C6.28722 63.1384 13.5535 66.6439 13.6909 65.1612C13.74 64.6702 22.6952 64.0615 23.5887 63.9534C23.7557 63.9338 23.9128 63.9142 24.0797 63.8945C23.5986 65.063 22.98 66.153 22.5086 66.9189C21.2419 68.9514 18.7086 70.3654 17.7757 72.4864C16.9706 74.3128 17.9623 75.9133 19.229 77.2487C20.3582 78.427 23.1371 80.7444 25.4642 81.8049C25.5722 82.2762 25.641 82.7475 25.6508 83.2385C25.6999 84.515 25.4151 85.7424 24.9634 86.9403C23.9521 89.6406 22.0864 92.0463 20.5841 94.4815C18.0507 98.5663 13.9757 103.761 12.6796 108.847C10.2346 108.965 7.79939 109.25 5.28566 109.485C2.9094 109.711 9.88107 115.721 10.4997 116.064C12.6599 117.282 14.663 118.676 16.7055 120.021C19.0228 122.299 21.8802 124.116 24.3645 124.273C25.8865 124.96 27.4084 125.648 28.9304 126.325C33.1134 128.201 37.6303 129.556 41.9508 131.088C50.0124 133.955 58.1034 136.783 66.1552 139.67C74.3837 142.615 82.2784 146.072 90.0258 150.117C100.061 155.371 109.586 159.789 121.182 159.897C126.593 159.946 125.778 153.525 124.04 150.491C121.153 145.463 115.801 141.958 110.155 140.887H110.136Z" fill="#0B4779"/>
<path d="M219.993 0.481786C216.193 3.50612 211.5 5.98057 207.297 8.46484C202.712 11.175 197.861 12.9915 192.902 14.8474C187.462 16.8799 181.905 18.5787 176.386 20.4051C171.378 22.0645 164.377 23.0759 160.302 26.4537C159.625 26.7581 159.291 27.2883 159.32 28.0346C160.666 35.674 171.575 38.119 177.839 36.2141C185.145 33.9949 192.45 31.1571 199.579 28.3881C206.207 25.8155 212.531 22.8893 218.619 19.1973C221.898 17.2138 224.962 15.0241 227.76 12.3925C230.294 10.0163 231.374 7.35526 233.122 4.39967C234.644 1.82703 222.075 -1.17767 220.003 0.471968L219.993 0.481786Z" fill="#0B4779"/>
<path d="M170.328 53.9574C175.11 55.4892 180.461 55.0474 185.449 55.1161C190.968 55.1947 196.457 55.8133 201.985 55.7544C211.461 55.6464 223.548 55.0081 232.081 50.4814C235.557 48.6354 231.197 43.9713 229.656 42.6555C226.582 40.0337 221.722 37.2942 217.499 38.011C208.701 39.5035 199.923 41.4477 191.125 43.0483C186.608 43.8633 182.121 45.0907 177.545 45.5031C172.999 45.9155 167.176 44.7568 163.042 46.6519C161.186 47.4964 169.356 53.6629 170.328 53.9673V53.9574Z" fill="#0B4779"/>
<path d="M227.053 65.9958C219.031 63.5116 209.968 62.4806 201.612 61.7441C193.825 61.0666 185.97 59.2598 178.144 59.8294C172.272 60.2614 166.174 60.8309 165.575 67.7437C164.907 75.4027 164.76 84.7506 168.354 91.6339C169.375 93.5781 180.137 104.546 181.325 98.5467C182.68 91.7517 179.204 84.4757 179.852 77.504C180.461 70.8662 188.307 70.9742 193.55 69.7861C196.172 69.1969 198.794 68.4703 201.435 67.999C205.549 67.2822 209.929 67.9401 214.063 68.2248C219.846 68.6176 226.121 70.169 231.875 69.7272C232.542 69.6781 227.868 66.2315 227.053 65.986V65.9958Z" fill="#0B4779"/>
<path d="M218.962 63.541C213.729 71.2295 210.243 83.8963 214.829 92.6846C216.517 95.9249 219.512 98.6841 222.713 100.373C224.255 101.178 228.693 103.338 230.117 101.08C232.876 96.7105 232.444 90.4065 233.21 85.3791C233.996 80.2436 235.714 74.8135 233.544 69.8745C232.238 66.8992 221.781 59.4071 218.962 63.541Z" fill="#0B4779"/>
<path d="M188.012 86.5475C193.972 86.5181 199.923 86.3806 205.883 86.2137C208.633 86.1351 211.352 85.9878 214.092 85.762C216.881 85.5362 219.62 86.1155 221.712 84.1222C223.145 82.7475 215.918 78.4663 214.976 78.1619C209.801 76.4828 204.184 77.504 198.804 77.9066C192.765 78.3583 186.716 78.5939 180.667 78.7805C178.831 78.8394 181.964 82.4725 182.248 82.7868C183.544 84.1909 185.891 86.5574 188.012 86.5475Z" fill="#0B4779"/>
<path d="M184.625 101.208C191.763 101.983 198.695 103.309 205.903 103.564C209.693 103.692 213.395 103.663 217.156 103.299C220.7 102.956 224.972 103.014 228.163 101.365C233.839 98.4289 220.73 89.238 217.823 88.8649C211.51 88.0401 204.234 89.9352 197.979 90.9269C191.586 91.9383 184.968 93.4799 178.527 93.8236C177.191 93.8923 182.405 100.972 184.615 101.208H184.625Z" fill="#0B4779"/>
<path d="M197.252 25.678C193.354 26.4046 192.313 29.7039 191.469 33.3272C190.477 37.5691 190.104 42.2332 189.721 46.593C188.955 55.4892 189.082 64.523 189.357 73.429C189.917 91.3786 190.369 109.367 191.851 127.258C192.195 131.412 195.976 136.243 199.294 138.472C201.396 139.886 205.814 141.388 205.785 137.127C205.716 126.581 205.412 116.005 205.648 105.469C205.893 94.5404 206.953 83.6803 207.543 72.7711C208.142 61.7147 208.966 50.6582 208.691 39.5722C208.583 35.075 207.552 30.568 203.703 27.907C202.093 26.7876 199.275 25.2852 197.242 25.6682L197.252 25.678Z" fill="#0B4779"/>
<path d="M177.26 119.324C195.406 124.155 214.23 121.651 231.953 116.575C228.674 113.973 225.404 111.361 222.124 108.759L222.419 109.289C224.01 112.176 227.869 116.624 231.531 116.575H231.953C235.351 116.526 229.351 109.417 229.076 109.151L228.733 108.827C227.476 107.649 223.99 104.34 221.859 105.116C218.118 106.461 214.74 108.611 210.812 109.79C206.865 110.968 202.839 111.822 198.764 112.48C194.64 113.138 190.477 113.57 186.304 113.717C181.718 113.884 177.388 113.001 172.851 112.51C172.076 112.421 175.424 118.833 177.27 119.324H177.26Z" fill="#0B4779"/>
<path d="M223.98 124.371C204.774 125.019 185.862 127.425 166.675 124.96C162.119 124.381 164.181 132.502 164.957 134.436C166.528 138.334 169.827 143.48 174.422 144.049C193.236 146.376 215.653 145.11 230.893 132.6C232.69 131.117 225.738 124.312 223.98 124.371Z" fill="#0B4779"/>
<path d="M246.712 46.7501C254.538 49.4995 262.717 49.2835 270.71 47.3196C278.624 45.3754 287.059 44.9434 294.747 42.3707C289.749 39.6802 284.751 36.9898 279.753 34.2895L283.21 39.5428C282.424 36.9898 281.639 34.4269 280.853 31.8739C278.084 46.7108 277.593 62.6377 277.495 77.7495C277.397 92.2133 279.803 106.353 279.046 120.817L283.828 119.354C276.425 113.855 268.343 110.124 259.241 108.621C256.56 108.179 258.662 113.501 258.976 114.169C260.184 116.81 262.432 120.404 265.28 121.543C272.89 124.578 280.048 128.397 286.548 133.395C288.63 134.996 290.996 134.652 291.33 131.932C292.204 124.892 293.608 118.254 295.71 111.538C297.752 105.018 299.264 97.987 300.227 91.2412C302.593 74.6957 305.333 57.9735 305.146 41.2415C305.058 33.9065 292.469 25.4423 285.645 27.5044C283.838 28.0543 282.032 28.5943 280.215 29.1442L283.514 28.9871C275.904 27.1312 268.343 28.4274 260.802 30.0868C253.723 31.6383 246.26 34.859 238.915 33.9556C235.341 33.5138 236.401 37.3433 237.501 39.1795C239.524 42.5475 243.029 45.454 246.741 46.7599L246.712 46.7501Z" fill="#0B4779"/>
<path d="M253.33 3.7516C249.549 12.098 249.559 22.0056 249.108 31.0786C248.597 41.3692 248.793 51.6892 248.636 61.9896C248.558 67.2527 247.811 72.3096 247.35 77.5335C246.957 82.011 247.419 86.361 246.28 90.76C245.219 94.8448 243.589 99.2046 241.674 102.916C239.652 106.824 235.586 108.965 235.282 113.472C235.174 115.092 237.059 119.413 238.738 119.933C242.774 121.2 245.268 116.614 247.782 113.884C250.296 111.155 252.957 108.238 255.107 104.9C257.405 101.326 260.056 97.9182 262.118 94.2164C264.661 89.6504 265.574 84.564 266.605 79.4777C268.893 68.1266 269.718 56.4024 269.738 44.8354C269.757 33.0326 270.425 20.8371 267.038 9.44676C266.242 6.76611 255.117 -0.156465 253.34 3.76142L253.33 3.7516Z" fill="#FF90BE"/>
<path d="M425.402 123.763C422.938 118.46 421.102 112.893 419.648 107.237C418.725 103.682 414.974 99.9999 411.93 98.1441C410.556 97.2996 405.597 95.0903 405.253 98.2717C404.605 104.153 405.823 110.644 408.503 116.359C405.921 117.459 403.26 118.283 400.55 118.892C398.635 118.814 396.72 118.745 394.786 118.784C388.826 118.892 382.875 119.187 376.915 119.363C375.187 119.413 373.439 119.462 371.701 119.491C370.984 119.432 370.258 119.373 369.541 119.305C365.829 118.931 362.648 117.989 359.633 119.363C359.339 119.344 359.044 119.344 358.759 119.324C356.569 119.197 354.419 118.971 352.328 118.283C352.141 118.224 350.855 117.684 350.099 117.331C349.323 111.557 348.626 105.842 348.439 99.9901C348.243 93.9414 349.303 87.7946 349.578 81.7361C349.686 79.3009 349.794 76.8167 349.863 74.2931C354.223 72.9872 358.553 71.5928 362.893 70.2279C363.237 72.3784 363.59 74.5091 363.895 76.6301C364.769 82.718 363.738 88.698 363.944 94.8154C364.111 99.8723 368.107 109.034 374.077 108.985C374.814 108.955 375.305 108.592 375.55 107.904C377.062 102.946 377.396 97.6237 378.005 92.498C378.584 87.6277 379.821 82.4136 380.892 77.6022C381.893 73.1148 382.345 68.9711 382.463 64.4935C385.173 63.8062 387.903 63.1875 390.672 62.6966C391.398 62.5689 392.115 62.4315 392.842 62.3038C392.449 62.8635 392.056 63.4232 391.673 64.0025C387.834 69.9628 382.915 75.4027 385.468 82.9341C386.528 86.0762 389.69 90.6225 393.235 91.2412C401.286 92.6551 405.391 84.7015 408.71 78.7903C412.804 71.4946 413.894 64.3069 414.424 56.0882C414.601 53.4076 407.119 47.5847 404.635 49.0773C402.406 47.9873 400.029 47.4571 397.329 47.9186C393.745 48.5274 390.083 49.2835 386.567 50.2163C384.908 50.6582 383.248 51.1295 381.599 51.6106C380.872 48.7238 379.34 46.6028 377.376 43.9418C375.619 41.5557 366.379 33.9065 363.325 38.1681C363.188 38.3546 361.921 39.3857 361.469 40.4363C360.625 42.4002 361.057 44.6095 361.047 46.6814C361.027 50.0297 361.135 53.3388 361.283 56.6872C361.293 57.0014 361.322 57.3058 361.342 57.62C357.434 58.71 353.525 59.7803 349.608 60.8407C349.068 54.1146 347.732 47.5258 344.845 41.6245C343.363 38.5903 340.505 35.9489 337.628 34.2993C336.587 33.7101 331.815 31.1768 330.872 33.3076C327.691 40.4658 328.84 47.6829 329.38 55.3223C329.625 58.8572 330.126 62.3333 330.725 65.7896C325.168 67.0858 319.286 68.6863 315.496 72.1132C314.15 73.3308 319.345 78.9278 320.631 79.1536C324.775 79.8803 329.036 79.5366 333.268 78.7314C334.869 86.7145 336.008 94.2655 336.499 102.445C336.931 109.613 338.325 116.712 341.831 123.065C345.12 129.016 350.04 134.456 356.638 136.675C362.864 138.766 369.737 138.364 376.198 138.148C379.213 138.04 382.247 137.922 385.271 137.725C388.276 138.04 391.29 138.216 394.324 138.177C405.391 138.01 415.966 135.791 425.746 130.518C427.877 129.369 426.031 125.108 425.412 123.772L425.402 123.763ZM349.559 117.036C349.617 116.958 349.686 117.027 349.755 117.164C349.627 117.095 349.549 117.056 349.559 117.036Z" fill="#0B4779"/>
<path d="M487.529 45.7191C486.586 44.4819 479.153 37.8637 477.415 40.6524C475.667 43.4705 477.091 48.007 477.837 51.0215C478.024 51.7677 478.24 52.5042 478.446 53.2406C478.053 53.0639 477.7 52.9461 477.386 52.8871C473.831 52.2194 470.257 52.6711 466.751 53.5843C467.802 50.8938 468.558 48.115 468.568 45.8075C468.578 42.1842 465.406 38.9634 462.725 36.921C461.164 35.7231 455.94 32.0114 454.065 34.5251C451.394 38.0993 448.458 42.8322 447.417 47.192C446.013 53.1032 448.046 59.3875 446.16 65.1121C445.336 67.6062 451.207 74.519 453.76 74.2833C460.261 73.6843 465.868 71.3866 472.014 69.354C474.882 68.4114 477.778 67.5767 480.655 66.6537C481.736 66.3002 482.58 65.986 483.238 65.5834C485.28 68.6667 488.57 71.3572 491.83 72.4766C495.522 73.7531 497.348 71.691 496.003 68.0873C493.263 60.772 492.311 51.9838 487.509 45.6995L487.529 45.7191Z" fill="#0B4779"/>
<path d="M505.253 75.4714C510.653 81.1764 516.8 82.1191 524.312 82.2173C531.598 82.3154 538.835 82.0012 545.973 80.4891C546.68 80.2829 547.063 79.8115 547.142 79.0849C547.348 74.4895 549.204 69.9726 549.174 65.4852C549.154 62.1271 539.669 53.9869 536.556 57.0603C533.925 59.6624 533.424 64.7193 533.218 68.5979C528.583 69.1576 523.978 69.1969 519.314 68.9023C517.252 68.7747 515.19 68.5488 513.138 68.3721C513.118 68.215 513.088 68.0579 513.079 67.9106C512.813 64.9845 512.686 62.0289 512.578 59.0929C512.401 54.0949 512.764 49.0969 511.066 44.3149C510.359 42.3216 501.423 34.3582 499.479 37.6771C496.121 43.4017 498.32 52.4551 498.978 58.7198C499.665 65.279 500.53 70.4832 505.253 75.4714Z" fill="#0B4779"/>
<path d="M547.446 113.924C546.405 111.547 541.869 105.155 538.658 106.5C535.535 107.806 535.26 114.464 535.064 118.931C530.547 119.413 526.05 119.982 521.494 120.198C519.137 120.316 516.79 120.414 514.434 120.542C514.07 120.561 511.969 120.522 510.123 120.483C510.133 120.149 510.152 119.815 510.192 119.501C510.369 118.008 510.565 116.516 510.742 115.023C516.083 113.442 521.337 110.939 525.922 107.875C531.431 104.193 535.211 99.4009 539.866 94.8546C540.857 93.8923 534.828 88.0302 533.296 88.9042C527.974 91.9285 521.72 93.7647 516.034 96.0526C513.756 96.9658 511.458 97.8789 509.161 98.8216C508.709 97.7415 508.189 96.681 507.57 95.6303C506.981 94.6386 501.433 87.1662 499.665 89.2871C497.692 91.6535 497.682 94.7073 497.544 97.6826C497.368 101.571 497.289 105.558 497.299 109.466C497.328 116.85 499.872 123.821 504.781 129.389C509.269 134.485 514.679 136.783 521.425 136.92C529.781 137.087 538.53 136.125 546.719 134.524C548.074 134.259 548.713 133.081 548.605 131.746C548.133 125.775 549.842 119.442 547.417 113.924H547.446Z" fill="#0B4779"/>
<path d="M446.18 80.165C446.18 80.165 446.19 80.1356 446.2 80.1159C446.347 79.3697 446.445 78.8983 446.18 80.165Z" fill="#0B4779"/>
<path d="M491.81 89.6308C490.936 87.4705 486.989 81.9129 484.131 82.2958C481.382 82.6591 478.181 81.8245 475.353 82.011C472.496 82.1976 469.638 82.61 466.81 82.993C464.247 83.3366 461.694 83.8276 459.122 84.132C457.747 84.2989 456.078 84.1615 454.575 84.348C453.652 83.0912 452.592 81.9521 451.531 81.0782C450.628 80.332 446.769 77.612 446.19 80.1159C446.072 80.6953 445.915 81.4514 445.866 81.6772C445.522 83.1795 445.502 84.8684 445.355 86.4003C445.011 89.8664 444.845 93.2737 444.795 96.7497C444.658 105.44 444.442 113.924 445.178 122.584C445.561 127.121 447.378 131.873 450.766 135.045C452.661 136.812 456.854 139.022 457.551 134.75C458.051 131.677 458.464 128.525 458.788 125.334C463.148 126.856 467.468 126.512 472.093 126.021C474.882 125.726 477.867 125.559 480.783 125.157C480.999 126.836 481.294 128.495 481.686 130.125C482.069 131.716 489.287 143.116 490.661 138.845C493.037 131.52 492.429 122.751 492.743 115.102C493.077 106.962 494.903 97.3389 491.8 89.6308H491.81ZM480.243 114.277C473.232 114.091 466.378 116.349 459.407 116.418C459.505 113.757 459.524 111.096 459.446 108.444C459.996 109.21 460.496 109.78 460.781 109.898C466.378 112.176 473.733 111.518 480.322 110.762C480.282 111.93 480.263 113.109 480.243 114.287V114.277ZM480.616 102.867C476.512 103.172 472.545 103.181 468.43 102.798C465.426 102.514 462.136 101.659 459.073 101.866C458.857 99.3518 458.542 96.8578 458.13 94.4029C462.873 96.3373 468.853 95.2769 473.792 94.4717C475.864 94.128 478.21 93.5585 480.616 93.0381C480.469 96.6025 480.665 100.226 480.616 102.877V102.867Z" fill="#0B4779"/>
<path d="M533.905 39.7784C530.576 43.2937 524.469 45.6504 519.913 47.2509C515.219 48.9005 510.388 49.9316 505.557 51.0608C502.758 51.7187 511.203 61.7441 514.993 60.8604C520.522 59.5642 526.099 58.0128 531.175 55.4402C536.34 52.8184 538.736 49.5682 541.986 44.9041C542.89 43.6079 535.27 38.3645 533.915 39.7883L533.905 39.7784Z" fill="#FF90BE"/>
</svg>
