<svg width="594" height="147" viewBox="0 0 594 147" fill="none" xmlns="http://www.w3.org/2000/svg">
<path d="M6.92637 67.0765C11.6003 67.9111 15.4004 66.2811 19.7209 64.818C24.817 63.1095 30.2864 62.1177 35.6575 62.049C40.3904 61.9803 45.1331 61.8722 49.866 61.6071C51.9575 61.4893 54.0293 61.2634 56.0914 60.9198C57.9963 60.5957 60.1075 59.4763 62.0026 59.496C64.5752 59.5353 63.1809 57.375 62.2088 56.3538C60.1271 54.1641 56.7394 52.4949 53.8624 51.729C50.514 50.8452 47.5093 49.1465 44.0628 48.3806C41.5883 47.8307 39.0255 47.5558 36.4921 47.5852C32.211 47.6343 27.6352 48.3708 23.678 50.0008C20.094 51.4736 16.5591 52.9073 12.8376 54.0365C8.69383 55.2933 2.8121 55.421 0.445659 59.496C-0.634459 61.3518 5.27673 66.7917 6.91655 67.0863L6.92637 67.0765Z" fill="#0B4779"/>
<path d="M30.4435 27.2692C18.3756 29.0268 20.8697 44.6787 18.9451 53.3098C17.7766 58.5435 16.343 63.7379 15.1549 68.9814C14.0846 73.7339 11.6985 79.7629 12.7295 84.6333C15.096 95.7781 27.0657 100.59 35.4415 106.422C44.3083 112.599 53.0965 119.315 63.8289 121.711C68.8564 122.84 68.5225 117.636 67.3148 114.179C65.7241 109.633 61.6098 102.995 56.602 101.483C49.0608 99.2149 42.1088 95.3952 35.2549 91.5853C32.1128 89.8375 28.9411 88.0896 25.6615 86.6168C23.6191 85.7036 21.3312 84.7315 19.1219 84.378C17.3839 84.103 16.1663 84.6038 14.4283 84.5154C16.7063 88.5806 18.9746 92.636 21.2527 96.7011L22.4702 96.6619C23.1871 96.711 23.6486 96.3967 23.8744 95.7192C25.907 90.6132 26.7318 84.8493 28.2047 79.5469C29.7954 73.8223 31.2388 67.6558 33.5071 62.1668C36.9929 53.7419 47.961 41.0652 41.0876 31.7762C39.2121 29.2527 33.6446 26.788 30.4435 27.2495V27.2692Z" fill="#FF90BE"/>
<path d="M56.602 35.1148C54.5989 38.6595 50.6417 40.2895 48.8742 44.2565C46.6649 49.225 45.624 55.2541 44.1021 60.4779C41.8044 68.3628 39.1826 76.0905 36.4234 83.8281C33.6937 91.4871 30.9541 99.1264 27.5959 106.52C25.5731 110.968 23.6093 114.778 22.8532 119.639C22.1757 123.979 22.9416 128.27 24.6894 132.316C29.167 142.685 37.15 127.298 39.5852 123.135C44.4948 114.719 49.2375 106.167 53.2929 97.2903C57.3482 88.4137 60.9126 79.5174 63.9075 70.3855C65.4295 65.7508 67.0104 61.0278 68.1592 56.2753C68.6993 54.0267 68.9546 51.5031 68.7288 49.2152C68.4047 45.9159 66.6765 42.381 66.5096 39.2192C66.4114 37.2848 57.5839 33.3571 56.5922 35.1148H56.602Z" fill="#0B4779"/>
<path d="M127.762 66.5069C125.327 63.571 121.664 60.0851 117.638 59.7513C116.941 59.6629 116.205 59.6335 115.429 59.6825C112.532 59.8789 109.567 60.5074 106.631 61.1751C106.562 61.0474 106.503 60.9099 106.435 60.7823C105.413 58.9559 103.911 56.6877 102.095 54.5471C102.88 53.0644 103.617 51.5326 104.5 50.1873C106.395 47.3103 108.369 44.2565 110.647 41.6838C115.105 36.6564 122.155 32.6207 120.172 24.8929C119.239 21.2794 110.146 14.1605 106.238 16.0654C105.286 16.5269 102.291 15.6236 101.329 15.5941C100.091 15.5548 98.8346 15.7217 97.6072 15.8494C94.4552 16.1734 91.588 17.175 88.4851 17.7052C82.2793 18.7559 77.2126 19.6298 71.4487 22.3792C71.3407 22.6443 71.2425 22.9192 71.1345 23.1844C71.1148 23.695 71.0952 24.2056 71.0756 24.7064C70.9381 28.2118 77.2813 33.4062 80.3744 34.2409C84.145 35.2621 86.0008 33.9365 89.6143 32.7974C91.5389 32.1886 93.4536 31.8253 95.388 31.5111C92.3048 36.1556 88.1414 41.5955 87.5523 46.839C87.4737 47.5361 87.8665 48.8126 88.544 50.2953C88.6226 51.5915 88.6815 52.8385 89.1528 54.3114C89.9482 56.8055 90.5766 59.329 91.2639 61.8526C91.4701 62.5989 91.6862 63.3451 91.9022 64.0914C84.4494 65.3777 76.9475 66.4676 69.475 67.6263C68.2083 67.8227 73.118 79.1541 76.103 78.9872C82.5346 78.6337 88.9368 78.1133 95.3389 77.6125C96.6449 84.2307 97.5188 90.8587 97.7348 97.6143C97.8428 101.031 98.0785 104.399 97.7643 107.807C97.6857 108.671 97.5777 109.525 97.4697 110.389C97.3813 110.379 97.2733 110.37 97.1457 110.389C95.3978 109.987 93.7089 109.054 92.1182 108.239C89.1332 106.707 86.3249 104.851 83.6246 102.868C80.777 100.786 78.0767 97.5947 74.5614 96.8189C68.9055 95.5621 73.9133 109.044 74.5908 110.556C78.8622 120.13 90.0267 126.503 98.864 131.412C103.842 134.181 108.271 135.674 111.03 129.35C113.318 124.107 114.29 117.135 114.614 111.469C115.292 99.6469 113.289 88.3056 111.325 76.7189C111.325 76.6993 111.325 76.6895 111.325 76.6699C117.511 76.4538 123.785 76.1789 129.588 74.6471C133.281 73.675 128.921 67.8816 127.772 66.4873L127.762 66.5069Z" fill="#0B4779"/>
<path d="M234.252 34.0641C233.103 31.5504 225.346 26.4444 222.518 27.7896C218.345 29.7731 217.176 32.8563 215.88 37.0982C214.996 39.9655 214.152 42.8425 213.317 45.7294C211.167 46.0534 209.016 46.348 206.856 46.6229C206.974 46.3382 207.082 46.0436 207.2 45.7588C209.36 40.535 212.542 35.0755 211.982 29.2919C211.707 26.4542 202.045 19.7869 199.384 21.3187C195.063 23.803 193.767 28.6635 192.127 33.1411C190.301 38.1096 187.748 43.8441 187.159 49.1563C182.475 49.8731 177.84 50.9238 173.814 52.9956C171.212 54.331 179.942 64.0717 181.788 64.5725C182.642 64.7983 183.506 65.0046 184.36 65.1911C184.301 65.3679 184.262 65.5544 184.203 65.7312C182.779 70.2088 180.001 74.3819 178.233 78.7908C175.651 85.242 181.11 96.2494 186.805 99.696C188.799 100.904 190.821 102.033 192.864 103.152C191.705 105.381 190.419 107.532 188.946 109.604C186.589 112.893 183.496 115.348 181.945 119.138C180.982 121.485 181.454 124.892 181.847 127.249C182.072 128.584 182.632 133.131 184.292 133.7C191.244 136.106 198.451 125.059 201.603 120.081C203.596 116.939 205.432 113.698 207.161 110.409C213.268 113.374 219.395 116.32 225.326 119.649C229.725 122.113 229.391 115.888 228.763 113.315C227.702 108.975 224.717 102.033 220.348 99.8826C220.417 99.9906 220.485 100.108 220.554 100.216C219.877 99.7353 219.14 99.2934 218.355 98.881C216.852 98.1053 215.399 97.2117 214.005 96.2298C214.476 95.1791 214.947 94.1383 215.419 93.0876C219.818 83.2586 225.631 74.1856 229.873 64.2583C230.491 62.7952 231.139 61.2634 231.777 59.6825C232.75 59.388 233.712 59.1032 234.674 58.8086C236.334 58.3078 235.695 56.1083 233.977 53.575C236.029 46.9961 236.991 40.0637 234.281 34.0935L234.252 34.0641ZM203.812 77.5634C202.732 80.0084 201.711 82.473 200.7 84.9475C198.264 83.1505 195.633 81.5009 192.913 80.2146C193.041 79.5174 193.178 78.8104 193.345 78.1329C194.003 75.2951 195.309 72.4475 196.35 69.6982C196.821 68.4806 197.361 67.4103 197.931 66.3792C201.299 66.3007 204.657 65.9669 208.005 65.4563C206.846 69.5803 205.54 73.6455 203.802 77.5536L203.812 77.5634Z" fill="#0B4779"/>
<path d="M285.862 18.0292C282.631 15.1031 278.547 12.5206 274.069 12.4421C270.632 12.3832 267.166 13.5124 263.808 14.1506C257.681 15.3191 245.279 15.7414 242.549 22.2319C241.165 25.5115 248.883 33.2098 251.661 34.2212C257.857 36.4796 264.014 34.5747 270.122 32.6698C270.465 32.5617 270.819 32.4537 271.172 32.3457C270.485 33.6222 269.709 34.8398 268.776 35.9494C267.304 37.7267 265.939 39.4745 264.741 41.4776C264.269 42.273 262.021 48.3118 260.872 48.2529C258.584 48.1449 258.466 50.7568 258.751 52.4654C259.988 59.7905 262.541 66.8408 262.404 74.3231C262.276 81.1965 263.219 89.1207 262.05 95.7978C261.824 97.0153 261.461 98.1838 260.96 99.313C260.892 99.4211 260.842 99.5094 260.784 99.6076C259.301 99.1658 257.946 98.3213 256.63 97.5259C253.871 95.8665 251.337 93.9124 248.735 92.0272C237.09 83.5728 237.532 101.876 239.819 108.828C242.824 117.95 250.493 121.446 258.427 125.668C261.579 127.347 264.996 130.45 268.639 128.152C271.614 126.277 273.087 122.104 274.216 118.971C277.732 109.221 277.486 99.4603 276.082 89.3072C274.796 80.0182 273.598 70.847 270.514 62.0981C270.455 61.1849 270.397 60.2717 270.338 59.3585C272.714 56.4127 274.933 53.3982 276.701 50.0302C278.822 45.9945 280.962 40.9769 284.605 37.8936C287.453 35.4781 292.244 33.1313 292.46 28.6635C292.647 24.7162 288.464 20.3564 285.872 18.0096L285.862 18.0292Z" fill="#0B4779"/>
<path d="M235.077 84.5449C239.908 86.4007 245.554 84.4172 250.64 84.2405C256.06 84.0441 261.432 83.5237 266.744 82.3847C272.056 81.2456 277.319 79.1443 282.612 78.9381C285.057 78.8399 288.631 79.8415 290.88 78.9774C292.647 78.2998 293.452 76.0218 294.002 74.3132C294.66 72.2904 290.791 67.9994 289.534 66.772C287.384 64.6511 284.9 61.3125 281.895 60.4484C279.764 59.8298 276.985 60.5172 274.884 60.9983C270.131 62.0981 265.359 63.0898 260.636 64.327C255.913 65.5642 251.102 66.6836 246.163 67.2728C241.744 67.803 235.813 66.3793 232.21 69.1287C229.45 71.23 231.866 83.3273 235.067 84.5547L235.077 84.5449Z" fill="#FF90BE"/>
<path d="M407.002 0.855399C399.264 6.69786 389.003 10.7434 379.714 13.2767C375.021 14.5532 370.19 15.4664 365.388 16.2029C360.626 16.9295 355.235 16.5957 351.445 19.8164C348.911 21.9668 358.063 30.6175 360.066 31.1183C366.174 32.6403 371.839 31.3638 377.957 30.2641C384.074 29.1643 389.632 27.8878 395.406 26.2971C404.881 23.6753 417.46 19.836 421.201 9.84981C422.585 6.14796 409.958 -1.36376 407.012 0.865211L407.002 0.855399Z" fill="#FF90BE"/>
<path d="M406.943 104.507C403.143 103.948 399.245 103.859 395.337 104.016C395.406 101.817 395.445 99.6174 395.455 97.4081C401.67 96.9564 407.905 96.4556 413.826 94.59C414.475 95.0711 415.074 95.2184 415.299 94.482C416.92 89.2483 417.715 83.6808 418.422 78.2508C419.001 73.8026 420.052 68.7653 419.689 64.2779C419.306 59.5942 415.682 55.5781 412.167 52.7502C408.573 49.8633 404.979 49.3232 400.423 49.4116C397.772 49.4607 395.111 49.6767 392.45 50.0008C392.273 48.9894 392.077 47.9878 391.88 46.9862C395.023 46.3676 398.165 45.749 401.307 45.1108C406.177 44.119 411.568 43.4611 416.144 41.5169C417.028 41.1438 409.722 35.3406 408.2 35.2522C401.219 34.8202 394.05 35.4388 386.951 36.1065C386.028 35.3995 385.046 34.7907 384.143 34.2899C383.308 33.8186 377.289 30.7943 376.818 32.9545C376.523 34.2998 376.287 35.6548 376.091 37.0099C376.042 37.0099 376.003 37.0099 375.954 37.0099C371.123 37.2946 366.193 37.658 361.392 38.3257C356.963 38.9345 350.551 39.5531 348.155 43.6477C346.486 46.5051 353.821 53.3 356.295 53.8008C361.284 54.8122 366.517 52.4065 371.378 51.2184C372.733 50.8845 374.098 50.5801 375.463 50.2855C375.482 51.2183 375.512 52.1414 375.561 53.0742C373.892 53.4375 372.232 53.791 370.592 54.1445C364.337 55.4701 356.276 56.6386 353.035 62.4319C352.171 61.4893 351.435 61.0965 351.091 61.8428C349.775 64.7002 350.149 67.8227 350.384 70.8961C350.757 75.6683 351.415 80.4601 352.162 85.1832C352.495 87.3238 353.448 90.24 354.842 92.4101C355.147 95.8468 357.081 101.277 359.28 101.031C365.908 100.285 372.546 99.588 379.184 98.9104C379.214 101.08 379.184 103.241 379.125 105.401C375.001 105.804 370.887 106.187 366.763 106.55C362.894 106.894 358.839 106.314 356.256 109.525C354.97 111.135 357.994 117.214 359.536 118.038C363.679 120.238 367.863 119.138 372.379 118.677C374.324 118.48 376.258 118.264 378.202 118.048C378.114 118.853 378.025 119.659 377.927 120.474C377.77 121.681 377.878 122.987 378.163 124.323C376.896 124.45 375.63 124.588 374.363 124.725C365.624 125.658 356.472 126.139 348.018 128.663C343.167 130.116 346.604 146.298 350.865 145.051C360.262 142.321 370.268 141.703 379.93 140.308C385.027 139.572 390.113 138.845 395.16 137.854C400.04 136.901 405.863 136.734 409.526 133.062C411.283 131.304 406.707 125 404.999 124.333C401.209 122.86 397.458 122.83 393.599 123.056C393.972 120.778 394.266 118.49 394.512 116.192C400.58 115.456 406.865 114.366 411.971 111.784C413.434 111.037 408.239 104.674 406.933 104.488L406.943 104.507ZM395.307 86.2633C395.268 84.486 395.219 82.6989 395.17 80.9118C396.898 80.5485 398.636 80.1851 400.364 79.8316C402.888 79.321 405.745 79.0363 408.416 78.3882C408.259 80.4306 408.112 82.473 408.043 84.5154C408.023 85.2322 408.19 85.9981 408.465 86.7837C404.076 86.1651 399.697 86.0963 395.307 86.2534V86.2633ZM399.598 64.4351C402.299 63.8165 404.999 63.1487 407.738 62.7363C408.18 62.6676 408.622 62.6185 409.064 62.5596C409.103 64.6707 409.094 66.7917 409.035 68.9126C409.035 69.1778 409.005 69.4331 408.995 69.6982C408.436 69.2072 407.945 68.8734 407.64 68.8439C403.85 68.4217 399.883 69.708 396.142 70.415C395.671 70.5034 395.199 70.5917 394.728 70.6801C394.63 68.9814 394.512 67.2826 394.375 65.5839C396.113 65.2206 397.851 64.8475 399.589 64.4449L399.598 64.4351ZM358.947 89.2876C358.721 82.9934 359.084 76.6698 357.798 70.5033C359.732 69.5214 362.727 70.1793 365.015 70.0418C368.913 69.816 372.743 69.325 376.572 68.7457C376.71 70.3757 376.877 71.9959 377.053 73.6161C371.771 74.2445 366.429 74.7944 361.411 76.0512C360.007 76.4047 363.493 83.8772 364.927 84.1914C369.218 85.1242 373.774 84.8886 378.261 84.2405C378.369 85.2911 378.477 86.332 378.575 87.3827C372.016 87.8933 365.476 88.5315 358.937 89.2876H358.947Z" fill="#0B4779"/>
<path d="M484.957 57.6401C483.789 44.2368 469.03 39.7985 457.738 38.0213C455.873 37.7267 454.007 37.5205 452.141 37.383C451.689 31.3442 450.472 25.4232 447.85 19.4727C447.006 17.5579 436.195 11.2049 435.282 14.5336C433.19 22.1926 434.064 29.5964 434.123 37.383C429.518 37.5892 424.912 37.8445 420.307 37.8838C417.145 37.9034 420.955 43.6084 421.397 44.1681C423.616 46.947 426.778 49.6964 430.352 50.4426C431.403 50.6587 432.503 50.8747 433.632 51.0711C433.151 57.4045 432.296 63.7183 430.941 69.8749C428.899 79.1738 427.279 88.2861 423.842 97.2118C422.045 101.876 420.68 107.1 418.245 111.43C415.879 115.642 413.669 118.765 413.699 123.783C413.699 125.491 414.425 130.204 416.222 131.088C420.376 133.14 423.145 129.173 425.531 126.159C428.663 122.221 431.688 118.814 434.034 114.307C438.856 105.077 443.657 95.2283 446.456 85.1832C449.274 75.0693 451.12 64.5823 451.876 54.115C451.945 53.1625 452.004 52.2297 452.063 51.2871C452.76 51.1103 453.457 50.9139 454.115 50.6783C458.062 49.2545 460.861 47.8994 465.093 49.1269C465.662 49.2938 466.251 49.4803 466.841 49.6767C466.791 55.1657 466.173 60.8019 465.908 66.0945C465.613 72.0352 465.083 77.9562 464.651 83.887C463.885 94.482 461.411 104.782 459.673 115.22C457.09 114.268 454.311 113.836 451.64 113.993C447.3 114.248 443.147 112.333 438.905 113.286C436.99 113.718 441.114 121.622 441.939 122.32C444.099 124.156 446.181 125.717 448.675 127.062C451.631 128.653 453.909 130.646 456.56 132.738C459.565 135.104 464.072 138.246 468.196 138.276C468.412 138.443 468.628 138.6 468.844 138.767C471.848 139.817 473.429 138.453 474.529 135.792C479.37 124.028 481.245 111.047 483.307 98.5766C485.527 85.1635 486.086 71.1907 484.908 57.6401H484.957Z" fill="#0B4779"/>
<path d="M570.738 13.9837C560.654 23.4495 554.811 35.1442 549.008 47.4772C545.827 54.223 543.205 61.1358 541.084 68.2842C540.043 71.7897 539.356 75.5701 539.091 79.1934C538.443 88.0405 540.426 94.4132 544.059 102.642C545.179 105.175 548.115 110.644 551.62 110.104C556.382 109.368 557.855 105.303 559.741 101.169C561.361 97.6045 562.922 94.0106 564.277 90.3088C566.83 83.3469 570.021 76.5029 573.046 69.6982C579.193 55.8432 587.313 42.9505 593.028 28.8697C594.776 24.5492 587.362 19.4727 584.475 17.5481C581.588 15.6235 574.175 10.763 570.738 13.9837Z" fill="#0B4779"/>
<path d="M537.186 143.519C539.032 145.414 541.084 146.239 543.666 146.288C546.475 146.347 547.791 144.099 548.91 141.87C549.126 141.006 549.332 140.132 549.548 139.268C549.803 137.569 549.833 135.88 549.646 134.181C549.44 130.892 548.851 127.484 547.702 124.382C546.907 122.221 545.974 120.061 544.697 118.127C544.128 117.272 541.339 113.728 539.591 114.69C538.384 115.358 537.245 115.721 536.057 116.536L537.539 115.603C536.548 116.183 535.517 116.516 534.358 116.448L535.968 116.605C535.546 116.546 535.173 116.448 534.78 116.281C532.905 115.476 531.491 117.204 530.98 118.765C530.204 121.151 530.273 123.714 530.489 126.169C530.764 129.33 531.402 132.6 532.551 135.566C533.67 138.453 534.986 141.261 537.176 143.51L537.186 143.519Z" fill="#0B4779"/>
<path d="M142.736 51.6896C142.844 51.0514 142.815 50.1775 143.08 49.5883C143.365 48.9697 144.278 48.8028 144.857 48.577C145.535 48.3118 146.212 48.0467 146.89 47.7914C149.973 46.6033 153.037 45.4053 156.081 44.1485C157.122 43.7164 154.461 41.8017 153.597 42.0864C150.189 43.1862 146.811 44.3743 143.434 45.5526C142.304 45.9454 140.566 46.1712 139.859 47.2415C139.123 48.3413 139.074 50.1186 138.828 51.3852C137.601 57.6892 136.118 63.9539 134.4 70.1302C133.978 71.6326 137.159 74.3132 137.67 72.6341C139.516 66.5167 141.077 60.3306 142.304 54.0463C142.462 53.2607 142.609 52.4752 142.736 51.6896Z" fill="#0B4779"/>
<path d="M156.876 92.5279C156.601 91.8209 156.287 91.1238 155.992 90.4168C155.659 89.6214 155.256 88.7181 154.706 88.0503C154.372 87.6478 153.96 87.2746 153.459 87.0881C153.243 87.0095 152.713 86.8524 152.674 87.2354C152.615 87.8834 152.85 88.6395 153.017 89.268C153.253 90.1517 153.508 91.055 153.803 91.9191C153.881 92.1352 153.95 92.361 154.019 92.577C153.243 92.3512 152.418 92.5083 151.623 92.7538C150.287 93.1564 148.942 93.5 147.597 93.8437C146.566 94.1088 145.535 94.3347 144.494 94.5507C145.859 92.7341 147.194 90.8979 148.491 89.0323C150.7 85.841 153.047 82.6007 154.755 79.105C155.246 78.1035 152.654 76.3262 151.957 77.2197C151.976 77.2197 151.986 77.2001 152.006 77.2001C151.917 77.2983 151.829 77.3965 151.741 77.5045C151.407 77.9169 151.122 78.3686 150.818 78.8104C150.287 79.596 149.757 80.3815 149.237 81.1671C149.188 81.2456 149.129 81.3242 149.08 81.4027C148.765 81.2358 148.432 81.1474 148.127 81.1965C146.792 81.4224 145.466 81.8839 144.16 82.2668C144.759 81.0001 145.358 79.7433 145.957 78.4766C146.566 77.2001 147.204 75.9334 147.744 74.6274C147.941 74.1561 148.088 73.7142 147.96 73.2036C147.725 72.2806 146.802 71.7406 145.987 71.3969C145.672 71.2693 145.083 71.1416 145.231 71.6718C145.24 71.6915 145.26 71.7111 145.27 71.7308C145.201 71.9861 145.162 72.2512 145.054 72.5065C144.848 73.0073 144.524 73.4884 144.268 73.9695C143.689 75.0791 143.129 76.2083 142.57 77.3277C142 78.4471 141.44 79.5665 140.871 80.6761C140.321 81.766 139.702 82.8461 139.221 83.9655C138.976 84.5547 139.702 85.4286 140.075 85.7723C140.566 86.224 141.254 86.6265 141.951 86.4793C143.365 86.165 144.759 85.7035 146.154 85.301C146.262 85.2715 146.379 85.2421 146.487 85.2126C146.281 85.517 146.075 85.8214 145.869 86.1258C143.61 89.3465 141.283 92.5279 138.858 95.6308C137.935 96.8091 140.046 98.773 141.214 98.6257C145.83 98.0169 150.641 97.0644 155.001 95.3853C155.079 95.5817 155.138 95.7879 155.217 95.9843C155.56 96.8484 156.375 97.7518 157.338 97.9285C158.163 98.0856 158.693 97.5947 158.418 96.7502C157.956 95.3166 157.406 93.9124 156.866 92.5083L156.876 92.5279Z" fill="#0B4779"/>
<path d="M166.322 62.1668C165.949 61.9311 165.517 61.7151 165.075 61.6562C164.732 61.6071 164.142 61.5384 163.877 61.833C162.709 63.1291 161.747 64.6511 160.716 66.0651C160.323 66.6051 159.92 67.1452 159.527 67.6852C158.948 66.4382 158.349 65.2108 157.426 64.1896C156.984 63.6986 156.199 63.296 155.531 63.2567C155.217 63.2371 154.961 63.3451 154.844 63.5415C154.844 63.512 154.844 63.4727 154.844 63.4433C154.549 63.9539 155.06 64.7689 155.276 65.25C155.59 65.9668 155.943 66.6738 156.248 67.4005C156.739 68.5591 157.171 69.7473 157.544 70.955C157.789 71.7209 158.496 72.3788 159.243 72.6734C159.822 72.8992 160.706 73.1251 161.138 72.5261C162.169 71.1416 163.2 69.7473 164.231 68.3628C164.741 67.6754 165.242 66.9979 165.753 66.3105C166.293 65.5839 166.902 64.8671 167.373 64.0914C167.805 63.3746 166.843 62.5006 166.332 62.1766L166.322 62.1668Z" fill="#0B4779"/>
<path d="M308.77 53.8302C309.026 52.1217 309.104 50.3837 309.369 48.685C309.507 47.7619 309.742 47.4576 310.646 47.2906C311.52 47.1237 312.423 47.055 313.307 46.9273C315.025 46.6818 316.734 46.3971 318.442 46.0927C319.375 45.9257 320.298 45.749 321.221 45.533C321.948 45.3661 322.782 45.3071 323.136 44.5903C323.411 44.0404 322.311 43.3629 321.987 43.1862C320.298 42.2828 318.315 43.0094 316.537 43.3138C314.613 43.6477 312.688 43.9324 310.754 44.1877C309.526 44.3448 307.553 44.2467 306.63 45.2679C306.119 45.8276 306.07 46.5935 305.982 47.3103C305.854 48.302 305.707 49.2937 305.579 50.2757C305.098 54.007 304.46 57.7285 303.674 61.4107C303.291 63.2174 302.859 65.0046 302.407 66.7917C301.946 68.5984 301.062 70.6113 301.033 72.4672C301.023 73.1644 301.661 73.9303 302.172 74.3231C302.476 74.5587 303.487 75.1871 303.812 74.6765C304.715 73.2625 305.029 71.3576 305.471 69.7473C305.952 67.9994 306.384 66.2418 306.787 64.4841C307.592 60.959 308.25 57.4044 308.78 53.8302H308.77Z" fill="#0B4779"/>
<path d="M325.306 94.914C324.992 93.9616 324.697 93.0091 324.353 92.0763C324.01 91.1336 323.666 90.1811 323.313 89.2385C323.126 88.7181 322.91 88.2173 322.694 87.7067C322.566 87.4023 322.448 87.1175 322.291 86.8229C322.193 86.6167 322.066 86.4302 321.908 86.2534C321.565 85.9098 321.535 85.8705 321.81 86.1356C321.565 85.7625 321.143 85.3992 320.74 85.2126C320.593 85.1439 320.072 84.9376 320.062 85.2813C320.062 85.7625 320.053 86.1651 320.161 86.6462C320.288 87.1765 320.406 87.7067 320.544 88.2369C320.789 89.1501 321.034 90.0535 321.28 90.9667C321.133 90.947 320.995 90.9471 320.868 90.9863C317.892 91.8602 314.927 92.7439 311.952 93.6277C313.385 91.2711 314.78 88.9046 316.115 86.4989C318.207 82.7283 320.436 78.8301 321.791 74.7256C322.007 74.0579 319.886 72.4377 319.454 73.1054C318.275 74.8926 317.225 76.7877 316.213 78.7024C315.978 78.6632 315.752 78.673 315.565 78.7712C314.416 79.3603 313.248 79.8709 312.06 80.3422C312.325 79.7629 312.59 79.1738 312.826 78.5748C313.258 77.5143 313.65 76.444 314.004 75.3639C314.171 74.8631 314.328 74.3623 314.456 73.8517C314.524 73.5571 314.593 73.2626 314.662 72.968C314.691 72.8207 314.721 72.6734 314.76 72.5261C314.721 72.2806 314.701 72.0352 314.701 71.7897C314.799 71.0532 312.452 69.5509 312.168 70.2972C312.06 70.5819 311.844 70.739 311.726 71.0238C311.569 71.4067 311.441 71.8682 311.313 72.2316C311.137 72.7225 310.98 73.2233 310.813 73.7241C310.459 74.7453 310.057 75.7468 309.625 76.7386C308.819 78.5846 307.896 80.3815 306.846 82.0999C306.443 82.7578 306.963 83.5237 307.435 84.0048C307.985 84.5743 308.731 85.026 309.546 84.8689C310.901 84.594 312.246 84.211 313.562 83.7495C313.464 83.9263 313.375 84.103 313.277 84.2798C311.196 88.0111 308.996 91.6638 306.689 95.2675C305.982 96.3771 307.945 98.3802 309.104 98.0463C313.493 96.7895 317.883 95.513 322.272 94.2365C322.586 95.2675 322.831 96.3771 323.322 97.3393C323.666 98.0169 324.422 98.6748 325.178 98.8712C325.689 98.9988 326.406 98.8221 326.298 98.1445C326.131 97.0546 325.669 95.9843 325.326 94.9336L325.306 94.914Z" fill="#0B4779"/>
<path d="M337.285 59.6334C335.675 58.9461 334.88 60.4091 333.976 61.4402C333.181 62.3534 332.327 63.2175 331.433 64.0325C331.001 64.4252 330.549 64.818 330.098 65.1813C330.019 65.25 329.931 65.3188 329.852 65.3777C329.744 65.1224 329.646 64.8671 329.538 64.6118C328.988 63.2666 328.428 61.9311 327.525 60.7823C327.201 60.3699 325.316 59.0737 325.424 60.3601C325.571 62.1472 326.484 63.9048 327.132 65.5544C327.535 66.5855 327.859 67.6754 328.684 68.4609C329.175 68.9323 329.852 69.3545 330.549 69.3938C331.099 69.4232 331.453 69.1974 331.895 68.8832C333.259 67.9012 334.526 66.772 335.714 65.5839C336.303 64.9849 336.883 64.3663 337.433 63.7281C337.688 63.4335 337.924 63.1193 338.189 62.8247C338.316 62.6774 338.365 62.6185 338.434 62.589C338.532 62.6185 338.631 62.6479 338.729 62.6479C339.102 62.6479 339.338 62.4417 339.347 62.049C339.367 60.9689 338.208 60.0066 337.315 59.6236L337.285 59.6334ZM330.657 67.4397C330.687 67.5085 330.706 67.587 330.746 67.6165C330.706 67.587 330.677 67.5183 330.657 67.4397ZM337.884 62.3632C337.776 62.3141 337.717 62.2748 337.884 62.3632Z" fill="#0B4779"/>
<path d="M510.595 46.2203C509.878 44.7867 508.298 43.795 506.697 43.8539C505.146 43.9128 503.516 44.6591 502.062 45.1598C500.57 45.6704 499.087 46.2203 497.624 46.8291C497.329 46.9568 497.025 47.0746 496.711 47.2023C496.789 46.672 496.868 46.1516 496.956 45.6214C497.221 43.8735 497.496 42.1159 497.771 40.368C497.938 39.3174 495.081 37.6187 494.855 38.8363C494.531 40.5448 494.217 42.2435 493.893 43.9521C493.745 44.7278 493.598 45.5035 493.451 46.2694C493.274 47.1826 493.225 48.3315 492.822 49.1759C492.135 50.6586 494.501 52.3476 495.837 51.9155C497.703 51.3067 499.499 50.4426 501.326 49.6669C500.884 50.4524 500.737 51.5129 500.472 52.3181C500.098 53.4866 499.735 54.6551 499.283 55.7941C498.419 58.0231 497.369 60.1735 496.151 62.2355C495.984 62.5105 496.2 63.08 496.318 63.3156C496.534 63.7575 496.897 64.1798 497.28 64.4743C497.83 64.8966 498.714 65.3089 499.156 64.5725C500.432 62.4319 501.512 60.203 502.386 57.8758C502.809 56.7466 503.211 55.5977 503.516 54.4292C503.82 53.2215 504.291 51.8467 503.928 50.6095C503.781 50.1087 503.28 49.6571 502.858 49.3821C502.779 49.333 502.661 49.2545 502.524 49.1955C502.75 49.1072 502.975 49.009 503.201 48.9304C504.448 48.4788 505.715 48.0565 506.992 47.6736C507.06 47.6539 507.139 47.6343 507.217 47.6049C507.237 47.7914 507.247 47.978 507.267 48.1744C507.649 53.2018 507.61 58.19 507.394 63.2174C506.756 62.9523 506.118 62.6872 505.479 62.4123C504.281 61.9115 503.093 61.2634 501.787 61.1652C500.295 61.0474 501.512 63.08 501.915 63.4826C502.897 64.4743 504.223 64.9653 505.47 65.5544C506.687 66.1338 507.895 66.7229 509.132 67.263C509.937 67.6165 510.89 67.6067 511.017 66.5462C511.44 63.0996 511.558 59.6138 511.548 56.1378C511.548 54.3408 511.469 52.5341 511.342 50.7372C511.234 49.2741 511.283 47.5656 510.615 46.2203H510.595Z" fill="#0B4779"/>
<path d="M509.289 78.9774C507.296 77.4063 505.312 75.8352 503.319 74.2641C504.615 72.7323 505.961 71.1711 506.923 69.4331C507.237 68.8537 506.677 68.1467 506.255 67.7638C505.902 67.4397 505.057 66.7426 504.556 67.1844C503.682 67.9503 502.907 68.8832 502.16 69.7669C501.552 70.4935 500.923 71.2103 500.305 71.937C500.206 71.8682 500.118 71.7897 500.03 71.7209C499.46 71.2889 498.891 70.8765 498.301 70.4739C497.683 70.0419 497.064 69.6 496.308 69.4527C495.542 69.2956 495.69 70.1989 495.876 70.6212C496.446 71.8977 497.663 72.86 498.743 73.7437C498.341 74.2052 497.938 74.6765 497.536 75.138C496.829 75.953 496.053 76.7386 495.415 77.6027C495.395 77.6223 495.375 77.6321 495.366 77.6518C495.346 77.6714 495.336 77.7009 495.326 77.7303C495.287 77.7794 495.248 77.8285 495.208 77.8776H495.228C494.973 78.4962 495.444 79.2916 495.847 79.7433C496.23 80.1655 497.231 81.0689 497.85 80.5288C498.743 79.7433 499.499 78.7221 500.285 77.8187C500.766 77.2688 501.237 76.6993 501.709 76.1396C501.846 76.2476 501.974 76.3556 502.111 76.4636C504.183 78.1133 506.265 79.7629 508.337 81.4126C508.877 81.8348 510.104 82.3356 510.468 81.442C510.831 80.5485 509.918 79.4389 509.279 78.9479L509.289 78.9774Z" fill="#0B4779"/>
<path d="M507.374 93.7357C504.488 93.8732 501.591 93.9812 498.694 94.1383C498.979 93.7652 499.283 93.392 499.568 93.0091C500.236 92.1254 500.904 91.2318 501.571 90.348C502.151 89.5723 502.936 88.7082 503.201 87.7558C503.447 86.8622 501.905 84.8885 500.933 85.4384C500.118 85.8901 499.529 86.8622 498.959 87.579C498.351 88.3449 497.742 89.1206 497.133 89.8865C495.817 91.5362 494.482 93.1662 493.156 94.806C492.695 95.3657 493.117 96.4556 493.421 96.976C493.775 97.5848 494.423 98.2918 495.189 98.2722C499.922 98.1543 504.664 97.6929 509.387 97.3688C510.359 97.3001 509.947 95.7486 509.662 95.2675C509.171 94.4329 508.396 93.6866 507.374 93.7357Z" fill="#0B4779"/>
<path d="M526.551 81.275C526.218 80.7055 525.894 80.1262 525.579 79.5469C524.98 78.4569 524.401 77.367 523.851 76.2574C522.663 73.9008 521.779 71.338 520.375 69.109C520.041 68.5787 519.354 68.078 518.745 67.9307C518.293 67.8227 517.891 67.9602 517.95 68.4904C518.107 69.7767 518.578 70.9943 519.02 72.2119C519.56 73.6847 520.208 75.1184 520.866 76.5422C521.406 77.7205 521.985 78.8792 522.614 80.028C523.498 81.658 524.381 83.6906 526.443 83.9361C526.787 83.9753 526.993 83.7691 527.131 83.4942C527.504 82.7872 526.905 81.8838 526.561 81.2849L526.551 81.275Z" fill="#0B4779"/>
</svg>
