<svg width="162" height="106" viewBox="0 0 162 106" fill="none" xmlns="http://www.w3.org/2000/svg">
<path d="M73.4879 8.74107C57.938 11.619 45.773 22.2407 40.2175 35.868C39.8243 36.8347 39.4695 37.8154 39.1333 38.8081C37.0493 45.2067 36.3744 52.1559 37.4339 59.2309C37.5073 59.7582 37.5915 60.2766 37.6836 60.8158C37.8369 61.6213 38.0002 62.4278 38.1963 63.2079C43.7295 86.1338 66.3112 100.959 89.7593 96.6103C100.306 94.6544 109.297 89.1458 115.723 81.5547C116.581 80.538 117.393 79.4864 118.149 78.3988C124.828 68.917 127.829 56.8537 125.544 44.5334C121.063 20.2721 97.7504 4.25001 73.4879 8.74107ZM101.44 34.5891C104.855 35.6243 107.664 38.7718 108.261 42.2417C108.97 46.3428 107.102 50.3475 103.724 51.9531C103.134 52.2394 102.465 52.4274 101.735 52.5289L101.683 52.5434C101.612 52.5557 101.54 52.5779 101.468 52.6001C100.689 52.8762 99.9713 53.049 99.2653 53.1132C94.8362 53.5274 91.6835 50.7924 90.2155 48.0882C88.3962 44.747 88.6587 40.8999 90.9123 38.0452C93.4431 34.8406 97.6666 33.4555 101.45 34.5901L101.44 34.5891Z" fill="#F99223"/>
<path d="M118.95 59.7474C119.53 59.6398 120.002 59.151 120.069 58.529C121.268 46.8718 117.655 35.0185 110.128 26.0318C109.641 25.4502 108.771 25.3669 108.188 25.8638C107.607 26.3508 107.524 27.2208 108.011 27.8024C114.951 36.107 118.426 47.4861 117.322 58.2545C117.24 59.0148 117.797 59.6937 118.548 59.7643C118.686 59.7791 118.817 59.7731 118.94 59.7463L118.95 59.7474Z" fill="white"/>
<path d="M101.298 31.8173C99.4983 31.2749 97.6292 31.1944 95.8254 31.5304C92.9618 32.0625 90.2875 33.6236 88.3929 36.0174C85.573 39.5905 85.2209 44.3669 87.4742 48.5037C89.7431 52.6821 94.1481 55.1018 98.6879 54.6795C98.9905 54.652 99.2941 54.6146 99.5999 54.5575C100.16 54.4577 100.736 54.2997 101.328 54.0934C102.221 53.9594 103.077 53.7017 103.857 53.3258C108.15 51.2889 110.542 46.3017 109.669 41.2142C108.925 36.8796 105.565 33.1036 101.298 31.8173ZM102.724 50.947C102.155 51.2157 101.517 51.397 100.817 51.4918L100.766 51.5063C100.695 51.5186 100.622 51.5408 100.56 51.5641C99.8218 51.8346 99.126 51.9897 98.4496 52.0571C94.2124 52.4519 91.1962 49.8414 89.7955 47.2543C88.0503 44.0609 88.3145 40.3837 90.4644 37.6577C92.8806 34.5907 96.9277 33.2666 100.547 34.3536C103.817 35.3433 106.501 38.3477 107.073 41.675C107.751 45.603 105.964 49.4166 102.732 50.958L102.724 50.947Z" fill="#FFCA0A"/>
<path d="M107.065 41.6541C107.743 45.582 105.956 49.3956 102.725 50.937C102.156 51.2057 101.518 51.3869 100.818 51.4818L100.767 51.4962C100.696 51.5086 100.623 51.5308 100.561 51.5541C99.8229 51.8245 99.1271 51.9797 98.4507 52.047C94.2135 52.4419 91.1973 49.8314 89.7966 47.2442C88.0514 44.0508 88.3156 40.3737 90.4655 37.6477C92.8817 34.5807 96.9289 33.2566 100.548 34.3436C103.818 35.3332 106.502 38.3376 107.074 41.665L107.065 41.6541Z" fill="#FFCA0A"/>
<path d="M76.3936 40.4345C75.8868 40.4101 75.3874 40.3166 74.9448 40.1593C74.2882 39.9491 73.7264 39.5993 73.2486 39.1186C72.714 38.7017 72.3017 38.1681 72.0372 37.5605C71.7022 36.8654 71.5425 36.1192 71.5362 35.3394C71.5112 34.8274 71.5588 34.383 71.6734 33.9658C71.7242 33.4918 71.8924 33.0404 72.1453 32.6381C72.4236 31.9987 72.8415 31.4542 73.3772 31.0222L73.4985 30.9154C74.0416 30.4143 74.6676 30.0718 75.3666 29.8871C76.0455 29.6103 76.7744 29.5186 77.4547 29.6015C78.1798 29.6392 78.8474 29.8406 79.4574 30.2057C80.1067 30.485 80.66 30.9138 81.1615 31.5469L81.7892 32.4931C81.7892 32.4931 81.8311 32.5675 81.8565 32.6102C82.2811 33.4946 82.4503 34.4317 82.3762 35.4025C82.3709 35.4519 82.3667 35.4914 82.3614 35.5408L82.1233 36.6439C82.1233 36.6439 82.1039 36.7317 82.0898 36.7701C81.7784 37.6257 81.2801 38.3613 80.5959 38.9672L80.4943 39.0761C80.4943 39.0761 80.4386 39.1301 80.4058 39.1565C79.68 39.7779 78.8273 40.1859 77.8684 40.3728C77.3697 40.4592 76.8577 40.4842 76.3936 40.4345Z" fill="#FFCA0A"/>
<path d="M80.4123 35.1823L80.1989 36.1482C79.9915 36.6853 79.6741 37.1307 79.2435 37.5141C79.2107 37.5405 79.1867 37.5779 79.1649 37.5955L79.0633 37.7045C78.6447 38.0691 78.1192 38.3124 77.5077 38.4267C77.2019 38.4838 76.8708 38.4982 76.5449 38.4633C76.1676 38.4429 75.8636 38.3903 75.5758 38.2796C75.1904 38.1484 74.8804 37.9653 74.6293 37.6987C74.593 37.6648 74.5577 37.6211 74.5115 37.5862C74.2157 37.3647 73.9864 37.0805 73.8337 36.7345C73.6137 36.2715 73.5132 35.8112 73.5058 35.321C73.5079 35.3013 73.509 35.2914 73.5122 35.2618C73.4977 34.9306 73.5154 34.6728 73.5792 34.45C73.6064 34.383 73.6138 34.3138 73.6212 34.2447C73.6444 34.0275 73.7051 33.8342 73.8338 33.6583C73.8709 33.5923 73.897 33.5352 73.9329 33.4791C74.0828 33.1056 74.3153 32.801 74.6432 32.5365L74.8203 32.3757C75.1535 32.0618 75.5027 31.8795 75.9015 31.7924C75.9629 31.779 76.0155 31.7547 76.068 31.7303C76.4556 31.5621 76.8601 31.5156 77.2946 31.5621C77.7816 31.5844 78.1483 31.7036 78.4957 31.9106C78.5419 31.9455 78.5892 31.9706 78.6375 31.9857C79.0109 32.1356 79.3156 32.368 79.5801 32.696L80.1129 33.5022C80.3552 34.0376 80.4571 34.5778 80.4243 35.1636L80.4123 35.1823Z" fill="#FFCA0A"/>
<path d="M83.4916 25.2746C83.2205 23.7973 83.9389 22.1264 85.8348 21.7703C86.7214 21.6056 87.5304 21.7922 88.1828 22.3216C88.7439 22.7712 89.1314 23.442 89.2693 24.2059C89.5405 25.6832 88.822 27.354 86.9261 27.7102C85.0302 28.0663 83.7628 26.7519 83.4818 25.2735L83.4916 25.2746Z" fill="#FFCA0A"/>
<path d="M87.8731 24.4655C87.9806 25.0463 87.8487 26.0909 86.6772 26.3049C86.1982 26.3934 85.7987 26.3006 85.4764 26.0464C85.1815 25.815 84.9728 25.4331 84.8878 25.0145C84.7803 24.4336 84.9122 23.3891 86.0936 23.1761C87.275 22.9631 87.7645 23.8945 87.872 24.4753L87.8731 24.4655Z" fill="#FFCA0A"/>
<path d="M9.0142 37.5578C9.84373 35.1298 17.001 32.6508 38.5399 38.7546C39.46 39.023 40.4065 38.4852 40.6651 37.5641C40.9236 36.643 40.3957 35.6975 39.4745 35.4389C19.8658 29.8716 7.88239 30.2253 5.75813 36.4398C3.36264 43.4143 15.5019 54.0939 34.6179 61.8357C48.8998 67.6212 76.8598 74.8527 102.607 79.4299C124.542 83.3289 139.615 84.5348 147.645 83.0384C151.202 82.3808 153.376 81.1955 154.169 79.4827C155.767 76.0383 154.035 70.7589 129.082 57.6572C128.24 57.2174 127.197 57.5351 126.757 58.3769C126.317 59.2187 126.635 60.2615 127.487 60.7024C152.611 73.8923 151.126 77.8681 151.049 78.0296C150.087 80.104 138.849 82.3553 103.213 76.019C77.6703 71.4837 50.0012 64.3334 35.9204 58.6294C18.4002 50.0698 8.58202 42.895 9.0142 37.5578Z" fill="#1D2D51"/>
</svg>
