<svg width="159" height="403" viewBox="0 0 159 403" fill="none" xmlns="http://www.w3.org/2000/svg">
<path d="M429.633 216.6C427.948 206.191 425.636 196.032 422.131 186.119C396.271 129.26 398.42 109.341 378.346 66.5971C371.533 51.2754 358.987 35.9187 345.44 26.1202C322.778 9.73083 291.952 -0.898085 263.824 0.0597914C249.361 0.551912 234.823 1.43949 220.627 4.41418C206.559 7.3625 193.206 13.8216 178.865 15.4342C151.689 18.4967 136.563 10.7766 104.026 23.8134C84.5973 31.5994 64.1374 46.3059 53.6529 65.0153C36.3777 93.6022 38.1906 114.555 29.6627 146.178C23.7581 168.948 8.51401 187.692 2.87698 210.418C-15.9073 285.725 62.0624 296.155 98.5035 345.147C111.515 361.642 129 374.837 147.425 384.833C194.359 414.369 252.607 405.819 296.19 374.112C319.207 356.571 337.651 343.918 363.23 329.55C381.26 319.334 401.154 310.511 413.932 293.45C421.171 283.937 424.206 273.26 427.369 261.936C431.418 247.028 431.94 231.803 429.633 216.604V216.6Z" fill="#FDCE7C"/>
</svg>
