<svg width="192" height="320" viewBox="0 0 192 320" fill="none" xmlns="http://www.w3.org/2000/svg">
<path fill-rule="evenodd" clip-rule="evenodd" d="M24.1828 62.3692C19.2849 58.1 19.1417 52.4556 19.8291 46.7252C20.2015 43.6308 21.605 40.9662 24.5552 39.3617C25.7868 38.7027 26.9039 37.8718 28.2788 36.9836C28.1642 35.6083 28.2501 34.1757 27.9064 32.8577C26.3597 26.6975 26.8466 20.4227 26.818 14.1766C26.818 13.0019 27.0185 11.7698 27.3908 10.6238C28.1356 8.18834 29.5677 6.38327 32.2601 5.78158C38.1606 4.43493 44.0037 2.83042 49.9041 1.59839C57.294 0.0798366 64.7698 -0.120727 72.2456 0.0511846C73.4486 0.0511846 74.6802 0.108488 75.8546 0.337704C80.953 1.34052 83.6168 4.29167 83.7314 9.53498C83.9032 15.9817 83.7886 22.457 83.8173 28.9324C83.8173 30.7088 83.8173 32.5139 83.8173 34.6914C85.3354 34.9206 86.4524 35.0352 87.5695 35.2644C89.1449 35.6083 90.6916 35.9521 92.2096 36.4392C95.6468 37.5566 97.5372 40.078 97.9382 43.5449C98.5111 48.4157 98.7689 53.3152 94.6156 57.0399C95.1885 60.9366 95.79 64.69 96.2483 68.4721C96.6779 71.9676 98.1101 74.4317 101.776 75.5491C104.669 76.4086 107.362 77.8412 110.14 79.0446C114.207 80.821 117.014 83.8582 118.876 87.8694C122.084 94.7172 123.917 101.938 124.777 109.387C125.464 115.404 125.808 121.45 125.922 127.495C126.323 149.7 126.667 171.906 126.868 194.14C126.925 198.982 126.381 203.795 126.008 208.637C125.894 210.242 125.493 211.818 125.12 213.394C123.889 218.809 120.853 222.706 115.926 225.485C104.297 232.103 91.78 234.252 78.6043 233.593C73.7636 233.335 68.9516 233.106 64.111 232.963C60.2729 232.848 56.4347 232.848 52.5966 232.906C46.1233 232.992 39.7359 232.419 33.3486 231.072C30.3983 230.442 27.4195 230.04 24.8703 228.465C23.3808 227.548 21.8341 226.258 21.0894 224.74C19.3995 221.33 18.0246 217.72 16.793 214.11C13.6996 204.913 11.8378 195.4 10.0333 185.888C8.20013 176.175 6.19513 166.49 4.33334 156.777C3.96098 154.8 3.67455 152.795 3.5027 150.789C2.81527 143.368 1.78413 136.005 0.351983 128.698C0.0369114 127.123 0.00826848 125.489 0.00826848 123.885C-0.0203744 116.006 0.0369113 108.126 0.00826848 100.247C-0.0203744 95.4335 1.8987 91.9093 5.79413 88.9868C9.66091 86.0644 13.7282 83.5716 17.9387 81.2222C19.1703 80.5345 20.402 79.8182 21.5191 78.9873C23.4381 77.612 24.412 75.807 24.3261 73.3142C24.1828 69.6754 24.2974 66.0653 24.2974 62.3405L24.1828 62.3692ZM118.876 108.699C115.668 113.427 111.744 114.315 108.021 115.633C105.758 116.407 103.352 116.751 101.089 117.582C95.79 119.53 89.9755 118.814 84.7339 121.02C83.7027 121.45 82.3279 121.134 81.1249 121.134C77.6877 121.134 74.2506 121.134 70.8421 121.134C69.6391 121.134 68.2642 120.962 67.2617 121.45C64.1969 122.939 60.9603 122.596 57.7523 122.596C50.076 122.624 42.4283 122.624 34.7521 122.596C32.7471 122.596 30.7421 122.28 28.7657 122.051C26.1878 121.765 23.61 121.306 21.0035 121.106C18.5975 120.934 16.1342 121.192 13.7568 120.934C11.2076 120.647 8.7157 119.988 5.56498 119.358C5.19263 122.194 5.1067 124.859 5.62227 127.638C7.19763 136.119 9.08806 144.572 9.83277 153.196C10.0333 155.402 10.4916 157.58 10.9212 159.757C13.1553 170.817 15.4181 181.848 17.7096 192.879C17.7668 193.223 18.1678 193.481 18.5402 193.939C19.3708 194.14 20.3447 194.283 21.2899 194.598C26.4743 196.202 31.6586 197.635 37.1867 197.606C38.5616 197.606 39.9651 198.008 41.3399 198.237C42.9153 198.495 44.4906 199.039 46.066 199.039C60.7884 199.096 75.5395 199.068 90.2619 199.01C91.6081 199.01 93.2121 198.781 94.2433 198.036C97.9955 195.429 102.435 194.856 106.588 193.968C110.77 193.079 114.007 191.102 116.9 188.352C119.621 185.802 121.282 182.65 120.623 178.639C120.451 177.665 120.623 176.633 120.623 175.63C120.423 157.465 120.251 139.3 119.965 121.134C119.907 117.553 119.334 113.971 118.847 108.671L118.876 108.699ZM29.4531 62.1113C29.3386 63.372 29.1667 64.3462 29.224 65.3203C29.3958 68.3288 29.5677 71.3659 29.9687 74.3457C30.2265 76.2367 30.3411 78.2137 28.9662 79.5031C24.8416 83.3138 20.4879 87.0385 15.3608 89.3307C12.0383 90.7919 9.7182 93.17 7.54134 95.7201C6.3097 97.1527 5.47905 99.3302 5.36448 101.221C5.1067 105.404 4.9062 109.645 5.56498 113.656C9.68956 115.748 13.8141 116.235 18.1392 116.063C21.1467 115.948 24.3261 115.69 27.1617 116.493C31.3436 117.667 35.5254 117.61 39.7359 117.639C45.9801 117.639 52.2528 117.639 58.497 117.639C59.9005 117.639 61.5331 117.925 62.6789 117.352C66.3165 115.519 70.1546 116.034 73.9641 115.92C77.2008 115.834 80.4661 116.178 83.6454 115.69C87.9705 115.031 92.1524 113.713 96.4488 112.768C104.01 111.106 111.4 108.986 117.902 104.287C117.243 98.9577 115.468 94.0583 113.148 89.3307C111.916 86.838 109.94 85.2048 107.448 84.1447C104.669 82.9413 101.92 81.6519 99.0839 80.6205C94.0141 78.7868 91.1212 75.5204 90.9207 69.9046C90.8061 66.9535 90.0901 64.0023 89.6031 60.822C88.4861 60.822 87.7127 60.7647 86.9394 60.822C79.2917 61.3664 71.6441 61.9394 64.0251 62.4838C53.5418 63.2001 43.0871 63.5439 32.6325 62.1686C31.6873 62.054 30.7134 62.1686 29.4531 62.1686V62.1113ZM19.4568 200.013C19.7718 205.686 21.6336 213.508 23.4954 217.147C23.8678 217.863 24.2401 218.58 24.6984 219.239C27.1331 222.562 29.9114 225.112 34.2938 225.915C39.6786 226.889 45.0348 227.605 50.5056 227.576C58.1819 227.548 65.8582 227.433 73.5059 227.548C82.4138 227.662 91.2644 227.576 99.8286 224.654C104.669 224.539 108.622 221.961 112.804 219.955C116.384 218.236 118.504 215.428 119.077 211.617C119.735 207.233 120.136 202.821 120.537 198.409C120.623 197.52 120.222 196.575 120.05 195.715C119.306 195.715 118.876 195.601 118.532 195.715C110.856 198.552 103.352 201.847 95.4463 204.053C94.1001 204.426 92.6966 204.683 91.2931 204.683C75.9405 204.712 60.6166 204.683 45.264 204.655C43.8605 204.655 42.3711 204.512 41.1394 203.967C38.6188 202.85 36.0696 202.821 33.4345 202.792C32.2315 202.792 30.9998 202.678 29.8255 202.449C26.3597 201.704 22.9226 200.873 19.3995 200.042L19.4568 200.013ZM78.4611 34.9779C78.4897 27.0986 78.6043 19.2766 78.547 11.4547C78.5184 6.78439 77.1721 5.52371 72.3888 5.23719C71.5868 5.17988 70.7848 5.23719 69.9828 5.23719C61.0748 5.09393 52.3388 6.32596 43.6886 8.24564C40.1942 9.01925 36.6998 9.93611 33.4918 10.7097C31.2576 17.5862 32.1456 30.279 35.2103 38.2442C39.7359 38.7027 69.8969 37.2414 75.4249 36.21C76.3701 36.038 77.2581 35.4937 78.4897 35.0066L78.4611 34.9779ZM25.9014 55.4354C31.2863 57.1545 36.8716 57.6416 42.5429 57.6703C55.2317 57.6989 67.8919 57.3551 80.552 56.1804C84.5906 55.8079 87.8559 54.1174 91.2644 52.5129C92.0378 52.1404 92.8684 51.0517 92.9257 50.2208C93.1262 48.0432 93.0403 45.8084 92.8684 43.6308C92.7539 42.3701 91.8086 41.4246 90.6056 41.0235C89.2881 40.5937 87.9132 40.1066 86.5384 40.078C83.5309 40.0207 80.4947 40.078 77.4872 40.3358C72.9044 40.7656 68.3501 41.6252 63.7386 41.883C55.4895 42.3701 47.2403 42.5707 38.9912 42.8859C36.9862 42.9718 34.9526 42.8859 32.9476 43.1151C25.6723 43.86 23.8964 44.6909 25.0135 53.7736C25.0708 54.318 25.5577 54.8337 25.8728 55.4641L25.9014 55.4354Z" fill="white"/>
<path fill-rule="evenodd" clip-rule="evenodd" d="M111.515 130.303C111.945 131.334 112.632 132.337 112.718 133.397C112.947 136.004 112.89 138.612 112.918 141.248C112.947 147.494 112.804 153.74 113.033 159.958C113.262 165.888 112.059 171.533 110.512 177.177C110.427 177.521 110.054 177.808 109.567 178.467C109.052 177.98 108.221 177.55 108.192 177.091C108.049 174.914 107.734 172.593 108.25 170.559C109.109 167.178 109.109 163.797 109.138 160.387C109.195 151.734 109.224 143.082 109.309 134.429C109.309 132.881 109.08 131.134 111.486 130.36L111.515 130.303Z" fill="white"/>
<path fill-rule="evenodd" clip-rule="evenodd" d="M77.0862 86.3797C76.2269 85.2623 76.055 83.9729 77.4012 83.3713C81.0389 81.7381 84.7625 80.3628 88.486 78.9302C88.8297 78.7869 89.3167 78.7869 89.6604 78.9302C90.1473 79.1594 90.6056 79.5032 90.892 79.933C91.0352 80.1336 90.892 80.7926 90.6342 80.9931C87.8272 83.5145 81.3826 86.0645 77.1148 86.3797H77.0862Z" fill="white"/>
<path fill-rule="evenodd" clip-rule="evenodd" d="M104.812 86.6084C107.018 87.2674 108.192 88.5281 108.908 90.1899C109.109 90.6197 108.966 91.5938 108.651 91.7371C108.078 92.0523 107.104 92.3101 106.617 92.0236C104.726 90.9348 103.953 89.2444 104.784 86.6084H104.812Z" fill="white"/>
<path fill-rule="evenodd" clip-rule="evenodd" d="M114.809 205.772C116.184 208.981 114.35 210.557 113.147 212.305C111.372 211.989 111.4 210.901 111.429 209.955C111.429 208.236 111.543 208.265 114.809 205.772Z" fill="white"/>
<path fill-rule="evenodd" clip-rule="evenodd" d="M57.8382 25.2648C55.8045 24.2907 55.289 22.7721 55.2317 21.1676C55.2317 20.2508 55.6327 19.2479 56.091 18.417C56.7211 17.2423 57.8955 16.9558 59.1558 17.271C60.2155 17.5288 61.1321 18.9901 60.817 20.0788C60.3015 21.9699 59.7573 23.9182 57.8382 25.2648Z" fill="white"/>
<path fill-rule="evenodd" clip-rule="evenodd" d="M72.9616 32.5424C70.9852 31.4823 70.5269 30.1929 70.7561 28.7317C70.9852 27.2131 72.1882 26.3822 73.4771 25.8092C73.9354 25.6086 74.8234 25.6659 75.1098 25.9524C75.5967 26.4682 75.8545 27.2704 76.055 27.9867C76.1409 28.3019 75.9404 28.789 75.7113 29.0755C74.8806 30.1643 74.0214 31.2244 72.9616 32.5137V32.5424Z" fill="white"/>
<path fill-rule="evenodd" clip-rule="evenodd" d="M65.3426 16.8412C65.7723 15.294 65.8295 14.2339 66.3165 13.4889C67.0325 12.4002 68.2355 12.0277 69.4672 12.7726C70.5843 13.4603 71.0998 14.5491 70.842 15.8384C70.7561 16.2968 70.1546 16.9845 69.725 17.0131C68.5506 17.1277 67.3763 16.9558 65.314 16.8412H65.3426Z" fill="white"/>
<path fill-rule="evenodd" clip-rule="evenodd" d="M50.6202 30.2503C50.1905 30.193 49.589 30.2503 49.4745 30.0497C49.1594 29.4194 48.9589 28.7317 48.9016 28.0441C48.9016 27.7862 49.3313 27.3278 49.6463 27.2132C51.3649 26.5542 53.0835 26.325 54.6875 27.4424C54.9453 27.643 55.2317 28.216 55.1458 28.4452C54.2865 30.6514 52.3101 30.107 50.6202 30.2503Z" fill="white"/>
<path fill-rule="evenodd" clip-rule="evenodd" d="M64.6265 28.2163C66.8607 28.245 68.1783 29.6776 67.7773 31.3967C67.634 32.027 66.8893 32.8293 66.2592 32.9725C64.8843 33.345 63.0225 31.6545 63.1657 30.1073C63.2517 29.3624 64.1969 28.7034 64.5979 28.245L64.6265 28.2163Z" fill="white"/>
<path fill-rule="evenodd" clip-rule="evenodd" d="M42.8007 26.411C40.7575 24.3098 40.3756 22.5429 41.655 21.1104C43.4499 22.6194 43.8318 24.3862 42.8007 26.411Z" fill="white"/>
<path fill-rule="evenodd" clip-rule="evenodd" d="M57.7236 7.81592C59.2417 8.64682 59.4135 9.96481 58.9266 11.3974C58.7834 11.8272 58.01 12.3143 57.5517 12.2856C57.0935 12.2856 56.4347 11.6839 56.3201 11.2255C55.9477 9.82155 55.9764 8.44626 57.7236 7.81592Z" fill="white"/>
<path fill-rule="evenodd" clip-rule="evenodd" d="M47.6411 18.4174C47.5838 17.3287 47.2974 16.1826 47.5265 15.1225C47.6411 14.664 48.7009 14.4062 49.3597 14.0337C49.6461 14.664 50.2476 15.3803 50.133 15.8961C49.9039 16.8129 49.1878 17.5865 48.6722 18.4174C48.3285 18.4174 47.9848 18.4174 47.6697 18.4174H47.6411Z" fill="white"/>
<path fill-rule="evenodd" clip-rule="evenodd" d="M43.9464 34.691C43.0012 33.4877 42.2851 32.886 42.056 32.1124C41.97 31.8258 43.0871 30.823 43.66 30.8517C44.1755 30.8517 45.0348 31.6826 45.1494 32.2843C45.264 32.8 44.5765 33.4877 43.9464 34.691Z" fill="white"/>
<path fill-rule="evenodd" clip-rule="evenodd" d="M152.699 269.019C149.658 270.864 146.542 272.584 143.626 274.579C139.663 277.296 135.326 278.917 130.69 279.964C130.266 280.064 129.793 280.114 129.419 280.313C126.154 282.133 123.063 281.111 120.197 279.515C117.779 278.194 115.262 276.873 113.916 274.13C112.595 271.487 111.847 268.67 111.174 265.827C110.501 262.96 111.498 260.267 112.719 257.699C113.093 256.901 113.741 256.228 114.015 255.43C114.489 254.034 115.336 253.062 116.757 252.837C118.352 252.588 119.374 251.516 120.446 250.519C122.266 248.823 123.911 246.903 125.755 245.233C126.926 244.161 128.297 243.238 129.668 242.44C131.612 241.343 133.357 240.097 134.977 238.526C136.872 236.681 139.015 235.085 141.233 233.664C142.729 232.691 144.249 231.919 145.421 230.472C146.119 229.575 147.191 228.927 148.188 228.303C153.098 225.261 157.983 222.22 162.968 219.303C167.255 216.809 172.016 215.887 176.926 215.912C178.073 215.912 179.344 216.211 180.316 216.784C184.055 218.953 187.494 221.497 189.289 225.611C189.912 227.057 190.336 228.752 190.236 230.298C190.037 233.689 189.389 237.03 187.444 239.972C186.398 241.568 185.226 243.113 184.354 244.809C183.307 246.853 181.986 248.549 179.892 249.571C179.618 249.696 179.319 249.82 179.144 250.045C176.976 252.762 174.085 254.508 171.168 256.253C170.795 256.477 170.371 256.752 170.171 257.101C168.801 259.569 166.333 260.716 164.09 262.087C160.301 264.406 156.512 266.7 152.724 268.994L152.699 269.019ZM142.654 238.326C142.455 238.775 142.629 239.423 142.654 239.897C142.779 241.169 142.953 242.465 143.227 243.712C143.751 246.205 144.598 248.649 145.82 250.893C147.041 253.136 148.636 255.106 150.63 256.677C152.998 258.547 155.989 259.794 158.98 259.37C162.121 258.921 164.713 256.727 167.18 254.707C170.844 251.715 174.658 248.898 177.998 245.557C181.338 242.216 184.204 238.252 185.475 233.689C185.974 231.844 186.223 229.874 185.65 228.054C184.927 225.735 183.008 224.015 181.113 222.519C179.992 221.621 178.795 220.749 177.425 220.4C176.104 220.05 174.708 220.175 173.362 220.4C168.227 221.297 163.442 223.666 158.955 226.309C153.771 229.375 148.861 232.916 144.274 236.855C143.851 237.229 142.928 237.753 142.654 238.301V238.326ZM153.472 263.583C152.948 263.135 152.674 262.81 152.325 262.586C145.969 258.273 145.994 258.248 142.106 251.94C140.685 249.646 139.464 247.377 139.613 244.535C139.688 243.388 139.539 242.191 138.242 241.293C137.37 241.967 136.523 242.789 135.526 243.338C131.862 245.308 129.369 248.748 125.905 250.967C125.182 251.441 124.534 252.164 124.135 252.912C123.038 255.006 121.169 256.353 119.175 257.076C117.181 257.799 116.657 259.32 115.71 260.766C114.638 262.461 114.987 264.207 115.361 265.902C115.76 267.747 116.308 269.592 117.031 271.338C117.405 272.235 118.178 273.033 118.95 273.656C119.972 274.479 121.219 275.028 122.315 275.8C123.337 276.524 124.409 276.723 125.655 276.573C129.768 276.075 133.806 275.028 137.395 273.207C142.903 270.415 148.038 266.875 153.472 263.583Z" fill="white"/>
<path fill-rule="evenodd" clip-rule="evenodd" d="M155.84 251.665C157.235 249.845 158.581 249.172 160.077 249.147C163.915 249.048 165.835 246.779 166.931 243.413C169.723 242.864 172.24 241.917 174.085 239.498C174.932 238.401 176.328 237.678 177.749 236.581C177.898 238.027 177.973 239.024 177.051 239.997C174.957 242.266 173.063 244.684 170.171 246.105C169.174 246.604 168.452 247.651 167.554 248.374C166.433 249.272 165.286 250.219 164.04 250.942C163.492 251.267 162.544 251.391 161.971 251.142C160.451 250.444 159.155 250.643 157.784 251.441C157.46 251.641 156.986 251.541 155.84 251.665Z" fill="white"/>
<path fill-rule="evenodd" clip-rule="evenodd" d="M125.954 272.36C126.577 271.687 126.901 271.038 127.3 270.988C129.992 270.54 132.111 268.919 134.354 267.598C136.124 266.575 137.893 265.528 139.688 264.581C140.261 264.281 140.984 264.232 141.483 264.107C142.255 264.98 141.832 265.528 141.408 265.827C137.893 268.196 134.379 270.54 130.79 272.784C129.469 273.606 127.973 273.307 125.954 272.36Z" fill="white"/>
<path fill-rule="evenodd" clip-rule="evenodd" d="M96.4435 314.522C93.602 313.799 90.7855 312.976 87.9191 312.403C84.0308 311.655 80.5663 310.034 77.2762 307.915C76.9771 307.715 76.678 307.466 76.329 307.366C73.3879 306.494 72.1915 304.1 71.4437 301.482C70.8206 299.288 70.1476 297.044 70.9701 294.675C71.7677 292.382 72.9891 290.287 74.2602 288.268C75.5563 286.198 77.7248 285.251 79.9431 284.478C80.6161 284.253 81.3888 284.229 82.0368 283.929C83.1335 283.406 84.2053 283.331 85.1525 284.029C86.2242 284.827 87.4456 284.802 88.642 284.852C90.7107 284.927 92.7546 284.802 94.8234 284.927C96.1444 285.001 97.4654 285.251 98.7366 285.625C100.506 286.148 102.251 286.448 104.12 286.497C106.289 286.547 108.482 286.871 110.601 287.345C112.022 287.669 113.368 288.118 114.888 287.968C115.835 287.869 116.832 288.093 117.754 288.342C122.39 289.464 127.002 290.586 131.613 291.808C135.576 292.88 138.841 295.149 141.682 298.041C142.33 298.715 142.904 299.637 143.128 300.56C144.025 304 144.499 307.516 143.128 310.932C142.654 312.128 141.882 313.375 140.91 314.198C138.791 316.043 136.448 317.614 133.607 318.162C132.061 318.461 130.466 318.686 128.971 319.135C127.151 319.683 125.406 319.908 123.587 319.259C123.362 319.184 123.113 319.085 122.864 319.11C120.023 319.409 117.306 318.736 114.589 318.013C114.24 317.913 113.841 317.838 113.517 317.913C111.274 318.536 109.18 317.738 107.062 317.215C103.497 316.342 99.9579 315.42 96.4186 314.547L96.4435 314.522ZM108.582 290.561C107.386 292.232 106.364 293.703 105.242 295.149C103.497 297.418 102.151 302.13 102.475 305.097C102.625 306.419 102.575 307.865 103.074 309.037C104.569 312.428 107.336 314.547 111.05 314.447C113.567 314.372 115.86 314.896 118.228 315.42C118.826 315.544 119.474 315.744 120.023 315.644C122.017 315.27 123.911 316.043 125.805 316.018C127.824 316.018 129.793 314.946 131.837 314.821C133.806 314.697 135.326 313.849 136.872 312.876C138.567 311.804 140.037 310.408 140.212 308.339C140.436 305.795 140.386 303.252 139.364 300.834C139.265 300.634 139.04 300.46 138.891 300.285C136.498 297.767 133.482 296.097 130.292 295.024C126.005 293.628 121.568 292.731 117.181 291.609C116.708 291.484 116.209 291.285 115.735 291.359C113.392 291.733 111.149 291.11 108.557 290.537L108.582 290.561ZM100.083 311.829C100.058 311.256 100.083 310.907 100.008 310.583C98.8612 304.349 98.8861 304.349 100.357 298.415C100.88 296.246 101.503 294.202 103.273 292.681C103.996 292.057 104.619 291.26 104.395 290.013C103.497 289.888 102.525 289.863 101.628 289.589C98.3378 288.567 94.8732 289.09 91.5582 288.342C90.8603 288.193 90.0627 288.218 89.3897 288.417C87.5203 288.991 85.651 288.667 84.0807 287.894C82.5104 287.146 81.314 287.694 79.9182 287.993C78.2981 288.342 77.4756 289.564 76.7029 290.761C75.8554 292.057 75.0828 293.454 74.4846 294.9C74.1855 295.623 74.1356 296.545 74.2353 297.368C74.335 298.44 74.7587 299.487 74.9332 300.585C75.1077 301.607 75.6062 302.355 76.4038 302.978C79.0708 305.097 82.0368 306.893 85.1774 307.94C90.0128 309.56 95.0477 310.533 100.157 311.804L100.083 311.829Z" fill="white"/>
<path fill-rule="evenodd" clip-rule="evenodd" d="M108.457 306.344C110.327 306.095 111.498 306.518 112.395 307.366C114.689 309.56 117.131 309.386 119.748 308.089C121.692 309.411 123.686 310.333 126.204 310.009C127.35 309.859 128.547 310.283 130.042 310.483C129.295 311.405 128.746 312.029 127.65 312.054C125.107 312.128 122.59 312.428 120.072 311.555C119.2 311.256 118.178 311.43 117.231 311.33C116.034 311.181 114.838 311.056 113.692 310.757C113.168 310.607 112.545 310.134 112.37 309.66C111.897 308.363 111.025 307.715 109.753 307.366C109.454 307.291 109.23 306.967 108.482 306.344H108.457Z" fill="white"/>
<path fill-rule="evenodd" clip-rule="evenodd" d="M78.9961 300.759C79.7438 300.759 80.3171 300.56 80.5913 300.759C82.4108 302.081 84.5793 302.38 86.673 302.953C88.2931 303.402 89.9382 303.826 91.5334 304.349C92.0568 304.524 92.4805 304.898 92.8544 305.147C92.7796 306.095 92.2063 306.17 91.8075 306.095C88.3928 305.397 84.9532 304.698 81.5634 303.876C80.3171 303.576 79.6441 302.529 78.9961 300.784V300.759Z" fill="white"/>
<path d="M76.284 189.641C77.2578 186.69 76.8282 183.51 76.8282 180.33C76.9141 180.072 77.0287 179.814 77.0573 179.527C77.1146 179.04 77.0573 178.524 76.9428 177.98C77.0573 176.92 77.2292 175.831 77.6016 174.771C79.2915 174.685 80.8955 174.57 82.4995 174.513C84.9055 174.456 87.3401 174.513 89.7461 174.456C92.1808 174.341 94.3863 173.224 94.73 170.846C95.4174 166.319 95.9903 161.706 93.6988 157.265C92.6104 155.173 91.2928 154.228 89.0301 154.228C85.8221 154.228 82.5854 154.285 79.3488 154.17C76.198 154.056 75.396 153.253 75.2815 150.216C75.2815 149.643 75.2815 149.07 75.2815 148.497C75.396 147.781 75.396 147.093 75.2815 146.463C75.2815 145.689 75.2815 144.944 75.2815 144.171C75.1383 140.331 74.3649 139.472 70.6986 139.415C65.2565 139.329 59.8143 139.386 54.3722 139.415C53.3983 139.415 52.4245 139.787 51.1928 140.045C49.1592 145.002 51.422 150.417 49.6748 155.574C47.9562 155.689 46.3522 155.832 44.7768 155.889C42.9723 155.947 41.1392 155.861 39.3347 155.975C36.2985 156.176 35.3247 157.064 35.2388 160.044C35.0955 163.855 35.0955 167.694 35.2388 171.533C35.3533 175.201 36.2126 175.917 40.108 176.032C43.1155 176.118 46.123 176.032 49.3597 176.032C49.5029 176.433 49.6461 176.777 49.7893 177.178C49.2738 178.897 49.6748 180.903 51.3933 181.934C51.737 183.252 51.9948 184.599 52.0235 185.974C52.0521 187.636 53.0833 189.441 54.0285 190.902C54.6013 191.762 55.9475 192.593 56.9787 192.621C63.5665 192.85 70.269 193.681 76.3699 189.584L76.284 189.641ZM54.945 149.414C55.0883 149.529 55.2601 149.672 55.432 149.787C55.2601 149.93 55.0883 150.102 54.945 150.245C54.945 149.958 54.945 149.701 54.945 149.414ZM60.2726 170.731C60.3585 170.932 60.4731 171.132 60.5877 171.333C59.9575 171.132 59.5279 170.674 59.1269 170.187C59.4993 170.359 59.9003 170.588 60.2726 170.731ZM54.9164 165.66C55.1742 165.66 55.4606 165.717 55.7184 165.717C55.7184 166.061 55.7184 166.405 55.7757 166.72C55.3174 166.319 54.8305 165.946 54.3435 165.602C54.544 165.602 54.7159 165.631 54.9164 165.66ZM67.863 172.679C68.0921 172.479 68.3213 172.221 68.5218 171.963C69.0946 171.218 69.4097 170.387 69.5243 169.528C70.0685 169.213 70.6413 168.897 71.0423 168.668C71.4147 168.439 71.8157 168.238 72.2167 168.009C72.6177 168.754 73.2192 169.356 73.9353 169.786C72.3885 170.273 71.9589 171.419 71.8443 173.997C70.5268 173.51 69.2378 173.081 67.8916 172.708L67.863 172.679ZM69.0087 154.084C69.467 153.941 69.8966 153.798 70.3549 153.626C70.3549 153.798 70.4408 153.941 70.4695 154.113C69.9825 154.113 69.4956 154.113 69.0087 154.084ZM79.1769 169.356C79.1769 169.356 79.4061 169.155 79.5206 169.069C80.294 168.697 81.0387 168.296 81.7834 167.837C82.2131 167.923 82.6427 168.009 83.0723 168.124C84.0462 168.64 85.0487 169.069 86.0798 169.299C86.0512 169.299 86.0225 169.299 85.9939 169.299C83.7311 169.356 81.4397 169.299 79.1769 169.327V169.356ZM40.4231 170.645V167.837C42.5713 168.783 44.6336 169.786 46.5813 170.96C46.4668 170.96 46.3808 170.96 46.2663 170.96C44.4904 170.903 42.7145 170.76 40.4231 170.645ZM57.2078 185.086C57.2651 184.599 57.2651 184.112 57.2651 183.653C58.1244 183.825 58.9837 183.997 59.843 184.14C59.8143 184.369 59.7857 184.57 59.7857 184.799C59.843 185.802 60.158 186.834 60.8455 187.578C60.4158 187.55 59.9575 187.521 59.5279 187.493C58.239 187.435 57.0933 186.375 57.2365 185.086H57.2078Z" fill="#FF7229"/>
<path d="M186.601 220.164C184.94 218.648 183.105 216.981 181.047 216.021C178.915 215.01 176.733 215.187 174.551 215.617C173.634 215.465 172.692 215.541 171.725 215.743C171.353 215.768 170.981 215.819 170.634 215.869C168.155 216.248 165.824 217.309 163.593 218.446C161.535 219.507 159.502 220.669 157.419 221.705C154.94 222.918 152.857 224.484 150.725 226.252C150.527 226.429 150.353 226.606 150.229 226.834C149.237 227.111 148.246 227.389 147.353 227.996C146.535 228.551 145.791 229.208 145.27 230.067C145.196 230.168 145.147 230.295 145.097 230.396C144.477 230.951 143.882 231.558 143.337 232.215C143.213 232.29 143.089 232.391 142.99 232.467C142.345 232.922 141.775 233.452 141.155 233.958C140.956 234.084 140.733 234.185 140.51 234.286C139.667 234.791 138.824 235.297 138.006 235.827C137.188 236.358 136.419 236.888 136.593 238C136.717 238.909 137.113 239.844 137.337 240.754C137.56 241.638 137.833 242.572 138.328 243.33C138.651 243.836 139.047 244.24 139.494 244.594C139.543 244.72 139.593 244.846 139.667 244.972C139.469 246.034 139.667 247.196 140.237 248.08C140.337 249.09 140.758 250.05 141.527 250.682C141.527 250.707 141.527 250.758 141.551 250.783C141.998 251.945 142.494 253.057 143.163 254.092C144.378 256.012 145.915 257.73 147.477 259.372C148.791 260.737 150.13 262.404 151.742 263.49C152.832 264.425 153.973 265.284 155.163 266.042C155.882 266.497 156.626 267.027 157.518 266.775C157.915 266.674 158.287 266.421 158.659 266.244C158.981 266.067 159.328 265.89 159.651 265.688C159.899 265.562 160.047 265.36 160.146 265.107C161.188 265.031 162.204 264.602 163.097 263.869C163.469 263.566 163.816 263.187 164.163 262.859C164.386 262.657 164.609 262.455 164.832 262.252C164.907 262.177 164.932 262.151 164.981 262.126C164.981 262.126 164.981 262.126 165.08 262.076C165.279 261.949 165.477 261.823 165.651 261.697C166.518 261.267 167.386 260.787 168.179 260.206C168.328 260.105 168.452 259.979 168.601 259.852C171.204 258.362 173.857 256.947 176.163 254.951C177.279 253.966 178.518 252.678 179.312 251.212C181.171 250.076 182.857 248.737 184.047 246.817C184.32 246.362 184.469 245.831 184.518 245.301C187.568 242.118 190.419 237.646 191.609 233.452C193.047 228.324 190.32 223.423 186.65 220.088L186.601 220.164ZM158.039 243.608C156.105 241.259 154.568 238.48 153.527 235.625C153.403 235.271 153.229 234.968 153.056 234.665C153.551 234.488 154.072 234.337 154.518 234.16C155.51 233.756 156.452 233.301 157.419 232.846C157.692 235.196 158.262 237.545 158.659 239.794C159.006 241.714 159.452 243.659 159.849 245.629C159.204 244.998 158.609 244.341 158.039 243.634V243.608ZM171.948 231.305C172.444 232.467 173.014 233.579 173.411 234.766C173.56 235.221 173.758 235.751 173.808 236.257C173.808 236.307 173.808 236.434 173.783 236.56C173.113 235.878 172.469 235.17 171.898 234.412C170.634 232.669 169.667 230.724 168.998 228.652C168.75 227.92 168.328 227.389 167.857 226.96C168.353 226.631 168.874 226.303 169.37 225.949C169.617 225.773 169.865 225.596 170.138 225.394C170.386 225.292 170.609 225.191 170.857 225.09C170.361 227.162 171.13 229.335 171.948 231.28V231.305ZM146.585 240.046C146.708 241.031 146.857 242.042 147.056 243.027C147.006 242.926 146.932 242.825 146.882 242.749C146.014 241.41 145.791 241.132 146.585 240.071V240.046ZM159.75 256.164C159.353 256.316 158.956 256.492 158.584 256.669C158.113 256.745 157.667 256.644 157.171 256.215C156.874 255.962 156.601 255.659 156.303 255.381C156.874 254.977 157.345 254.446 157.593 253.815C158.51 254.547 159.477 255.204 160.469 255.709C160.345 255.785 160.221 255.886 160.097 255.962C160.022 256.012 159.948 256.063 159.849 256.088C159.824 256.088 159.775 256.114 159.75 256.139V256.164Z" fill="#FF7229"/>
<path d="M109.177 285.864C108.624 285.763 108.071 285.637 107.518 285.537C107.443 285.486 107.367 285.411 107.292 285.361C106.664 284.983 105.859 284.832 105.055 284.908C104.628 284.43 104.075 284.078 103.346 283.927C100.656 283.323 98.0167 283.197 95.302 283.549C94.2714 283.675 93.1905 283.901 92.1599 283.75C90.8026 283.574 89.4955 282.971 88.1632 282.694C83.337 281.688 76.9524 282.568 73.4333 286.367C72.3273 287.549 71.8246 288.983 71.4978 290.493C71.3721 290.719 71.2464 290.97 71.171 291.247C70.8945 292.153 70.6683 293.084 70.5175 294.014C70.2158 294.392 69.9896 294.794 69.8891 295.272C69.6628 296.279 69.512 297.335 69.5372 298.392C69.5874 299.398 69.7131 300.429 70.065 301.385C70.2661 301.939 70.4923 302.492 70.794 302.995C71.0956 303.499 71.4727 303.951 71.8246 304.404C72.0257 304.656 72.2519 304.857 72.4781 305.058C72.9306 305.436 73.4082 305.813 73.936 306.115C74.0366 306.165 74.112 306.19 74.2125 306.241C75.1174 307.096 76.0978 307.851 77.254 308.48C80.0442 309.964 83.0354 311.121 86.0518 312.052C87.6102 312.53 89.2441 312.932 90.878 313.134C91.3556 313.285 91.8332 313.41 92.3107 313.586C95.0255 314.593 97.6397 315.775 100.505 316.303C100.882 316.379 101.234 316.379 101.611 316.354C101.661 316.404 101.712 316.454 101.787 316.505C102.039 316.656 102.29 316.781 102.566 316.882C102.742 316.957 102.943 317.008 103.119 317.033C103.396 317.083 103.698 317.134 103.999 317.108C104.301 317.108 104.552 317.033 104.829 316.907C105.08 316.781 105.281 316.58 105.432 316.329C105.784 315.775 105.658 315.121 105.583 314.492C105.507 313.914 105.457 313.31 105.382 312.731C105.382 312.505 105.306 312.303 105.206 312.127C105.206 311.976 105.206 311.8 105.13 311.649C104.628 309.788 103.924 307.851 103.723 305.914C103.496 303.75 103.999 301.461 104.251 299.323C104.427 297.738 104.527 296.253 105.482 294.92C106.236 293.889 107.217 292.857 107.946 291.7C107.946 291.7 107.946 291.7 107.971 291.7C108.298 291.599 108.524 291.398 108.725 291.121C109.052 290.669 109.378 290.191 109.68 289.713C109.982 289.235 110.308 288.757 110.56 288.254C110.685 287.977 110.786 287.7 110.786 287.398C110.786 286.945 110.51 286.467 110.107 286.216C109.781 286.04 109.454 285.989 109.102 285.914L109.177 285.864ZM88.666 290.518C88.4397 291.373 88.2889 292.253 88.1632 293.109C87.9873 293.536 87.8365 293.964 87.6605 294.367C87.3589 295.121 87.0572 295.851 86.7556 296.606C86.5294 296.002 86.4037 295.448 86.454 294.87C86.7305 294.14 87.0572 293.436 87.3086 292.706C87.6102 291.851 87.4846 290.92 87.0824 290.115C87.6102 290.241 88.1381 290.367 88.6408 290.493L88.666 290.518ZM79.2901 291.172C79.466 291.021 79.642 290.895 79.8431 290.769C79.4409 291.524 79.1644 292.354 79.0387 293.209C78.8125 293.763 78.6114 294.316 78.36 294.845C78.4354 294.216 78.536 293.587 78.6365 292.983C78.7874 292.002 78.6617 291.725 79.2901 291.172Z" fill="#FF7229"/>
</svg>
