<svg width="393" height="23" viewBox="0 0 393 23" fill="none" xmlns="http://www.w3.org/2000/svg">
<path fill-rule="evenodd" clip-rule="evenodd" d="M369.047 5.21247C360.268 5.3455 351.712 4.1046 343.228 1.93874C335.64 0.00360573 327.893 -0.185543 320.117 0.113769C314.064 0.346568 308.159 1.47938 302.305 2.97802C295.143 4.81339 287.85 5.27275 280.491 5.18337C273.647 5.10231 266.947 4.05679 260.342 2.32951C252.169 0.190676 243.859 -0.2188 235.475 0.111691C229.424 0.350725 223.517 1.47522 217.665 2.97594C210.468 4.8217 203.138 5.27691 195.745 5.18337C188.937 5.09607 182.272 4.05056 175.702 2.33159C167.529 0.194833 159.218 -0.2188 150.834 0.111691C144.784 0.348646 138.876 1.47107 133.022 2.97179C125.825 4.81754 118.498 5.27691 111.102 5.18337C104.294 5.09607 97.6298 4.05263 91.0593 2.33367C82.8166 0.180283 74.4367 -0.227114 65.981 0.122084C60.0021 0.37151 54.1644 1.48977 48.382 2.96971C41.1852 4.81339 33.8553 5.27898 26.462 5.18337C19.5477 5.09399 12.795 3.96741 6.10787 2.27339C4.72781 1.92232 3.32362 1.67021 1.91982 1.41818C1.27902 1.30313 0.638304 1.1881 0 1.06367V23H393V1.49393C385.148 3.61198 377.223 5.08983 369.047 5.21247Z" fill="white"/>
</svg>
