<svg width="871" height="798" viewBox="0 0 871 798" fill="none" xmlns="http://www.w3.org/2000/svg">
<path d="M124.571 797.595H1175.04C1153.06 750.594 1143.34 695.165 1144.56 643.307C1145.56 599.628 1155.06 556.418 1155 512.708C1154.97 469.028 1143.52 422.403 1110.69 393.545C1062.45 351.181 989.003 361.709 926.373 375.841C871.96 388.124 806.852 401.221 754.916 373.428C691.785 339.65 684.321 261.817 666.946 199.995C625.862 53.8853 481.095 -17.0234 335.92 3.469C176.381 25.9981 83.6436 193.102 137.492 343.536C149.378 376.718 171.144 409.212 171.489 445.434C172.053 506.723 111.556 505.689 68.6839 521.23C29.105 535.613 4.07813 573.652 0.471497 614.793C-3.98191 665.617 23.6794 698.549 59.4635 730.196C85.149 752.945 98.9169 774.847 124.602 797.595H124.571Z" fill="white" fill-opacity="0.2"/>
</svg>
