<svg width="105" height="114" viewBox="0 0 105 114" fill="none" xmlns="http://www.w3.org/2000/svg">
<path d="M87.9494 18.7509C84.5252 19.5079 81.1347 20.605 77.8117 21.7277C71.461 23.8794 65.2957 26.5415 59.3329 29.6117C55.4111 24.7044 51.4893 19.7885 47.5675 14.8812C45.5518 12.3552 43.5613 9.81223 41.5119 7.31177C39.7155 5.1175 37.8009 3.08482 35.3382 1.64748C34.7394 1.29878 33.9803 1.5029 33.5165 1.97067C32.4116 3.08482 32.108 4.54767 31.8718 6.05304C31.5682 7.99217 31.3068 9.94831 31.0959 11.9044C30.6827 15.6636 30.4212 19.4483 30.3284 23.2245C30.1513 30.4707 30.6152 37.7169 31.6441 44.8951C26.3392 46.341 21.1185 48.0675 16.016 50.1257C13.3508 51.1973 10.7279 52.354 8.13862 53.5787C6.81448 54.208 5.49878 54.8459 4.19151 55.5178C3.04449 56.1046 1.56011 56.6234 0.691411 57.6185C-0.83514 59.3875 0.404655 61.5393 2.09989 62.6024C4.15778 63.8866 6.92412 64.4055 9.24347 65.0178C14.5737 66.4211 20.0474 67.2546 25.5548 67.5438C26.55 67.5948 28.3127 67.2886 29.2236 67.7224C30.1935 68.1816 30.4634 70.3589 30.7164 71.2944C31.4248 73.9565 31.8297 76.6781 32.0574 79.4252C32.5213 84.9109 32.3273 90.4221 32.3694 95.9163C32.3863 98.5783 32.4622 101.249 32.6899 103.902C32.8755 106.097 32.8249 109.261 34.0984 111.149C37.3624 115.954 42.4818 106.998 43.612 104.617C48.5543 94.2323 52.0712 83.1588 54.146 71.8303C62.327 78.7788 71.2332 84.8683 80.7046 89.8948C82.7203 90.9579 85.0228 92.0805 87.3675 91.5532C89.6362 91.0344 90.6904 88.9762 90.3025 86.7394C89.341 81.2452 86.1276 75.9041 83.1589 71.303C80.0046 66.4211 76.4454 61.8114 73.3249 56.9041C72.5489 55.6794 71.7899 54.4462 71.0899 53.1789C70.7356 52.5326 70.3814 52.0733 70.7694 51.3419C71.073 50.755 71.6802 50.2022 72.1104 49.7089C73.755 47.7953 75.5261 45.9923 77.3141 44.2147C80.8902 40.6852 84.6095 37.2747 87.7976 33.3794C89.3916 31.4318 90.8591 29.3566 92.0652 27.1453C93.0688 25.3082 94.6713 22.6972 93.6929 20.554C92.664 18.3087 90.0073 18.3172 87.9494 18.7764V18.7509ZM39.2853 9.35296C38.619 8.94472 37.8515 8.68957 36.966 8.63855C36.9322 8.63855 36.9069 8.63855 36.8816 8.63855C36.8816 7.97516 36.8648 7.30327 36.8648 6.63988C37.725 7.48187 38.5178 8.40041 39.2853 9.34445V9.35296ZM43.612 76.559C44.2108 70.3674 44.8855 64.1758 45.771 58.0267C46.0072 58.9538 46.2181 59.8808 46.4036 60.8164C45.4253 65.7832 44.5481 70.7586 43.7891 75.7681C43.73 76.0317 43.671 76.2954 43.612 76.559ZM38.2058 60.7313C38.3913 60.4847 38.4925 60.1615 38.4588 59.7532C38.4082 59.2855 38.366 58.8177 38.3238 58.3499C38.3913 57.0317 38.4841 55.7134 38.5684 54.3951C38.6443 57.644 38.7455 60.8929 38.8552 64.1418C38.6106 64.0738 38.3576 64.0567 38.1046 64.0908C38.1299 62.9681 38.1552 61.8455 38.2058 60.7143V60.7313ZM59.6534 49.4708C59.5606 49.5643 59.4763 49.6749 59.4088 49.8025C59.3076 49.9981 59.2317 50.2022 59.1473 50.3978C59.0293 50.2872 58.8943 50.1767 58.7762 50.0661C57.6714 48.076 56.6256 46.0433 55.6219 43.9936C55.7738 43.917 55.9256 43.849 56.0774 43.7725C57.275 45.6691 58.4642 47.5742 59.6618 49.4708H59.6534ZM51.8773 43.2026C51.7592 43.9766 52.0965 44.8016 52.7628 45.0142C53.1508 45.8051 53.5387 46.5961 53.9351 47.3701C53.505 47.3701 53.1002 47.4806 52.7544 47.7188C52.6785 47.6677 52.611 47.6082 52.5351 47.5487C52.3074 47.3871 52.0544 47.2935 51.8098 47.2425C51.6495 45.3289 51.4049 43.4238 51.0929 41.5187C51.3543 42.08 51.6074 42.6413 51.8688 43.2026H51.8773ZM52.0628 54.7098C52.8219 55.909 53.6653 57.0742 54.3315 58.2479C54.4412 58.4435 54.5424 58.6476 54.652 58.8432C53.7749 57.7886 52.9062 56.7255 52.0459 55.6539C52.0459 55.3392 52.0628 55.016 52.0712 54.7013L52.0628 54.7098ZM65.4475 58.1373C64.7981 56.9551 64.1993 55.7389 63.6764 54.4887C63.8957 54.4632 64.1065 54.3866 64.3005 54.2676C64.9499 55.807 65.6078 57.3463 66.2572 58.8772C65.9873 58.6221 65.7174 58.384 65.4475 58.1373ZM54.0701 40.7702C53.9689 40.5491 53.8592 40.328 53.758 40.0983C53.8845 40.3024 54.0111 40.5066 54.1376 40.7107C54.1123 40.7277 54.087 40.7532 54.0701 40.7702ZM49.035 51.9372C48.4025 51.1377 47.7783 50.3213 47.1458 49.5218C47.5169 47.4976 47.9217 45.482 48.3603 43.4748C48.7651 46.2899 48.976 49.1136 49.035 51.9372ZM48.2928 55.8325C48.4699 56.0536 48.6555 56.2832 48.841 56.5044C48.7145 56.4703 48.588 56.4363 48.4615 56.4363C48.4109 56.2322 48.3603 56.0366 48.3012 55.8325H48.2928ZM51.8098 60.1615C52.8809 61.4627 53.9604 62.764 55.0484 64.0567C53.9098 63.4699 52.7713 62.8916 51.6242 62.3217C51.6917 61.5988 51.7592 60.8844 51.8098 60.1615ZM68.5934 71.4986C64.9078 67.5098 61.7028 63.0787 59.004 58.3584C58.3714 57.2443 57.7557 56.1131 57.1738 54.965C57.8401 55.5093 58.4979 56.0536 59.1558 56.6149C61.3402 60.0934 63.7354 63.4444 66.4006 66.6082C66.4006 66.6167 66.409 66.6252 66.4174 66.6337C66.5018 66.7358 66.5777 66.8379 66.662 66.9399C67.1006 67.4502 67.6235 67.5183 68.0789 67.3226C70.5332 70.4269 73.1899 73.4037 75.737 76.4655C73.6032 75.0026 71.4441 73.5823 69.2513 72.2045C69.032 71.9748 68.8043 71.7367 68.585 71.4986H68.5934ZM71.3513 66.6593C71.52 66.5657 71.6718 66.4551 71.7983 66.3191C72.2791 67.1951 72.7682 68.0711 73.249 68.9471C72.608 68.1901 71.9754 67.4247 71.3513 66.6508V66.6593ZM41.3348 20.3413C42.0517 21.481 42.7686 22.6207 43.4854 23.7688C43.5951 24.0325 43.7047 24.2876 43.8144 24.5513C45.2566 28.0298 46.6904 31.5083 48.1747 34.9613C47.6603 35.0974 47.1964 35.4716 47.0361 36.0415C46.1084 39.4945 45.3325 42.9815 44.6409 46.4855C44.5481 46.426 44.4385 46.392 44.3373 46.3495C44.312 43.8915 44.2361 41.4336 44.1011 38.9842C43.8565 34.5701 43.6204 30.02 41.7902 25.9631C41.2926 22.1784 40.6095 18.4277 39.7323 14.7111C40.095 15.5701 40.3733 16.4121 40.601 16.9394C40.854 17.5262 41.0902 18.1131 41.3432 18.6914C41.0227 19.1166 40.9299 19.712 41.3263 20.3413H41.3348ZM23.1005 60.4336C23.1005 60.4336 23.1005 60.4592 23.1005 60.4762C22.9234 60.4081 22.7378 60.3486 22.5607 60.2806C22.586 60.238 22.6113 60.187 22.6366 60.1445C22.7884 60.2465 22.9487 60.3401 23.1005 60.4421V60.4336ZM19.8703 58.3414C19.7438 58.6221 19.6173 58.8942 19.4908 59.1749C18.369 58.7667 17.2389 58.3669 16.1172 57.9587C17.2136 57.7801 18.3016 57.5675 19.3811 57.3293C19.4402 57.7036 19.6173 58.0778 19.8703 58.3499V58.3414ZM27.5368 56.4618C27.5705 57.0487 27.5874 57.627 27.5874 58.2139C27.5621 58.6816 27.5368 59.1494 27.5115 59.6172C27.25 59.4556 26.997 59.294 26.7356 59.1324C27.0054 58.2479 27.2669 57.3549 27.5368 56.4703V56.4618ZM67.3199 74.5689C70.8875 78.277 74.9948 81.4408 79.9287 83.0143C80.207 83.1078 80.4769 83.0653 80.7215 82.9802C81.3624 83.9158 81.9697 84.8683 82.5432 85.8464C77.8624 83.1503 73.2911 80.2672 68.8549 77.1884C65.9283 75.1557 63.0607 73.0295 60.2522 70.8182C59.6281 70.3249 59.0208 69.8146 58.4052 69.3213C61.4245 70.9883 64.3933 72.7403 67.3199 74.5689ZM65.0764 45.7626C64.8234 46.0433 64.5788 46.3239 64.3258 46.6046C64.0306 45.9157 63.7354 45.2183 63.4402 44.5294C63.3137 44.2402 63.1957 43.9596 63.0691 43.6704C65.1186 41.6888 67.244 39.7836 69.4115 37.9381C67.6657 40.345 66.1729 42.9305 65.068 45.7626H65.0764ZM61.7703 40.7192C61.745 40.6682 61.7197 40.6171 61.7028 40.5661C61.939 40.4215 62.1667 40.2769 62.4029 40.1324C62.192 40.328 61.9812 40.5236 61.7703 40.7277V40.7192ZM37.0503 16.5141C37.6576 19.2272 38.172 21.9658 38.5769 24.7129C38.4419 24.934 38.3407 25.1892 38.3407 25.4783C38.307 28.9313 38.307 32.3843 38.3154 35.8374C37.6997 29.4161 37.2696 22.9694 37.0503 16.5226V16.5141ZM32.5044 48.6203C32.0911 48.918 31.6779 49.2071 31.2562 49.4878C31.1971 49.1731 31.1465 48.8584 31.0791 48.5437C31.0538 48.4332 31.0031 48.3566 30.961 48.2631C31.4586 48.1185 31.9646 47.9824 32.4707 47.8463C32.4791 48.11 32.4875 48.3651 32.5044 48.6288V48.6203ZM39.2094 85.2766C39.5299 85.0044 39.7492 84.6302 39.7323 84.1454C39.6311 81.5259 39.5299 78.8979 39.4962 76.2698C39.5636 74.5944 39.6311 72.9104 39.6986 71.2349C39.7408 71.2604 39.7745 71.2859 39.8167 71.3115C39.4877 75.2152 39.3781 79.119 40.0022 83.0058C40.1709 84.0859 41.0227 84.5196 41.7818 84.3836C40.9552 87.6324 40.0697 90.8558 39.1166 94.0622C39.1166 91.1365 39.1588 88.2108 39.2263 85.2766H39.2094ZM69.3946 56.4703C69.0994 56.3683 68.8043 56.3853 68.5259 56.4703C67.9777 55.1691 67.4211 53.8763 66.8729 52.5751C67.0922 52.2179 67.3199 51.8777 67.5392 51.529C67.497 51.9287 67.497 52.3369 67.6151 52.7707C67.9524 54.0294 68.6356 55.2711 69.3862 56.4618L69.3946 56.4703ZM77.4238 34.6041C77.1286 34.5786 76.825 34.6637 76.5382 34.9018C75.6526 35.6332 74.7755 36.3817 73.9152 37.1386C76.8756 33.6176 80.3251 30.4622 83.724 27.3834C84.0613 27.0773 84.1794 26.7115 84.1625 26.3543C84.3059 26.2863 84.4409 26.2098 84.5842 26.1417C84.5674 26.1502 84.93 25.9971 85.3096 25.8355C85.1324 26.3373 85.1662 26.9072 85.3433 27.426C82.7035 29.8159 80.0636 32.2142 77.4322 34.6041H77.4238ZM59.7546 32.7926C64.8993 30.088 70.1959 27.7151 75.6526 25.7165C78.3515 24.7299 81.0757 23.8284 83.8252 23.0204C84.0529 22.9524 84.289 22.8928 84.5168 22.8248C84.1457 22.9779 83.783 23.1565 83.4372 23.3266C79.8696 25.0106 76.496 27.0517 73.2068 29.229C71.7477 30.1901 70.3055 31.1852 68.8549 32.1802C68.9814 32.0782 69.0994 31.9761 69.226 31.8655C70.6766 30.6323 69.3187 28.268 67.5898 29.297C64.6379 31.0406 61.6944 32.7926 58.7425 34.5361C58.1859 33.5155 57.6124 32.5119 57.0051 31.5168C57.2244 31.789 57.4437 32.0612 57.6545 32.3333C58.2027 33.0222 58.9534 33.2093 59.7462 32.7926H59.7546ZM45.7879 17.4667C48.0398 20.2903 50.3001 23.114 52.552 25.9461C51.9785 25.844 51.3797 26.1077 50.958 26.7115C50.7893 26.9582 50.6881 27.2133 50.6206 27.4685C48.9338 25.2657 47.247 23.0544 45.5518 20.8516C45.3325 20.3328 45.1216 19.814 44.9024 19.3037C44.0084 17.186 43.1818 14.9917 42.1444 12.925C43.3505 14.4389 44.565 15.9528 45.771 17.4667H45.7879ZM33.8791 14.4219C33.896 14.2263 33.9297 14.0222 33.9466 13.8266C34.0394 17.6453 34.2081 21.4555 34.4442 25.2657C34.0309 25.3082 33.6261 25.4953 33.3562 25.81C33.3562 25.4698 33.3394 25.1381 33.3478 24.7979C33.39 21.3364 33.5586 17.8664 33.8791 14.4219ZM24.8632 50.1257C24.5174 50.738 24.1632 51.3504 23.8174 51.9542C23.6571 51.9542 23.48 51.9797 23.3029 52.0563C19.5667 53.6297 15.687 54.7013 11.6893 55.2711C13.334 54.5312 14.9954 53.8083 16.6738 53.1279C19.3727 52.0393 22.1053 51.0357 24.8716 50.1171L24.8632 50.1257ZM5.05178 60.5527C4.63851 60.4166 3.60957 60.17 3.34812 59.7192C3.37342 59.7703 3.12883 59.5491 3.13727 59.4981C3.15413 59.3705 4.14091 58.9538 4.29272 58.8772C5.59155 58.1968 6.89882 57.5335 8.21452 56.8956C8.48441 56.768 8.76273 56.6489 9.03262 56.5129C8.99045 56.6234 8.96515 56.7425 8.94828 56.8616C8.41694 57.0487 7.8856 57.2188 7.36269 57.4229C6.01325 57.9417 5.92891 60.0339 7.47233 60.3741C11.1833 61.1821 14.8942 61.9901 18.5968 62.798C20.098 63.4019 21.633 63.9037 23.2017 64.3034C21.945 64.2013 20.6968 64.0653 19.4486 63.8952C14.5653 63.2403 9.72421 62.1346 5.06021 60.5442L5.05178 60.5527ZM40.5251 104.055C40.0444 105.034 39.5299 106.003 38.8974 106.888C38.6359 107.253 37.0166 109.414 36.5021 109.141C36.0467 108.903 36.0129 106.352 35.9539 105.893C35.8105 104.659 35.7009 103.426 35.625 102.193C35.4647 99.7095 35.4226 97.2175 35.4141 94.7256C35.3973 89.8437 35.5238 84.9619 35.1695 80.0886C34.9924 77.6817 34.6888 75.2833 34.2165 72.9189C33.8032 70.8267 33.3647 68.3943 32.2935 66.5232C32.0405 66.0809 31.7369 65.7577 31.3995 65.4941C31.4586 65.4941 31.5261 65.5026 31.5851 65.5026C32.0743 65.5961 32.5803 65.4771 32.9177 65.1454C33.0357 65.9193 33.1707 66.6848 33.2635 67.4587C33.3984 68.5133 34.3261 68.9811 35.1189 68.8535C35.2033 73.2421 35.5406 77.6136 36.266 81.9596C36.0551 89.1208 35.9708 96.282 36.2069 103.443C36.266 105.272 38.6696 105.306 39.201 103.732C40.3058 100.483 41.3263 97.209 42.2878 93.9261C43.03 94.4959 44.2361 94.3428 44.6409 93.1096C47.4325 84.6387 49.7941 75.8446 51.0676 66.9484C51.3459 67.2886 51.6495 67.6203 51.9616 67.9435C51.8098 68.1136 51.7001 68.3262 51.658 68.5814C50.0555 78.4131 47.3735 88.0577 43.5698 97.2515C42.6167 99.5479 41.6215 101.836 40.5167 104.055H40.5251ZM87.106 86.2887C87.2578 86.816 87.4265 87.3773 87.3506 87.8281C85.124 82.7421 82.8721 77.6647 80.4516 72.6723C81.7757 74.7134 83.0408 76.7886 84.1625 78.9574C85.3686 81.2963 86.3891 83.7542 87.1144 86.2887H87.106ZM74.9189 42.2756C73.5948 43.5854 72.3044 44.9291 71.0477 46.3069C72.667 44.0616 74.3791 41.8929 76.184 39.8007C79.2961 36.977 82.3998 34.1619 85.512 31.3382C85.1831 31.738 84.8541 32.1292 84.5168 32.5119C81.5227 35.9649 78.1575 39.0607 74.9189 42.2756ZM88.7085 26.8731C88.6072 26.669 88.4723 26.4904 88.2868 26.3714C88.3121 26.1927 88.3458 26.0226 88.4048 25.8525C88.4639 25.5124 88.5229 25.1807 88.5145 24.832C88.4976 24.1175 88.2446 23.3776 87.6711 22.9098C87.1313 22.4676 86.5494 22.357 85.9674 22.408C86.4903 22.2635 87.0132 22.1104 87.5361 21.9743C88.2446 21.7872 89.9988 21.0983 90.7326 21.5916C91.6603 22.2039 89.4169 25.7505 88.7169 26.8731H88.7085Z" fill="white"/>
<path d="M61.2221 12.3297C61.4667 12.7124 61.8546 12.9761 62.2848 13.0781C62.892 13.2312 63.5921 13.0781 64.1065 12.7294C64.8572 12.2191 65.5487 11.4792 66.1138 10.7648C67.2946 9.26791 68.1464 7.5329 68.5597 5.66182C68.7705 4.72627 68.8717 3.7482 68.8549 2.79565C68.8549 2.31937 68.838 1.78356 68.6946 1.32429C68.3994 0.371741 67.3789 -0.2151 66.4259 0.0740679C65.4475 0.371741 64.6969 1.3328 64.115 2.14077C63.533 2.94874 63.0354 3.79923 62.639 4.71777C61.7787 6.69942 61.2811 8.80014 60.8257 10.9009C60.7245 11.3516 60.8679 11.8279 61.1546 12.1936C61.1799 12.2361 61.1884 12.2872 61.2221 12.3297ZM63.9125 11.0284C63.9125 11.0284 63.9125 11.0454 63.9125 11.0539C63.9125 11.0539 63.9125 11.0539 63.9125 11.0454C63.9125 11.0454 63.9125 11.0454 63.9125 11.0369V11.0284ZM67.4042 2.95724C67.4633 2.89771 67.5139 2.83817 67.5392 2.83817L67.4042 2.95724Z" fill="white"/>
<path d="M11.5965 30.981C13.5026 32.8691 15.7967 34.2554 18.3016 35.1825C18.9088 35.4036 19.5751 35.0209 19.9209 34.4851C20.233 34.1023 20.351 33.5835 20.2414 33.0562C19.7944 30.93 17.5172 29.7648 15.9654 28.5146C14.3039 27.1793 12.7183 25.7505 11.2086 24.2451C10.8459 23.8879 10.2134 23.7433 9.73264 23.9134C8.84707 24.2366 8.3326 24.9935 8.34947 25.9376C8.3579 26.6605 8.69526 27.2899 9.07479 27.8767C9.80011 28.9909 10.6519 30.037 11.5965 30.9725V30.981Z" fill="white"/>
<path d="M99.5461 60.0169C97.6147 59.379 95.4809 59.2259 93.4737 59.4131C92.6893 59.4896 91.9387 60.136 92.0061 60.995C92.0567 61.6924 92.5881 62.3728 93.2965 62.4663C94.7809 63.5635 96.2737 64.6521 97.7581 65.7492C99.2762 66.8634 100.912 68.2582 102.928 67.8074C103.915 67.5863 104.767 66.8124 104.961 65.8003C105.163 64.7712 104.547 63.6655 103.923 62.8916C102.785 61.4712 101.241 60.5867 99.5377 60.0254L99.5461 60.0169ZM101.663 64.7201C101.663 64.7201 101.688 64.7201 101.773 64.7712C101.773 64.7712 101.773 64.7712 101.764 64.7712C101.731 64.7542 101.697 64.7371 101.663 64.7286V64.7201ZM100.786 64.2098C100.718 64.1588 100.651 64.1078 100.584 64.0653C100.255 63.8271 99.9257 63.5805 99.6052 63.3423C99.5546 63.3083 99.5124 63.2743 99.4618 63.2403C99.7232 63.3593 99.9763 63.4869 100.221 63.623C100.33 63.691 100.44 63.7591 100.55 63.8271C100.55 63.8271 100.761 63.9802 100.82 64.0312C101.031 64.2013 101.216 64.3969 101.41 64.5926C101.326 64.5415 101.233 64.499 101.149 64.448C101.022 64.3714 100.912 64.2949 100.786 64.2098ZM101.975 65.4601C101.975 65.4601 101.975 65.4686 101.984 65.4771C101.984 65.4771 101.984 65.4771 101.975 65.4601ZM101.984 65.4771C101.984 65.4771 101.984 65.4601 101.975 65.4516C101.975 65.4345 101.975 65.426 101.975 65.392C102.009 65.426 102 65.4601 101.984 65.4686V65.4771ZM102.262 64.8392C102.262 64.8392 102.287 64.8392 102.312 64.8307C102.312 64.8307 102.296 64.8307 102.262 64.8392Z" fill="white"/>
<path d="M65.009 95.5506C64.8065 95.6186 64.6294 95.7207 64.4776 95.8482C64.4608 95.8482 64.4439 95.8482 64.4186 95.8567C61.7787 96.7072 62.8752 100.339 63.2041 102.303C63.6595 105.017 64.2499 107.704 65.2367 110.273C65.6752 111.404 66.1138 112.688 67.1175 113.445C68.1211 114.202 69.6392 114.219 70.5501 113.283C71.5622 112.246 71.132 110.927 70.7188 109.728C70.2718 108.419 69.8332 107.1 69.4284 105.773C68.4838 102.729 67.6404 99.6584 66.8982 96.5541C66.7042 95.7547 65.7427 95.3124 65.0005 95.5506H65.009ZM68.0452 111.361C68.0789 111.463 68.1127 111.548 68.1548 111.565C68.0452 111.497 68.0199 111.429 68.0452 111.361Z" fill="white"/>
<path d="M19.9125 83.7627C18.757 84.8769 17.6943 86.0845 16.7666 87.3943C16.2184 88.1598 15.6955 88.9422 15.2316 89.7587C14.6918 90.6942 14.4557 91.8424 15.0714 92.812C15.8304 94.0027 17.3654 94.1813 18.3859 93.2457C18.6811 92.9736 18.9004 92.6078 19.1281 92.2847C19.4486 91.8254 19.7691 91.3746 20.0811 90.9154C21.1185 89.4015 22.139 87.8706 23.0836 86.2972C23.3788 85.8039 23.6065 85.2596 23.6656 84.6727C23.7415 83.8648 23.4716 82.9037 22.7125 82.504C21.6246 81.9256 20.351 82.6996 19.9125 83.7712V83.7627Z" fill="white"/>
</svg>
